<svg width="265" height="239" viewBox="0 0 265 239" fill="none" xmlns="http://www.w3.org/2000/svg">
<path d="M125.494 227.995C159.867 227.995 187.732 200.132 187.732 165.762C187.732 131.391 159.867 103.528 125.494 103.528C91.1215 103.528 63.2568 131.391 63.2568 165.762C63.2568 200.132 91.1215 227.995 125.494 227.995Z" fill="#F2F2F2"/>
<path d="M116.702 239C149.32 239 175.762 235.388 175.762 230.932C175.762 226.477 149.32 222.865 116.702 222.865C84.0838 222.865 57.6416 226.477 57.6416 230.932C57.6416 235.388 84.0838 239 116.702 239Z" fill="#3F3D56"/>
<path d="M119.039 67.4613C121.228 66.7257 122.713 65.2682 122.356 64.2059C121.998 63.1436 119.935 62.8788 117.746 63.6144C115.558 64.3501 114.073 65.8076 114.43 66.8699C114.787 67.9322 116.851 68.197 119.039 67.4613Z" fill="#3F3D56"/>
<path d="M109.918 74.7871L131.849 64.7953C131.849 64.7953 169.003 50.7526 200.786 85.0311C200.786 85.0311 186.542 75.8877 175.745 87.9656C175.745 87.9656 155.428 82.4694 138.379 102.664C138.379 102.664 111.712 106.702 100.605 120.853C100.605 120.853 88.2236 118.949 83.2952 134.645C83.271 134.721 83.2274 134.791 83.1687 134.846C83.1101 134.901 83.0382 134.94 82.9601 134.959C82.882 134.979 82.8001 134.978 82.7225 134.957C82.6448 134.936 82.5738 134.895 82.5164 134.838C82.4481 134.772 82.4019 134.685 82.384 134.592C81.9213 132.166 76.4756 99.8076 109.918 74.7871Z" fill="#6C63FF"/>
<path opacity="0.2" d="M109.918 74.7871L131.849 64.7953C131.849 64.7953 169.003 50.7526 200.786 85.0311C200.786 85.0311 186.542 75.8877 175.745 87.9656C175.745 87.9656 155.428 82.4694 138.379 102.664C138.379 102.664 111.712 106.702 100.605 120.853C100.605 120.853 88.2236 118.949 83.2952 134.645C83.271 134.721 83.2274 134.791 83.1687 134.846C83.1101 134.901 83.0382 134.94 82.9601 134.959C82.882 134.979 82.8001 134.978 82.7225 134.957C82.6448 134.936 82.5738 134.895 82.5164 134.838C82.4481 134.772 82.4019 134.685 82.384 134.592C81.9213 132.166 76.4756 99.8076 109.918 74.7871Z" fill="black"/>
<path d="M116.597 116.187L125.729 117.709L128.773 103.251L121.417 100.207L116.597 116.187Z" fill="#2F2E41"/>
<path d="M129.153 113.27C133.496 113.27 137.017 109.75 137.017 105.407C137.017 101.064 133.496 97.5438 129.153 97.5438C124.81 97.5438 121.29 101.064 121.29 105.407C121.29 109.75 124.81 113.27 129.153 113.27Z" fill="#A0616A"/>
<path d="M125.729 109.846C125.729 109.846 126.49 119.485 120.655 120.246C114.821 121.007 125.729 138.255 128.519 138.001C131.309 137.748 136.383 119.231 136.383 119.231C136.383 119.231 129.787 114.665 132.07 110.607L125.729 109.846Z" fill="#A0616A"/>
<path d="M115.963 144.977C115.963 144.977 116.977 152.333 120.021 152.333C123.065 152.333 117.992 143.962 117.992 143.962L115.963 144.977Z" fill="#A0616A"/>
<path d="M160.355 152.333C160.355 152.333 167.965 158.674 166.95 160.703C165.935 162.732 159.34 158.42 158.833 153.347L160.355 152.333Z" fill="#A0616A"/>
<path d="M114.441 176.683L109.621 194.693L104.294 216.507H109.367C109.367 216.507 111.143 209.658 114.441 206.107C114.441 206.107 117.738 200.526 117.738 196.722L125.602 178.205L114.441 176.683Z" fill="#A0616A"/>
<path d="M135.241 177.698L136.763 194.693C136.763 194.693 136.51 206.868 136.763 209.658C137.017 212.448 136.763 216.507 136.763 216.507H141.329C141.329 216.507 145.642 201.541 144.373 193.424L146.149 174.4L135.241 177.698Z" fill="#A0616A"/>
<path d="M129.153 131.026C129.153 131.026 122.319 125.61 124.087 118.045C124.087 118.045 117.231 118.343 114.441 121.133C111.65 123.924 115.202 133.309 115.202 133.309C115.202 133.309 121.29 143.455 120.275 148.021C119.26 152.586 108.353 176.683 111.904 178.205C115.455 179.727 137.017 185.054 147.925 176.176C147.925 176.176 150.715 151.064 139.554 142.948V136.606C139.554 136.606 141.583 134.831 140.568 130.265C140.568 130.265 144.881 122.402 142.344 120.88C139.807 119.358 133.981 117.128 133.981 117.128C133.981 117.128 134.48 128.489 129.153 131.026Z" fill="#2F2E41"/>
<path d="M115.963 121.134C115.963 121.134 112.665 120.626 109.367 125.446C106.07 130.265 97.4449 137.875 101.504 141.679C105.562 145.484 116.47 148.021 116.47 148.021L119.007 143.455L108.099 138.128L117.231 131.28L115.963 121.134Z" fill="#2F2E41"/>
<path d="M141.076 121.133C141.076 121.133 144.627 121.133 146.149 125.446C147.671 129.758 156.549 144.469 156.549 144.469L161.623 152.333L158.071 156.391L148.178 145.23L138.793 129.758L141.076 121.133Z" fill="#2F2E41"/>
<path d="M110.382 215.999H103.279L101.757 228.428C101.757 228.428 97.6985 235.023 103.787 234.262C109.875 233.501 107.845 226.653 107.845 226.653L109.367 224.116L109.875 229.443L110.382 229.189V223.355C110.382 223.355 113.172 220.819 110.382 215.999Z" fill="#2F2E41"/>
<path d="M142.598 215.999L136.002 215.492L134.734 229.696C134.734 229.696 133.973 235.023 138.539 234.262C143.105 233.501 141.583 229.189 141.583 229.189V221.326L142.598 215.999Z" fill="#2F2E41"/>
<path d="M123.446 97.4171C123.446 97.4171 119.75 98.6488 119.563 103.513C119.544 104.291 119.63 105.068 119.819 105.823C120.027 106.705 120.161 108.603 118.549 111.082C117.469 112.719 116.482 114.416 115.594 116.164L115.582 116.187L119.641 116.695L120.504 109.967C120.922 106.706 121.819 103.524 123.164 100.524L123.192 100.461C123.192 100.461 124.968 103.758 128.519 103.758L127.251 102.49C127.251 102.49 132.832 104.773 134.861 104.773C134.861 104.773 136.383 105.788 134.861 107.31C133.339 108.831 130.295 112.383 132.071 115.173C133.846 117.963 132.324 118.724 132.324 118.724L135.115 117.202L136.383 116.441V117.456L142.978 116.695C142.978 116.695 144.754 116.441 140.949 112.129C140.949 112.129 139.944 110.454 140.384 109.01C140.745 107.912 140.84 106.745 140.661 105.603C139.808 100.848 136.464 91.3942 123.446 97.4171Z" fill="#2F2E41"/>
<path d="M163.113 160.253C165.623 157.701 162.843 152.415 162.626 152.013L133.959 93.4795C133.872 93.3026 133.718 93.1675 133.531 93.104C133.344 93.0404 133.139 93.0535 132.962 93.1403C132.785 93.2271 132.649 93.3806 132.585 93.5672C132.52 93.7538 132.533 93.9583 132.619 94.1359L161.3 152.699L161.308 152.713C161.336 152.766 164.104 158.022 161.639 159.529C158.984 161.152 155.888 158.522 155.857 158.495C155.783 158.431 155.697 158.382 155.604 158.351C155.511 158.32 155.412 158.308 155.314 158.315C155.216 158.322 155.121 158.348 155.033 158.392C154.946 158.436 154.867 158.497 154.803 158.571C154.739 158.646 154.69 158.732 154.659 158.825C154.629 158.918 154.616 159.016 154.624 159.114C154.631 159.212 154.657 159.308 154.702 159.395C154.746 159.483 154.807 159.561 154.881 159.625C155.041 159.763 158.843 162.987 162.417 160.802C162.671 160.648 162.905 160.464 163.113 160.253Z" fill="#3F3D56"/>
<path d="M107.867 70.5901L129.107 60.9128C129.107 60.9128 165.092 47.3122 195.875 80.5115C195.875 80.5115 182.079 71.656 171.622 83.3537C171.622 83.3537 151.945 78.0305 135.432 97.5893C135.432 97.5893 109.604 101.5 98.8477 115.206C98.8477 115.206 86.4822 113.304 81.8665 129.28L81.2279 128.652C81.2279 128.652 74.1968 95.7812 107.867 70.5901Z" fill="#6C63FF"/>
<path d="M107.972 70.5299C107.972 70.5299 97.5718 105.534 98.8402 115.173L107.972 70.5299Z" fill="#3F3D56"/>
<path d="M118.964 65.5343C118.964 65.5343 132.07 95.1341 135.368 97.6706L118.964 65.5343Z" fill="#3F3D56"/>
<path d="M129.027 60.8912C129.027 60.8912 162.764 81.1834 171.643 83.4662L129.027 60.8912Z" fill="#3F3D56"/>
<path d="M78.3042 229.585C78.2432 229.485 76.8057 227.085 76.3073 222.101C75.8502 217.528 76.1442 209.821 80.1415 199.07C87.7144 178.703 78.3963 162.27 78.3011 162.106L78.7608 161.839C78.7849 161.881 81.1894 166.071 82.6098 172.742C84.4866 181.588 83.8031 190.784 80.6396 199.255C73.0797 219.588 78.7001 229.213 78.7577 229.308L78.3042 229.585Z" fill="#3F3D56"/>
<path d="M75.343 160.91C77.2503 160.91 78.7965 159.364 78.7965 157.457C78.7965 155.549 77.2503 154.003 75.343 154.003C73.4356 154.003 71.8894 155.549 71.8894 157.457C71.8894 159.364 73.4356 160.91 75.343 160.91Z" fill="#3F3D56"/>
<path d="M86.2351 173.661C88.1424 173.661 89.6887 172.115 89.6887 170.208C89.6887 168.3 88.1424 166.754 86.2351 166.754C84.3277 166.754 82.7815 168.3 82.7815 170.208C82.7815 172.115 84.3277 173.661 86.2351 173.661Z" fill="#3F3D56"/>
<path d="M78.7966 182.161C80.704 182.161 82.2502 180.615 82.2502 178.708C82.2502 176.801 80.704 175.255 78.7966 175.255C76.8892 175.255 75.343 176.801 75.343 178.708C75.343 180.615 76.8892 182.161 78.7966 182.161Z" fill="#6C63FF"/>
<path d="M87.8291 189.334C89.7364 189.334 91.2827 187.788 91.2827 185.88C91.2827 183.973 89.7364 182.427 87.8291 182.427C85.9217 182.427 84.3755 183.973 84.3755 185.88C84.3755 187.788 85.9217 189.334 87.8291 189.334Z" fill="#6C63FF"/>
<path d="M76.1399 200.491C78.0472 200.491 79.5935 198.945 79.5935 197.037C79.5935 195.13 78.0472 193.584 76.1399 193.584C74.2325 193.584 72.6863 195.13 72.6863 197.037C72.6863 198.945 74.2325 200.491 76.1399 200.491Z" fill="#3F3D56"/>
<path d="M80.3905 229.712C80.3905 229.712 76.9369 221.211 87.2976 214.836L80.3905 229.712Z" fill="#3F3D56"/>
<path d="M76.1431 229.557C76.1431 229.557 74.5714 220.518 62.4062 220.595L76.1431 229.557Z" fill="#3F3D56"/>
<path d="M55.1356 0L67.2917 6.65052L43.7385 22.2487L32.4714 14.8165L55.1356 0Z" fill="#3F3D56"/>
<path d="M25.9025 21.1295L0 37.8274L12.029 44.9762L37.9218 27.6918L25.9025 21.1295Z" fill="#3F3D56"/>
<path d="M30.6699 12.8421C29.2896 13.5142 28.0787 14.4889 27.1272 15.6937C26.1758 16.8985 25.5083 18.3024 25.1745 19.8008C25.0425 20.3461 25.0652 20.9174 25.24 21.4505C25.4148 21.9837 25.7348 22.4575 26.1641 22.8188L33.6524 29.1425C34.191 29.5963 34.8548 29.8756 35.5559 29.9432C36.2569 30.0108 36.962 29.8636 37.5774 29.5211C40.622 27.8328 45.5112 24.2889 43.328 19.8008C43.084 19.3023 42.7107 18.8784 42.247 18.5732L33.9014 13.0548C33.428 12.7407 32.8808 12.5558 32.314 12.5185C31.7471 12.4812 31.1803 12.5927 30.6699 12.8421Z" fill="#D0CDE1"/>
<path d="M53.3526 32.7772C57.4153 27.3211 57.7047 20.6614 53.9991 17.9025C50.2935 15.1437 43.996 17.3303 39.9333 22.7865C35.8706 28.2427 35.5812 34.9023 39.2868 37.6612C42.9924 40.42 49.2899 38.2334 53.3526 32.7772Z" fill="#3F3D56"/>
<path opacity="0.2" d="M42.8301 37.521C44.3484 38.652 47.9594 36.4224 51.2054 32.4671C51.4929 32.1174 51.7771 31.7543 52.058 31.3779C52.2638 31.1013 52.4621 30.8247 52.653 30.5482C55.6627 26.1996 56.8525 21.934 55.2979 20.7768C53.732 19.6102 49.9428 22.0163 46.621 26.2022C46.4355 26.4368 46.2519 26.676 46.07 26.9199C45.4413 27.7629 44.8599 28.6402 44.3284 29.5476C42.1875 33.2224 41.4916 36.5238 42.8301 37.521Z" fill="black"/>
<path d="M44.3284 29.5476L51.2054 32.4671L56.1258 34.5557L56.8535 33.5737L52.6529 30.5483L46.621 26.2023C46.4355 26.4368 46.2518 26.676 46.07 26.9199C45.4413 27.763 44.8599 28.6402 44.3284 29.5476Z" fill="#D0CDE1"/>
<path d="M57.4594 36.2309C58.285 36.2309 58.9542 35.5617 58.9542 34.7362C58.9542 33.9107 58.285 33.2415 57.4594 33.2415C56.6338 33.2415 55.9646 33.9107 55.9646 34.7362C55.9646 35.5617 56.6338 36.2309 57.4594 36.2309Z" fill="#D0CDE1"/>
<path d="M57.8982 50.5256C57.9933 50.4386 58.1102 50.379 58.2364 50.3531C66.2877 48.6897 71.3538 44.0543 73.7238 36.1824C73.7787 36.0007 73.9035 35.8482 74.0708 35.7585C74.2381 35.6687 74.4341 35.649 74.6159 35.7037C74.7977 35.7584 74.9503 35.8831 75.0402 36.0502C75.1302 36.2174 75.1501 36.4134 75.0955 36.5953C72.5951 44.9003 67.0205 50.0009 58.5262 51.7559C58.3725 51.7876 58.2127 51.768 58.0713 51.7001C57.9299 51.6322 57.8146 51.5198 57.7433 51.38C57.672 51.2403 57.6485 51.081 57.6765 50.9267C57.7045 50.7723 57.7824 50.6314 57.8982 50.5256H57.8982Z" fill="#6C63FF"/>
<path d="M55.9165 44.2935C56.0116 44.2064 56.1285 44.1468 56.2547 44.121C62.2916 42.8736 66.09 39.3981 67.8671 33.4958C67.9221 33.3142 68.0469 33.1618 68.2141 33.0721C68.3814 32.9824 68.5774 32.9628 68.7591 33.0175C68.9408 33.0721 69.0934 33.1967 69.1834 33.3638C69.2733 33.5309 69.2933 33.7269 69.2388 33.9087C67.3231 40.2715 63.0523 44.1792 56.5445 45.5238C56.3908 45.5555 56.231 45.5359 56.0896 45.468C55.9482 45.4001 55.833 45.2876 55.7616 45.1479C55.6903 45.0082 55.6669 44.8489 55.6948 44.6945C55.7228 44.5402 55.8007 44.3993 55.9165 44.2935L55.9165 44.2935Z" fill="#6C63FF"/>
<path d="M60.8257 56.9075C60.9207 56.8204 61.0376 56.7608 61.1639 56.735C69.1987 55.075 77.985 47.0356 80.3502 39.1799C80.4051 38.9983 80.5299 38.8459 80.6972 38.7562C80.8644 38.6665 81.0604 38.6468 81.2421 38.7015C81.4239 38.7562 81.5764 38.8808 81.6664 39.0479C81.7563 39.215 81.7763 39.4109 81.7219 39.5927C79.2234 47.8915 69.9416 56.3842 61.4537 58.1378C61.3 58.1695 61.1402 58.1499 60.9988 58.082C60.8574 58.0141 60.7421 57.9016 60.6708 57.7619C60.5995 57.6222 60.576 57.4629 60.604 57.3085C60.632 57.1542 60.7099 57.0133 60.8257 56.9075H60.8257Z" fill="#6C63FF"/>
<path d="M209.864 0L197.708 6.65052L221.261 22.2487L232.528 14.8165L209.864 0Z" fill="#3F3D56"/>
<path d="M239.098 21.1295L265 37.8274L252.971 44.9762L227.078 27.6918L239.098 21.1295Z" fill="#3F3D56"/>
<path d="M234.33 12.8421C235.71 13.5142 236.921 14.4889 237.873 15.6937C238.824 16.8985 239.492 18.3024 239.825 19.8008C239.957 20.3461 239.935 20.9174 239.76 21.4505C239.585 21.9837 239.265 22.4575 238.836 22.8188L231.348 29.1425C230.809 29.5963 230.145 29.8756 229.444 29.9432C228.743 30.0108 228.038 29.8636 227.423 29.5211C224.378 27.8328 219.489 24.2889 221.672 19.8008C221.916 19.3023 222.289 18.8783 222.753 18.5732L231.099 13.0548C231.572 12.7407 232.119 12.5558 232.686 12.5185C233.253 12.4812 233.82 12.5927 234.33 12.8421Z" fill="#D0CDE1"/>
<path d="M225.713 37.6612C229.419 34.9023 229.129 28.2427 225.067 22.7865C221.004 17.3303 214.707 15.1437 211.001 17.9026C207.295 20.6614 207.585 27.3211 211.647 32.7773C215.71 38.2334 222.008 40.42 225.713 37.6612Z" fill="#3F3D56"/>
<path opacity="0.2" d="M222.17 37.521C220.652 38.652 217.041 36.4224 213.795 32.4671C213.507 32.1174 213.223 31.7543 212.942 31.3779C212.736 31.1013 212.538 30.8247 212.347 30.5482C209.337 26.1996 208.148 21.934 209.702 20.7768C211.268 19.6102 215.057 22.0163 218.379 26.2022C218.565 26.4368 218.748 26.676 218.93 26.9199C219.559 27.7629 220.14 28.6402 220.672 29.5476C222.813 33.2224 223.509 36.5238 222.17 37.521Z" fill="black"/>
<path d="M220.672 29.5476L213.795 32.4671L208.874 34.5557L208.147 33.5737L212.347 30.5483L218.379 26.2023C218.565 26.4368 218.748 26.676 218.93 26.9199C219.559 27.763 220.14 28.6402 220.672 29.5476Z" fill="#D0CDE1"/>
<path d="M207.541 36.2309C208.366 36.2309 209.035 35.5617 209.035 34.7362C209.035 33.9107 208.366 33.2415 207.541 33.2415C206.715 33.2415 206.046 33.9107 206.046 34.7362C206.046 35.5617 206.715 36.2309 207.541 36.2309Z" fill="#D0CDE1"/>
<path d="M207.102 50.5256C207.007 50.4386 206.89 50.379 206.764 50.3531C198.712 48.6897 193.646 44.0543 191.276 36.1824C191.221 36.0007 191.097 35.8482 190.929 35.7585C190.762 35.6687 190.566 35.649 190.384 35.7037C190.202 35.7584 190.05 35.8831 189.96 36.0502C189.87 36.2174 189.85 36.4134 189.905 36.5953C192.405 44.9003 197.98 50.0009 206.474 51.7559C206.628 51.7876 206.787 51.768 206.929 51.7001C207.07 51.6322 207.185 51.5198 207.257 51.38C207.328 51.2403 207.352 51.081 207.324 50.9267C207.296 50.7723 207.218 50.6314 207.102 50.5256H207.102Z" fill="#6C63FF"/>
<path d="M209.083 44.2935C208.988 44.2064 208.871 44.1468 208.745 44.121C202.708 42.8736 198.91 39.3981 197.133 33.4958C197.078 33.3142 196.953 33.1618 196.786 33.0721C196.619 32.9824 196.423 32.9628 196.241 33.0175C196.059 33.0721 195.906 33.1967 195.817 33.3638C195.727 33.5309 195.707 33.7269 195.761 33.9087C197.677 40.2715 201.948 44.1792 208.455 45.5238C208.609 45.5555 208.769 45.5359 208.91 45.468C209.052 45.4001 209.167 45.2876 209.238 45.1479C209.31 45.0082 209.333 44.8489 209.305 44.6945C209.277 44.5402 209.199 44.3993 209.083 44.2935V44.2935Z" fill="#6C63FF"/>
<path d="M204.174 56.9075C204.079 56.8204 203.962 56.7608 203.836 56.735C195.801 55.075 187.015 47.0356 184.65 39.1799C184.595 38.9983 184.47 38.8459 184.303 38.7562C184.136 38.6665 183.94 38.6468 183.758 38.7015C183.576 38.7562 183.424 38.8808 183.334 39.0479C183.244 39.215 183.224 39.4109 183.278 39.5927C185.777 47.8915 195.058 56.3842 203.546 58.1378C203.7 58.1695 203.86 58.1499 204.001 58.082C204.143 58.0141 204.258 57.9016 204.329 57.7619C204.4 57.6222 204.424 57.4629 204.396 57.3085C204.368 57.1542 204.29 57.0133 204.174 56.9075Z" fill="#6C63FF"/>
</svg>
