<svg width="178" height="203" viewBox="0 0 178 203" fill="none" xmlns="http://www.w3.org/2000/svg">
<path d="M8.88002 197.336C7.72268 197.336 6.65868 197.121 5.68802 196.692C4.71735 196.263 3.86802 195.647 3.14002 194.844C2.43068 194.023 1.87068 193.024 1.46002 191.848C1.06802 190.653 0.872016 189.309 0.872016 187.816C0.872016 186.341 1.07735 185.016 1.48802 183.84C1.89868 182.664 2.46802 181.665 3.19602 180.844C3.92402 180.023 4.78268 179.397 5.77202 178.968C6.76135 178.52 7.84402 178.296 9.02002 178.296C10.14 178.296 11.12 178.529 11.96 178.996C12.8187 179.444 13.5187 179.967 14.06 180.564L12.8 182.076C12.3147 181.553 11.764 181.133 11.148 180.816C10.532 180.499 9.83202 180.34 9.04802 180.34C8.17068 180.34 7.37735 180.517 6.66802 180.872C5.95868 181.208 5.35202 181.703 4.84802 182.356C4.34402 182.991 3.95202 183.765 3.67202 184.68C3.41068 185.595 3.28002 186.621 3.28002 187.76C3.28002 188.917 3.41068 189.963 3.67202 190.896C3.95202 191.811 4.33468 192.595 4.82002 193.248C5.30535 193.901 5.89335 194.405 6.58402 194.76C7.29335 195.115 8.08668 195.292 8.96402 195.292C9.86002 195.292 10.644 195.115 11.316 194.76C11.988 194.387 12.6227 193.873 13.22 193.22L14.508 194.676C13.78 195.516 12.9587 196.169 12.044 196.636C11.1293 197.103 10.0747 197.336 8.88002 197.336ZM30.0001 197.336C29.1601 197.336 28.3574 197.177 27.5921 196.86C26.8454 196.543 26.1828 196.085 25.6041 195.488C25.0254 194.872 24.5588 194.125 24.2041 193.248C23.8681 192.352 23.7001 191.344 23.7001 190.224C23.7001 189.085 23.8681 188.077 24.2041 187.2C24.5588 186.304 25.0254 185.548 25.6041 184.932C26.1828 184.316 26.8454 183.849 27.5921 183.532C28.3574 183.215 29.1601 183.056 30.0001 183.056C30.8401 183.056 31.6334 183.215 32.3801 183.532C33.1454 183.849 33.8174 184.316 34.3961 184.932C34.9748 185.548 35.4321 186.304 35.7681 187.2C36.1228 188.077 36.3001 189.085 36.3001 190.224C36.3001 191.344 36.1228 192.352 35.7681 193.248C35.4321 194.125 34.9748 194.872 34.3961 195.488C33.8174 196.085 33.1454 196.543 32.3801 196.86C31.6334 197.177 30.8401 197.336 30.0001 197.336ZM30.0001 195.432C30.5788 195.432 31.1108 195.311 31.5961 195.068C32.0814 194.807 32.4921 194.452 32.8281 194.004C33.1828 193.537 33.4534 192.987 33.6401 192.352C33.8268 191.717 33.9201 191.008 33.9201 190.224C33.9201 189.44 33.8268 188.731 33.6401 188.096C33.4534 187.443 33.1828 186.883 32.8281 186.416C32.4921 185.949 32.0814 185.595 31.5961 185.352C31.1108 185.091 30.5788 184.96 30.0001 184.96C29.4214 184.96 28.8894 185.091 28.4041 185.352C27.9188 185.595 27.4988 185.949 27.1441 186.416C26.8081 186.883 26.5468 187.443 26.3601 188.096C26.1734 188.731 26.0801 189.44 26.0801 190.224C26.0801 191.008 26.1734 191.717 26.3601 192.352C26.5468 192.987 26.8081 193.537 27.1441 194.004C27.4988 194.452 27.9188 194.807 28.4041 195.068C28.8894 195.311 29.4214 195.432 30.0001 195.432ZM46.8839 197V183.392H48.7879L48.9839 185.352H49.0679C49.6652 184.699 50.3092 184.157 50.9999 183.728C51.7092 183.28 52.4746 183.056 53.2959 183.056C54.3412 183.056 55.1532 183.289 55.7319 183.756C56.3292 184.204 56.7679 184.839 57.0479 185.66C57.7572 184.876 58.4666 184.251 59.1759 183.784C59.9039 183.299 60.6879 183.056 61.5279 183.056C62.9279 183.056 63.9639 183.504 64.6359 184.4C65.3266 185.296 65.6719 186.621 65.6719 188.376V197H63.3759V188.684C63.3759 187.396 63.1706 186.472 62.7599 185.912C62.3492 185.333 61.7146 185.044 60.8559 185.044C59.8292 185.044 58.6906 185.744 57.4399 187.144V197H55.1439V188.684C55.1439 187.396 54.9386 186.472 54.5279 185.912C54.1172 185.333 53.4732 185.044 52.5959 185.044C51.5692 185.044 50.4306 185.744 49.1799 187.144V197H46.8839ZM77.0987 202.74V183.392H79.0027L79.1987 184.96H79.2827C79.8987 184.437 80.5707 183.989 81.2987 183.616C82.0454 183.243 82.8201 183.056 83.6227 183.056C84.5001 183.056 85.2747 183.224 85.9467 183.56C86.6187 183.877 87.1787 184.344 87.6267 184.96C88.0747 185.557 88.4107 186.285 88.6347 187.144C88.8774 187.984 88.9987 188.936 88.9987 190C88.9987 191.157 88.8401 192.193 88.5227 193.108C88.2054 194.004 87.7761 194.769 87.2347 195.404C86.6934 196.039 86.0681 196.524 85.3587 196.86C84.6494 197.177 83.9027 197.336 83.1187 197.336C82.4841 197.336 81.8494 197.196 81.2147 196.916C80.5987 196.636 79.9734 196.253 79.3387 195.768L79.3947 198.148V202.74H77.0987ZM82.7267 195.404C83.2867 195.404 83.8001 195.283 84.2667 195.04C84.7521 194.779 85.1627 194.424 85.4987 193.976C85.8534 193.509 86.1241 192.94 86.3107 192.268C86.5161 191.596 86.6187 190.84 86.6187 190C86.6187 189.253 86.5534 188.572 86.4227 187.956C86.2921 187.34 86.0774 186.817 85.7787 186.388C85.4987 185.94 85.1254 185.595 84.6587 185.352C84.2107 185.109 83.6694 184.988 83.0347 184.988C82.4561 184.988 81.8681 185.147 81.2707 185.464C80.6921 185.781 80.0667 186.239 79.3947 186.836V193.976C80.0107 194.499 80.6081 194.872 81.1867 195.096C81.7654 195.301 82.2787 195.404 82.7267 195.404ZM104.922 197.336C104.082 197.336 103.279 197.177 102.514 196.86C101.767 196.543 101.105 196.085 100.526 195.488C99.9473 194.872 99.4807 194.125 99.126 193.248C98.79 192.352 98.622 191.344 98.622 190.224C98.622 189.085 98.79 188.077 99.126 187.2C99.4807 186.304 99.9473 185.548 100.526 184.932C101.105 184.316 101.767 183.849 102.514 183.532C103.279 183.215 104.082 183.056 104.922 183.056C105.762 183.056 106.555 183.215 107.302 183.532C108.067 183.849 108.739 184.316 109.318 184.932C109.897 185.548 110.354 186.304 110.69 187.2C111.045 188.077 111.222 189.085 111.222 190.224C111.222 191.344 111.045 192.352 110.69 193.248C110.354 194.125 109.897 194.872 109.318 195.488C108.739 196.085 108.067 196.543 107.302 196.86C106.555 197.177 105.762 197.336 104.922 197.336ZM104.922 195.432C105.501 195.432 106.033 195.311 106.518 195.068C107.003 194.807 107.414 194.452 107.75 194.004C108.105 193.537 108.375 192.987 108.562 192.352C108.749 191.717 108.842 191.008 108.842 190.224C108.842 189.44 108.749 188.731 108.562 188.096C108.375 187.443 108.105 186.883 107.75 186.416C107.414 185.949 107.003 185.595 106.518 185.352C106.033 185.091 105.501 184.96 104.922 184.96C104.343 184.96 103.811 185.091 103.326 185.352C102.841 185.595 102.421 185.949 102.066 186.416C101.73 186.883 101.469 187.443 101.282 188.096C101.095 188.731 101.002 189.44 101.002 190.224C101.002 191.008 101.095 191.717 101.282 192.352C101.469 192.987 101.73 193.537 102.066 194.004C102.421 194.452 102.841 194.807 103.326 195.068C103.811 195.311 104.343 195.432 104.922 195.432ZM125.782 197.336C124.326 197.336 123.262 196.888 122.59 195.992C121.936 195.096 121.61 193.771 121.61 192.016V183.392H123.934V191.708C123.934 192.996 124.13 193.929 124.522 194.508C124.932 195.068 125.586 195.348 126.482 195.348C127.191 195.348 127.816 195.171 128.358 194.816C128.899 194.443 129.496 193.855 130.15 193.052V183.392H132.446V197H130.542L130.346 194.872H130.262C129.627 195.619 128.955 196.216 128.246 196.664C127.555 197.112 126.734 197.336 125.782 197.336ZM144.036 197V183.392H145.94L146.136 185.352H146.22C146.874 184.699 147.555 184.157 148.264 183.728C148.992 183.28 149.832 183.056 150.784 183.056C152.222 183.056 153.267 183.504 153.92 184.4C154.592 185.296 154.928 186.621 154.928 188.376V197H152.632V188.684C152.632 187.396 152.427 186.472 152.016 185.912C151.606 185.333 150.952 185.044 150.056 185.044C149.347 185.044 148.722 185.221 148.18 185.576C147.639 185.931 147.023 186.453 146.332 187.144V197H144.036ZM170.997 197.336C169.279 197.336 167.907 196.72 166.881 195.488C165.873 194.256 165.369 192.501 165.369 190.224C165.369 189.123 165.527 188.133 165.845 187.256C166.181 186.36 166.619 185.604 167.161 184.988C167.702 184.372 168.327 183.896 169.037 183.56C169.746 183.224 170.493 183.056 171.277 183.056C172.061 183.056 172.742 183.196 173.321 183.476C173.899 183.756 174.487 184.139 175.085 184.624L174.973 182.3V177.064H177.297V197H175.393L175.197 195.404H175.113C174.571 195.927 173.946 196.384 173.237 196.776C172.546 197.149 171.799 197.336 170.997 197.336ZM171.501 195.404C172.135 195.404 172.733 195.255 173.293 194.956C173.853 194.639 174.413 194.163 174.973 193.528V186.416C174.394 185.893 173.834 185.529 173.293 185.324C172.77 185.1 172.229 184.988 171.669 184.988C171.127 184.988 170.614 185.119 170.129 185.38C169.662 185.623 169.251 185.977 168.897 186.444C168.542 186.892 168.262 187.433 168.057 188.068C167.851 188.703 167.749 189.412 167.749 190.196C167.749 191.839 168.075 193.117 168.729 194.032C169.382 194.947 170.306 195.404 171.501 195.404Z" fill="white"/>
<path fill-rule="evenodd" clip-rule="evenodd" d="M42.5 163C43.8807 163 45 161.881 45 160.5V160.067C45 158.686 43.8807 157.567 42.5 157.567C41.1193 157.567 40 158.686 40 160.067V160.5C40 161.881 41.1193 163 42.5 163ZM55.5 163C56.8807 163 58 161.881 58 160.5V154.633C58 153.253 56.8807 152.133 55.5 152.133C54.1193 152.133 53 153.253 53 154.633V160.5C53 161.881 54.1193 163 55.5 163ZM71 160.5C71 161.881 69.8807 163 68.5 163C67.1193 163 66 161.881 66 160.5V149.2C66 147.819 67.1193 146.7 68.5 146.7C69.8807 146.7 71 147.819 71 149.2V160.5ZM81.5 163C82.8807 163 84 161.881 84 160.5V143.767C84 142.386 82.8807 141.267 81.5 141.267C80.1193 141.267 79 142.386 79 143.767V160.5C79 161.881 80.1193 163 81.5 163ZM97 160.5C97 161.881 95.8807 163 94.5 163C93.1193 163 92 161.881 92 160.5V136.16C92 134.779 93.1193 133.66 94.5 133.66C95.8807 133.66 97 134.779 97 136.16V160.5ZM107.5 163C108.881 163 110 161.881 110 160.5V113.34C110 111.959 108.881 110.84 107.5 110.84C106.119 110.84 105 111.959 105 113.34V160.5C105 161.881 106.119 163 107.5 163ZM123 160.5C123 161.881 121.881 163 120.5 163C119.119 163 118 161.881 118 160.5L118 73.1333C118 71.7526 119.119 70.6333 120.5 70.6333C121.881 70.6333 123 71.7526 123 73.1333L123 160.5ZM133.5 163C134.881 163 136 161.881 136 160.5V2.5C136 1.11929 134.881 0 133.5 0C132.119 0 131 1.11929 131 2.5V160.5C131 161.881 132.119 163 133.5 163Z" fill="white"/>
</svg>
