<svg width="375" height="253" viewBox="0 0 375 253" fill="none" xmlns="http://www.w3.org/2000/svg">
<defs>
<clipPath id="clip0">
<rect width="458" height="253" fill="white" transform="translate(-11)"/>
</clipPath>
</defs>
<g clip-path="url(#clip0)">
<path d="M339.656 250.139C333.792 245.561 330.23 238.329 331.164 231.289C332.098 224.249 337.884 217.776 345.388 216.281C352.892 214.786 361.446 218.925 363.726 225.698C364.98 212.64 366.425 199.034 373.939 187.914C380.743 177.845 392.527 170.64 405.299 169.351C418.07 168.062 431.517 172.93 439.482 182.244C447.447 191.558 449.397 205.098 443.818 215.791C439.709 223.668 432.138 229.53 424.205 234.3C398.572 249.581 367.828 255.796 337.631 251.799L339.656 250.139Z" fill="#F2F2F2"/>
<path d="M426.852 173.2C416.314 181.131 406.647 190 397.99 199.681C384.441 214.78 373.478 231.708 365.481 249.876C364.896 251.201 367.225 251.778 367.804 250.467C380.888 220.94 401.775 194.916 428.555 174.774C429.758 173.869 428.045 172.303 426.852 173.2Z" fill="white"/>
<path d="M136.438 248.895C144.491 242.607 149.383 232.674 148.1 223.004C146.817 213.335 138.871 204.445 128.564 202.392C118.257 200.338 106.508 206.022 103.378 215.325C101.655 197.39 99.6693 178.703 89.3488 163.429C80.0039 149.599 63.8184 139.703 46.2769 137.932C28.7355 136.162 10.2666 142.849 -0.673382 155.641C-11.6133 168.434 -14.292 187.031 -6.62989 201.718C-0.985511 212.537 9.41342 220.589 20.3089 227.14C55.0693 248.039 98.1895 256.755 139.219 251.176" fill="#F2F2F2"/>
<path d="M16.6731 143.219C31.1469 154.112 44.4252 166.295 56.3158 179.591C68.2082 192.874 78.6783 207.191 87.5788 222.342C92.5538 230.841 97.0229 239.584 100.966 248.533C101.77 250.354 98.571 251.146 97.7759 249.346C90.7913 233.569 82.1499 218.462 71.9758 204.243C61.8511 190.075 50.2628 176.848 37.3738 164.747C30.0837 157.906 22.392 151.441 14.3336 145.381C12.6818 144.138 15.035 141.987 16.6731 143.219L16.6731 143.219Z" fill="white"/>
<path d="M317.76 252.446H125.61V70.2861C125.61 31.5301 159.735 0 201.68 0H241.69C283.635 0 317.76 31.5301 317.76 70.2861V252.446Z" fill="#F2F2F2"/>
<path d="M277.751 252.446H125.61V70.2863C125.568 55.4359 130.658 40.9608 140.138 28.9686C140.487 28.5285 140.836 28.0941 141.195 27.6644C145.781 22.1077 151.237 17.214 157.385 13.1449C157.733 12.9114 158.081 12.682 158.435 12.4525C163.58 9.16315 169.144 6.47415 175.003 4.44673C175.351 4.32489 175.705 4.20281 176.06 4.08572C181.358 2.33857 186.851 1.14179 192.436 0.51746C192.782 0.473756 193.138 0.439557 193.493 0.405358C198.936 -0.132352 204.426 -0.132352 209.868 0.405358C210.223 0.439557 210.578 0.473752 210.929 0.517928C216.513 1.1423 222.004 2.33894 227.301 4.08574C227.656 4.20283 228.01 4.32491 228.359 4.44698C234.145 6.44883 239.645 9.09771 244.734 12.3345C245.088 12.5589 245.442 12.7884 245.79 13.0178C249.237 15.2907 252.474 17.8228 255.468 20.5883C257.87 22.8065 260.108 25.171 262.167 27.6659C262.525 28.0941 262.874 28.5285 263.223 28.9679C272.703 40.9602 277.793 55.4356 277.751 70.2863V252.446Z" fill="#CCCCCC"/>
<path d="M265.379 170.973C270.031 170.973 273.802 167.488 273.802 163.19C273.802 158.892 270.031 155.408 265.379 155.408C260.727 155.408 256.956 158.892 256.956 163.19C256.956 167.488 260.727 170.973 265.379 170.973Z" fill="#6C63FF"/>
<path d="M302.019 246.99H295.565L292.494 223.989L302.02 223.989L302.019 246.99Z" fill="#FFB8B8"/>
<path d="M290.954 245.286H303.401V252.527H283.117C283.117 251.576 283.32 250.635 283.714 249.756C284.108 248.878 284.685 248.079 285.413 247.407C286.141 246.735 287.005 246.201 287.955 245.837C288.906 245.473 289.925 245.286 290.954 245.286Z" fill="#2F2E41"/>
<path d="M334.131 246.99H327.677L324.607 223.989L334.133 223.989L334.131 246.99Z" fill="#FFB8B8"/>
<path d="M323.067 245.286H335.514V252.527H315.23C315.23 251.576 315.433 250.635 315.827 249.756C316.221 248.878 316.798 248.079 317.526 247.407C318.253 246.735 319.117 246.201 320.068 245.837C321.019 245.473 322.038 245.286 323.067 245.286Z" fill="#2F2E41"/>
<path d="M269.642 164.732C269.178 164.1 268.869 163.381 268.738 162.627C268.607 161.873 268.656 161.101 268.882 160.367C269.109 159.632 269.507 158.952 270.048 158.375C270.59 157.798 271.262 157.337 272.017 157.026L293.956 101.154L304.752 106.597L279.702 159.991C280.184 161.197 280.17 162.525 279.663 163.723C279.156 164.921 278.191 165.905 276.951 166.49C275.711 167.074 274.282 167.218 272.935 166.894C271.588 166.57 270.416 165.801 269.642 164.732Z" fill="#FFB8B8"/>
<path d="M330.835 175.231C330.117 174.851 329.499 174.33 329.023 173.705C328.547 173.081 328.225 172.367 328.08 171.615C327.935 170.863 327.97 170.091 328.183 169.353C328.395 168.614 328.781 167.928 329.312 167.343L322.515 108.239L334.801 108.758L337.625 166.894C338.631 167.783 339.249 168.982 339.362 170.264C339.475 171.546 339.075 172.822 338.238 173.849C337.401 174.877 336.185 175.585 334.82 175.84C333.456 176.094 332.038 175.877 330.835 175.231Z" fill="#FFB8B8"/>
<path d="M311.235 90.8045C318.376 90.8045 324.165 85.4558 324.165 78.8578C324.165 72.2599 318.376 66.9111 311.235 66.9111C304.094 66.9111 298.305 72.2599 298.305 78.8578C298.305 85.4558 304.094 90.8045 311.235 90.8045Z" fill="#FFB8B8"/>
<path d="M330.752 161.789H291.771L291.818 161.508C291.888 161.089 298.765 119.464 293.693 105.846C293.184 104.507 293.229 103.043 293.819 101.733C294.408 100.423 295.502 99.3617 296.888 98.7522H296.888C304.138 95.5977 318.055 91.7133 329.801 101.14C331.53 102.55 332.879 104.312 333.744 106.287C334.608 108.263 334.963 110.396 334.781 112.52L330.752 161.789Z" fill="#6C63FF"/>
<path d="M299.258 125.615L281.708 122.326L289.934 104.314C290.427 102.57 291.648 101.077 293.33 100.163C295.012 99.249 297.017 98.9889 298.907 99.4395C300.796 99.8902 302.415 101.015 303.408 102.567C304.401 104.119 304.687 105.971 304.204 107.718L299.258 125.615Z" fill="#6C63FF"/>
<path d="M321.735 131.723L320.68 109.377C319.879 105.176 322.482 101.205 326.485 100.556C330.489 99.9095 334.398 102.823 335.202 107.055L339.167 127.935L321.735 131.723Z" fill="#6C63FF"/>
<path d="M329.455 159.113C335.727 181.185 336.412 209.247 334.72 239.857L326.297 238.884L311.03 180.515L302.607 239.857L293.131 239.371C290.3 207.253 287.544 179.681 292.078 161.545L329.455 159.113Z" fill="#2F2E41"/>
<path d="M319.754 88.0906C317.342 90.4647 312.863 89.1902 312.548 85.9469C312.524 85.6951 312.526 85.4417 312.554 85.1902C312.716 83.7536 313.614 82.4493 313.399 80.9324C313.35 80.5549 313.198 80.1951 312.957 79.8871C311.035 77.5089 306.523 80.9509 304.709 78.7979C303.596 77.4778 304.904 75.3993 304.05 73.9239C302.924 71.9765 299.587 72.9371 297.494 71.8706C295.166 70.6841 295.305 67.3834 296.838 65.3758C298.707 62.9274 301.984 61.6209 305.22 61.4327C308.457 61.2444 311.671 62.0527 314.692 63.1406C318.125 64.3768 321.529 66.0851 323.642 68.8742C326.211 72.266 326.458 76.826 325.173 80.7921C324.392 83.2047 321.724 86.1519 319.754 88.0906Z" fill="#2F2E41"/>
<path d="M431.197 252.759H42.5321C42.3662 252.759 42.2072 252.698 42.0901 252.589C41.9729 252.48 41.9071 252.333 41.9071 252.18C41.9071 252.027 41.9729 251.88 42.0901 251.771C42.2072 251.663 42.3662 251.601 42.5321 251.601H431.197C431.363 251.601 431.522 251.663 431.639 251.771C431.756 251.88 431.822 252.027 431.822 252.18C431.822 252.333 431.756 252.48 431.639 252.589C431.522 252.698 431.363 252.759 431.197 252.759Z" fill="#3F3D56"/>
<path d="M235.899 199.671H167.462C166.561 199.675 165.694 199.349 165.053 198.764C164.411 198.179 164.047 197.383 164.04 196.55V55.4094C164.047 54.5766 164.411 53.7804 165.053 53.1954C165.694 52.6104 166.561 52.2844 167.462 52.2889H235.899C236.8 52.2844 237.667 52.6104 238.308 53.1954C238.95 53.7804 239.314 54.5766 239.321 55.4094V196.55C239.314 197.383 238.95 198.179 238.308 198.764C237.667 199.349 236.8 199.675 235.899 199.671Z" fill="white"/>
<path d="M239.321 97.9577H164.04V98.9305H239.321V97.9577Z" fill="#CCCCCC"/>
<path d="M239.584 153.462H164.303V154.435H239.584V153.462Z" fill="#CCCCCC"/>
<path d="M188.783 52.2889H187.73V200.157H188.783V52.2889Z" fill="#CCCCCC"/>
<path d="M215.105 52.2889H214.052V200.157H215.105V52.2889Z" fill="#CCCCCC"/>
</g>
</svg>
