<svg width="250" height="253" viewBox="0 0 250 253" fill="none" xmlns="http://www.w3.org/2000/svg">
<path d="M125 253C194.036 253 250 249.701 250 245.631C250 241.562 194.036 238.263 125 238.263C55.9644 238.263 0 241.562 0 245.631C0 249.701 55.9644 253 125 253Z" fill="#E6E6E6"/>
<path d="M141.703 58.3715H140.359V21.3987C140.359 15.7234 138.112 10.2806 134.114 6.26753C130.115 2.2545 124.692 0 119.037 0H40.9879C35.333 0 29.9098 2.2545 25.9112 6.26753C21.9126 10.2806 19.6663 15.7234 19.6663 21.3987V224.233C19.6663 229.908 21.9126 235.351 25.9112 239.364C29.9098 243.377 35.333 245.632 40.9879 245.632H119.037C124.692 245.632 130.115 243.377 134.114 239.364C138.112 235.351 140.359 229.908 140.359 224.233V84.6891H141.703V58.3715Z" fill="#3F3D56"/>
<path d="M135.821 21.5483V224.084C135.821 228.322 134.143 232.387 131.157 235.384C128.171 238.381 124.12 240.065 119.897 240.065H41.4737C37.2507 240.064 33.2008 238.381 30.2147 235.384C27.2286 232.387 25.551 228.322 25.5508 224.084V21.5483C25.5509 17.3099 27.2285 13.2452 30.2147 10.2482C33.2009 7.25126 37.251 5.56754 41.4741 5.56744H50.988C50.5205 6.72035 50.3424 7.9709 50.4694 9.20909C50.5965 10.4473 51.0248 11.6352 51.7167 12.6682C52.4085 13.7013 53.3427 14.5479 54.4371 15.1336C55.5315 15.7192 56.7525 16.026 57.9928 16.0269H102.706C103.947 16.0261 105.168 15.7194 106.262 15.1337C107.357 14.5481 108.291 13.7015 108.983 12.6684C109.675 11.6353 110.103 10.4474 110.23 9.20918C110.357 7.97097 110.179 6.72038 109.712 5.56744H119.897C124.12 5.56754 128.171 7.25126 131.157 10.2482C134.143 13.2452 135.821 17.3099 135.821 21.5483Z" fill="white"/>
<path d="M61.779 174.893H60.1296L60.6803 142.561H61.231L61.779 174.893Z" fill="#E6E6E6"/>
<path d="M63.1531 122.205L65.8153 118.076C65.0258 115.887 64.1139 113.745 63.0841 111.659L61.3627 113.055L62.7257 110.941C61.4266 108.375 60.4045 106.758 60.4045 106.758C60.4045 106.758 55.0661 115.201 53.2816 124.142L56.6979 129.441L52.9166 126.375C52.782 127.417 52.7127 128.466 52.7092 129.516C52.7092 140.104 56.1549 148.688 60.4053 148.688C64.6556 148.688 68.1013 140.103 68.1013 129.516C68.1013 126.233 67.3612 122.799 66.3392 119.622L63.1531 122.205Z" fill="#CCCCCC"/>
<path d="M104.716 174.893H103.066L103.617 142.561H104.167L104.716 174.893Z" fill="#E6E6E6"/>
<path d="M106.09 122.205L108.752 118.076C107.962 115.887 107.05 113.745 106.021 111.659L104.299 113.055L105.662 110.941C104.363 108.375 103.341 106.758 103.341 106.758C103.341 106.758 98.0019 115.202 96.2192 124.142L99.6329 129.44L95.8517 126.374C95.717 127.416 95.6478 128.465 95.6443 129.515C95.6443 140.103 99.09 148.687 103.34 148.687C107.591 148.687 111.036 140.102 111.036 129.515C111.036 126.233 110.296 122.798 109.274 119.621L106.09 122.205Z" fill="#CCCCCC"/>
<path d="M60.5238 67.7176C68.8932 67.7176 75.678 60.9083 75.678 52.5086C75.678 44.1089 68.8932 37.2996 60.5238 37.2996C52.1544 37.2996 45.3696 44.1089 45.3696 52.5086C45.3696 60.9083 52.1544 67.7176 60.5238 67.7176Z" fill="#E6E6E6"/>
<path d="M81.5135 170.186H78.113L79.2467 103.519H80.3799L81.5135 170.186Z" fill="#E6E6E6"/>
<path d="M84.3474 61.5473L89.8367 53.0343C88.2088 48.5212 86.3286 44.1039 84.2049 39.8034L80.6554 42.6805L83.4659 38.3212C80.7861 33.0298 78.68 29.6958 78.68 29.6958C78.68 29.6958 67.6712 47.1065 63.9931 65.5408L71.0353 76.4667L63.2373 70.1455C62.9596 72.2929 62.8167 74.4557 62.8096 76.6211C62.8096 98.4534 69.9142 116.152 78.6781 116.152C87.4421 116.152 94.5467 98.4534 94.5467 76.6211C94.5467 69.853 93.021 62.772 90.9164 56.2216L84.3474 61.5473Z" fill="#CCCCCC"/>
<path d="M135.82 179.795V225.116C135.82 234.308 128.691 241.759 119.897 241.76H41.4734C32.6794 241.76 25.5502 234.308 25.5498 225.116V184.214C39.1467 167.53 58.8057 157.559 79.7576 156.719C100.709 155.88 121.041 164.248 135.82 179.795Z" fill="#E6E6E6"/>
<path opacity="0.2" d="M80.771 224.501C93.5863 224.501 103.975 214.075 103.975 201.213C103.975 188.352 93.5863 177.925 80.771 177.925C67.9557 177.925 57.5669 188.352 57.5669 201.213C57.5669 214.075 67.9557 224.501 80.771 224.501Z" fill="#6C63FF"/>
<path d="M80.7708 219.965C91.0897 219.965 99.4548 211.569 99.4548 201.213C99.4548 190.857 91.0897 182.462 80.7708 182.462C70.452 182.462 62.0869 190.857 62.0869 201.213C62.0869 211.569 70.452 219.965 80.7708 219.965Z" fill="#6C63FF"/>
<path d="M78.5919 209.23L72.0071 200.734L75.8364 197.745L78.9539 201.768L89.4858 190.61L93.0078 193.958L78.5919 209.23Z" fill="white"/>
<path d="M180.061 172.048C186.752 172.048 192.175 166.604 192.175 159.889C192.175 153.174 186.752 147.731 180.061 147.731C173.37 147.731 167.946 153.174 167.946 159.889C167.946 166.604 173.37 172.048 180.061 172.048Z" fill="#2F2E41"/>
<path d="M184.97 228.144L185.903 232.563L203.33 231.052L201.953 224.531L184.97 228.144Z" fill="#FFB8B8"/>
<path d="M183.613 241.953L180.681 228.066L186.027 226.929L187.827 235.451C187.976 236.155 187.985 236.882 187.853 237.591C187.722 238.299 187.453 238.974 187.062 239.578C186.671 240.182 186.165 240.702 185.573 241.11C184.981 241.518 184.315 241.804 183.613 241.953Z" fill="#2F2E41"/>
<path d="M174.053 227.908L172.091 231.974L155.535 226.316L158.43 220.316L174.053 227.908Z" fill="#FFB8B8"/>
<path d="M169.535 234.319L173.317 226.478L178.236 228.869L172.072 241.646C170.768 241.012 169.767 239.884 169.292 238.51C168.816 237.136 168.903 235.628 169.535 234.319Z" fill="#2F2E41"/>
<path d="M141.431 219.879C141.998 219.985 142.581 219.965 143.139 219.82C143.698 219.676 144.217 219.41 144.662 219.042C145.107 218.674 145.466 218.212 145.714 217.69C145.962 217.167 146.093 216.597 146.097 216.018L173.4 190.754L166.62 185.484L141.9 211.99C140.93 212.046 140.015 212.458 139.328 213.146C138.641 213.835 138.23 214.753 138.172 215.725C138.114 216.698 138.414 217.658 139.015 218.424C139.616 219.19 140.476 219.707 141.432 219.879L141.431 219.879Z" fill="#FFB8B8"/>
<path d="M178.54 172.597C183.52 172.597 187.557 168.545 187.557 163.547C187.557 158.55 183.52 154.498 178.54 154.498C173.561 154.498 169.524 158.55 169.524 163.547C169.524 168.545 173.561 172.597 178.54 172.597Z" fill="#FFB8B8"/>
<path d="M186.632 216.74C180.307 216.74 172.69 215.403 167.991 209.932L167.885 209.809L167.995 209.688C168.032 209.649 171.488 205.684 168.036 198.613L163.289 200.078L158.565 193.819L161.182 185.938L171.893 177.28C173.428 176.046 175.296 175.302 177.256 175.146C180.804 174.802 184.26 173.814 187.456 172.231C188.919 171.517 190.53 171.164 192.155 171.199L192.366 171.205C192.861 171.219 193.347 171.334 193.796 171.542C194.245 171.75 194.647 172.048 194.978 172.417C195.309 172.785 195.562 173.218 195.721 173.688C195.881 174.158 195.943 174.655 195.905 175.15C195.179 184.593 193.897 207.404 197.665 215.258L197.762 215.461L197.545 215.517C193.963 216.325 190.304 216.735 186.633 216.739L186.632 216.74Z" fill="#6C63FF"/>
<path d="M169.231 209.812C169.231 209.812 145.369 207.601 142.8 214.602C140.23 221.602 143.167 224.918 147.572 226.392C151.977 227.865 162.623 229.708 162.623 229.708L167.396 223.813L179.877 224.549C179.877 224.549 193.785 232.645 197.631 241.304C198.456 243.177 199.771 244.791 201.438 245.975C203.104 247.158 205.059 247.865 207.094 248.022C210.177 248.238 212.917 247.069 212.917 242.234C212.917 231.181 197.499 215.338 197.499 215.338L169.231 209.812Z" fill="#2F2E41"/>
<path d="M151.059 220.681C151.059 220.681 157.3 218.839 167.212 223.628L151.059 220.681Z" fill="#2F2E41"/>
<path d="M169.546 157.776C173.067 159.934 177.037 161.246 181.146 161.612L179.924 160.142C180.814 160.472 181.751 160.659 182.699 160.695C183.174 160.708 183.646 160.61 184.076 160.408C184.507 160.206 184.884 159.906 185.177 159.531C185.417 159.142 185.56 158.7 185.593 158.243C185.626 157.787 185.548 157.329 185.367 156.909C184.994 156.072 184.414 155.344 183.682 154.795C182.384 153.765 180.853 153.072 179.224 152.78C177.595 152.488 175.919 152.605 174.346 153.12C173.267 153.444 172.3 154.066 171.556 154.915C171.191 155.343 170.937 155.855 170.818 156.406C170.698 156.956 170.717 157.528 170.872 158.07" fill="#2F2E41"/>
<path d="M179.996 150.543C181.598 146.81 183.996 143.474 187.021 140.771C188.964 139.039 191.233 137.55 193.793 137.1C196.353 136.651 199.238 137.421 200.809 139.499C202.094 141.199 202.333 143.476 202.192 145.604C202.05 147.732 201.576 149.841 201.621 151.972C201.668 154.148 202.255 156.277 203.329 158.168C204.404 160.058 205.932 161.649 207.774 162.797C209.617 163.944 211.716 164.611 213.88 164.738C216.045 164.865 218.207 164.447 220.17 163.523C217.96 164.749 216.237 166.691 214.186 168.168C212.136 169.645 209.428 170.659 207.097 169.682C204.631 168.651 203.499 165.843 202.616 163.312L198.676 152.023C198.006 150.104 197.303 148.128 195.937 146.627C194.57 145.127 192.352 144.212 190.471 144.966C189.045 145.538 188.117 146.903 187.303 148.208C186.489 149.513 185.63 150.905 184.256 151.59C182.882 152.275 180.842 151.854 180.393 150.38" fill="#2F2E41"/>
<path d="M183.09 216.771C182.934 216.771 182.779 216.763 182.624 216.746C181.598 216.63 180.655 216.124 179.989 215.332C179.323 214.54 178.985 213.522 179.044 212.488C179.103 211.453 179.554 210.48 180.305 209.769C181.057 209.059 182.051 208.664 183.083 208.666C183.263 208.666 183.443 208.68 183.621 208.706L195.948 195.536L194.661 191.231L201.123 188.323L202.934 192.767C203.541 194.272 203.649 195.933 203.241 197.505C202.832 199.076 201.93 200.473 200.668 201.489L187.099 212.321C187.114 212.453 187.121 212.586 187.121 212.719C187.121 213.289 187.001 213.853 186.77 214.373C186.538 214.894 186.199 215.359 185.776 215.74C185.04 216.407 184.082 216.775 183.09 216.771Z" fill="#FFB8B8"/>
<path d="M192.726 172.969C193.153 172.778 193.615 172.676 194.082 172.669C194.55 172.662 195.014 172.749 195.447 172.927C195.88 173.104 196.273 173.368 196.602 173.701C196.931 174.035 197.19 174.432 197.362 174.868L203.739 191.022L193.827 197.654L192.726 172.969Z" fill="#6C63FF"/>
</svg>
