<svg width="302" height="250" viewBox="0 0 302 250" fill="none" xmlns="http://www.w3.org/2000/svg">
<defs>
<clipPath id="clip0">
<rect width="301.894" height="250" fill="white"/>
</clipPath>
</defs>
<g clip-path="url(#clip0)">
<path d="M266.928 142.91C265.27 157.108 261.827 168.508 257.1 177.599C250.811 189.713 240.053 194.593 230.443 199.7C227.666 201.173 224.778 202.429 221.807 203.455C204.319 209.525 184.746 207.914 169.372 204.71C158.588 202.46 147.642 201.077 136.638 200.572C133.5 200.43 130.358 200.36 127.214 200.361C122.365 200.367 35.0511 202.024 13.7928 158.986C8.54422 148.369 4.94665 135.4 3.65416 119.592C-0.00315676 74.8987 20.0979 45.5458 46.0262 26.3598C95.0746 -9.93346 162.306 -8.41141 210.631 28.8379C242.82 53.6498 272.959 91.201 266.928 142.91Z" fill="#F2F2F2"/>
<path d="M94.3418 129.971C94.3418 165.496 73.2227 177.9 47.1709 177.9C21.1191 177.9 0 165.496 0 129.971C0 94.4456 47.1709 49.252 47.1709 49.252C47.1709 49.252 94.3418 94.4456 94.3418 129.971Z" fill="#6C63FF"/>
<path d="M45.4526 172.466L45.9357 142.734L66.0412 105.953L46.0115 138.07L46.2285 124.702L60.0851 98.0907L46.286 121.164L46.6766 97.1205L61.5147 75.9345L46.7379 93.3396L46.9819 49.2521L45.4482 107.616L45.5744 105.208L30.4885 82.117L45.3325 109.83L43.9268 136.683L43.885 135.97L26.4937 111.67L43.8322 138.488L43.6564 141.846L43.6249 141.897L43.6394 142.173L40.0733 210.3H44.8379L45.4096 175.111L62.7056 148.359L45.4526 172.466Z" fill="#3F3D56"/>
<path d="M301.894 132.172C301.894 167.697 280.775 180.101 254.723 180.101C228.671 180.101 207.552 167.697 207.552 132.172C207.552 96.6469 254.723 51.4533 254.723 51.4533C254.723 51.4533 301.894 96.6469 301.894 132.172Z" fill="#6C63FF"/>
<path d="M253.005 174.667L253.488 144.936L273.593 108.154L253.563 140.272L253.78 126.903L267.637 100.292L253.838 123.366L254.229 99.3218L269.067 78.1358L254.29 95.5409L254.534 51.4534L253 109.817L253.126 107.41L238.04 84.3184L252.885 112.032L251.479 138.884L251.437 138.172L234.046 113.871L251.384 140.689L251.208 144.048L251.177 144.098L251.191 144.374L247.625 212.502H252.39L252.962 177.312L270.258 150.56L253.005 174.667Z" fill="#3F3D56"/>
<path d="M203.778 102.001C203.778 140.842 180.688 154.403 152.205 154.403C123.722 154.403 100.631 140.842 100.631 102.001C100.631 63.16 152.205 13.7483 152.205 13.7483C152.205 13.7483 203.778 63.16 203.778 102.001Z" fill="#6C63FF"/>
<path d="M150.326 148.462L150.854 115.956L172.836 75.7408L150.937 110.856L151.175 96.2403L166.324 67.1453L151.237 92.3723L151.664 66.0846L167.887 42.9211L151.732 61.9508L151.998 13.7484L150.321 77.5597L150.459 74.9272L133.965 49.6807L150.195 79.9805L148.658 109.34L148.612 108.56L129.598 81.9922L148.555 111.313L148.362 114.985L148.328 115.04L148.344 115.341L144.445 189.828H149.654L150.279 151.354L169.19 122.105L150.326 148.462Z" fill="#3F3D56"/>
<path d="M261.641 215.722C261.641 224.059 207.013 250 139.626 250C72.2387 250 17.6105 224.059 17.6105 215.722C17.6105 207.386 67.836 188.678 135.223 188.678C202.611 188.678 261.641 207.386 261.641 215.722Z" fill="#3F3D56"/>
<path opacity="0.1" d="M261.641 215.722C261.641 224.059 207.013 250 139.626 250C72.2387 250 17.6105 224.059 17.6105 215.722C17.6105 207.386 67.836 188.678 135.223 188.678C202.611 188.678 261.641 207.386 261.641 215.722Z" fill="black"/>
<path d="M261.641 215.722C261.641 224.059 207.013 230.817 139.626 230.817C72.2387 230.817 17.6105 224.059 17.6105 215.722C17.6105 207.386 67.836 188.678 135.223 188.678C202.611 188.678 261.641 207.386 261.641 215.722Z" fill="#3F3D56"/>
<path d="M180.642 173.923C180.642 185.882 188.145 195.559 197.416 195.559Z" fill="#3F3D56"/>
<path d="M197.416 195.559C197.416 183.466 205.789 173.68 216.135 173.68Z" fill="#6C63FF"/>
<path d="M186.72 175.007C186.72 186.367 191.504 195.559 197.416 195.559Z" fill="#6C63FF"/>
<path d="M197.416 195.559C197.416 180.106 207.094 167.602 219.053 167.602Z" fill="#3F3D56"/>
<path d="M193.888 195.712C193.888 195.712 196.266 195.638 196.983 195.128C197.7 194.617 200.643 194.008 200.821 194.827C200.998 195.645 204.396 198.899 201.71 198.92C199.024 198.942 195.469 198.502 194.754 198.066C194.038 197.63 193.888 195.712 193.888 195.712Z" fill="#A8A8A8"/>
<path opacity="0.2" d="M201.758 198.635C199.072 198.657 195.517 198.217 194.802 197.781C194.257 197.449 194.04 196.258 193.967 195.709C193.917 195.711 193.888 195.712 193.888 195.712C193.888 195.712 194.038 197.63 194.754 198.066C195.469 198.502 199.024 198.942 201.71 198.92C202.485 198.914 202.753 198.638 202.738 198.23C202.63 198.477 202.335 198.631 201.758 198.635Z" fill="black"/>
<path opacity="0.1" d="M141.198 220.754C164.124 220.754 182.709 217.797 182.709 214.15C182.709 210.503 164.124 207.546 141.198 207.546C118.273 207.546 99.6879 210.503 99.6879 214.15C99.6879 217.797 118.273 220.754 141.198 220.754Z" fill="black"/>
<path d="M159.438 199.37H155.35V208.804H159.438V199.37Z" fill="#FFB9B9"/>
<path d="M159.752 72.0084H144.029V100.311H159.752V72.0084Z" fill="#FF6584"/>
<path d="M171.3 125.573L171.844 129.927L157.513 134.28L155.699 126.299L171.3 125.573Z" fill="#FFB9B9"/>
<path d="M150.075 83.6684C150.075 83.6684 149.713 86.9337 148.987 86.9337C148.261 86.9337 145.722 88.2036 145.722 88.2036L144.996 91.6503L150.075 94.7342L158.42 93.8271L160.778 90.199L158.42 87.8408C158.42 87.8408 156.425 83.487 157.15 82.58C157.876 81.673 150.075 83.6684 150.075 83.6684Z" fill="#FFB9B9"/>
<path opacity="0.1" d="M150.075 83.6684C150.075 83.6684 149.713 86.9337 148.987 86.9337C148.261 86.9337 145.722 88.2036 145.722 88.2036L144.996 91.6503L150.075 94.7342L158.42 93.8271L160.778 90.199L158.42 87.8408C158.42 87.8408 156.425 83.487 157.15 82.58C157.876 81.673 150.075 83.6684 150.075 83.6684Z" fill="black"/>
<path d="M127.4 196.684C127.4 196.684 125.767 207.568 123.772 208.294C121.776 209.019 131.391 210.289 131.391 210.289L132.116 206.298C132.116 206.298 132.298 199.042 133.023 197.953C133.749 196.865 127.4 196.684 127.4 196.684Z" fill="#FFB9B9"/>
<path d="M145.903 133.373C145.903 133.373 172.207 128.657 172.388 127.75C172.57 126.843 177.83 134.643 174.565 149.881C171.3 165.119 163.137 201.037 163.137 201.037C163.137 201.037 154.792 203.577 154.973 201.582C155.155 199.586 157.876 164.938 157.876 164.938L156.062 150.244L152.978 152.058L140.098 177.455L133.568 199.405C133.568 199.405 125.223 200.856 126.493 197.772C127.763 194.688 131.935 170.743 131.935 170.743L143.363 137.001C143.363 137.001 143.001 133.373 145.903 133.373Z" fill="#2F2E41"/>
<path d="M152.524 86.1174C156.732 86.1174 160.143 82.7062 160.143 78.4984C160.143 74.2905 156.732 70.8794 152.524 70.8794C148.317 70.8794 144.905 74.2905 144.905 78.4984C144.905 82.7062 148.317 86.1174 152.524 86.1174Z" fill="#FFB9B9"/>
<path d="M160.415 88.0222C160.415 88.0222 156.787 91.4688 148.261 90.5618C139.735 89.6548 150.62 109.972 150.62 109.972L154.066 130.471C154.066 130.471 169.304 128.657 169.849 125.21C170.393 121.763 160.415 88.0222 160.415 88.0222Z" fill="#F2F2F2"/>
<path d="M156.787 107.432C156.787 107.432 152.434 105.256 150.801 99.2693C149.168 93.2829 147.717 87.1151 146.81 87.2965C146.044 87.4497 138.942 90.1893 136.64 92.0213C136.215 92.359 135.954 92.6659 135.926 92.9201C135.744 94.5527 142.456 110.879 142.456 110.879C142.456 110.879 147.717 122.67 145.54 126.48C143.363 130.289 143.182 135.187 147.173 134.825C151.164 134.462 164.406 133.736 162.592 123.577C162.592 123.577 166.039 130.652 175.654 125.573C175.654 125.573 181.459 124.666 181.277 122.67C181.096 120.675 172.025 103.442 172.025 103.442C172.025 103.442 170.574 95.8226 173.295 92.9201L167.128 85.6639C167.128 85.6639 165.676 83.487 164.225 84.5755C162.774 85.6639 159.509 87.4779 158.964 87.6593C158.42 87.8407 158.062 87.0073 158.062 87.0073C156.805 89.6362 156.301 92.5618 156.606 95.4597C157.15 100.176 156.787 107.432 156.787 107.432Z" fill="#2F2E41"/>
<path d="M127.944 206.117C127.944 206.117 127.539 204.847 125.202 206.117C125.202 206.117 125.949 202.126 123.409 202.126C120.869 202.126 119.962 206.842 119.962 206.842C119.962 206.842 119.237 209.926 114.339 211.196C109.441 212.466 113.25 216.82 116.697 216.82C120.144 216.82 124.679 214.098 124.679 214.098C124.679 214.098 134.112 214.28 134.293 212.466C134.475 210.652 133.386 205.21 132.661 205.21C131.935 205.21 130.484 207.749 130.484 207.749L127.944 206.117Z" fill="#2F2E41"/>
<path d="M158.783 202.924C158.783 202.924 156.243 200.203 154.792 204.738C153.341 209.273 152.252 211.087 153.159 211.813C154.066 212.539 154.792 212.176 154.429 213.627C154.066 215.078 155.518 218.162 158.783 218.162C162.048 218.162 162.955 215.804 162.774 214.171C162.592 212.539 161.141 210.543 161.141 210.543L159.69 205.464L158.783 202.924Z" fill="#2F2E41"/>
<path d="M173.114 75.3238L163.499 78.5891C163.499 78.5891 154.792 83.6684 158.602 84.7569C162.411 85.8453 165.676 81.4916 165.676 81.4916L174.021 79.3147L173.114 75.3238Z" fill="#FFB9B9"/>
<path d="M147.34 66.7167C146.199 67.4987 145.29 68.5697 144.426 69.6505C142.671 71.8465 140.951 74.4692 141.383 77.2472C141.547 78.3023 142.016 79.2843 142.28 80.3189C142.637 81.7153 142.613 83.1767 142.587 84.6175C142.609 85.2298 142.533 85.8415 142.363 86.4301C142.108 87.0035 141.81 87.556 141.469 88.0824C140.595 89.7098 140.574 91.6433 140.573 93.4903C140.531 94.1121 140.616 94.736 140.822 95.3242C141.06 95.8796 141.504 96.315 141.873 96.7943C142.483 97.604 142.89 98.5482 143.06 99.5478C143.23 100.547 143.158 101.573 142.85 102.539C143.323 102.541 143.788 102.408 144.188 102.156C144.589 101.903 144.909 101.542 145.111 101.114C145.174 101.574 145.134 102.042 144.995 102.486C144.856 102.929 144.62 103.336 144.305 103.677C146.382 103.06 148.608 102.02 149.366 99.9903C149.588 99.3007 149.713 98.5835 149.738 97.8594C150.141 92.7688 150.372 87.4879 148.546 82.7189C147.962 81.1931 147.167 79.7162 146.971 78.0943C146.775 76.4723 147.374 74.5979 148.864 73.9281C148.899 74.3433 149.083 74.7318 149.383 75.0212C149.715 75.2674 150.328 75.113 150.334 74.6999L151.054 75.7021C151.33 75.5665 151.566 75.3609 151.737 75.1058L152.231 75.7099L153.28 74.9464L154.192 75.9292C154.542 75.7294 154.822 75.425 154.992 75.0585C155.188 75.3514 155.43 75.6733 155.781 75.705C156.545 75.7741 156.703 74.5614 157.37 74.1831C157.617 74.0741 157.895 74.0572 158.153 74.1354C158.411 74.2136 158.632 74.3818 158.777 74.6093C159.052 75.0776 159.152 75.6283 159.06 76.1636C158.783 78.6581 156.655 80.9342 157.286 83.3632C157.641 84.7291 158.836 85.8243 158.926 87.2327C158.998 88.3582 158.337 89.4229 158.347 90.5507C158.359 91.8723 159.272 92.9949 160.163 93.9707C161.75 95.7075 163.42 97.3628 165.173 98.9368L164.631 97.9892C164.884 97.9693 165.138 98.0043 165.376 98.0918C165.614 98.1794 165.831 98.3174 166.011 98.4964C166.166 97.9518 165.908 97.3843 165.665 96.8728C164.206 93.8102 163.029 90.5493 162.853 87.1617C162.608 82.453 164.301 77.6709 163.228 73.0796C162.611 70.5089 161.173 68.2095 159.131 66.5298C158.139 65.7129 157.386 65.2236 156.101 65.1336C154.665 65.0087 153.22 65.0201 151.785 65.1674C150.2 65.3182 148.676 65.8497 147.34 66.7167Z" fill="#FF6584"/>
<path d="M165.676 85.8453C165.676 85.8453 167.672 86.0267 168.579 85.8453C169.486 85.6639 170.756 84.7569 170.756 84.7569L177.649 79.6775L171.663 80.5846C171.663 80.5846 172.751 72.2399 172.388 72.0585C172.025 71.8771 189.984 68.4304 189.622 74.054C189.259 79.6775 179.1 90.7432 173.295 92.9201L169.486 93.4643L165.676 85.8453Z" fill="#2F2E41"/>
<path d="M185.225 150.158H99.6879V170.284H185.225V150.158Z" fill="white"/>
<path d="M174.061 154.718H110.537V165.41H174.061V154.718Z" fill="#3F3D56"/>
<path d="M125.299 159.829C125.274 159.555 124.061 159.433 122.397 159.502C123.361 158.144 123.92 157.061 123.704 156.89C123.5 156.729 122.666 157.425 121.651 158.555C121.555 157.039 121.332 155.976 121.072 155.976C120.789 155.976 120.549 157.241 120.471 158.979C119.058 157.963 117.917 157.367 117.741 157.589C117.573 157.801 118.337 158.698 119.551 159.77C117.949 160.008 116.82 160.343 116.845 160.613C116.87 160.887 118.083 161.009 119.747 160.94C118.783 162.298 118.224 163.381 118.44 163.552C118.644 163.713 119.478 163.017 120.493 161.887C120.589 163.403 120.812 164.466 121.072 164.466C121.355 164.466 121.595 163.201 121.673 161.463C123.086 162.479 124.227 163.075 124.403 162.853C124.571 162.641 123.807 161.744 122.593 160.672C124.195 160.434 125.324 160.098 125.299 159.829Z" fill="white"/>
<path d="M135.991 159.829C135.966 159.555 134.753 159.433 133.089 159.502C134.054 158.144 134.612 157.061 134.396 156.89C134.192 156.729 133.358 157.425 132.343 158.555C132.247 157.039 132.024 155.976 131.764 155.976C131.481 155.976 131.241 157.241 131.163 158.979C129.75 157.963 128.609 157.367 128.433 157.589C128.265 157.801 129.029 158.698 130.243 159.77C128.641 160.008 127.512 160.343 127.537 160.613C127.562 160.887 128.775 161.009 130.439 160.94C129.475 162.298 128.916 163.381 129.132 163.552C129.336 163.713 130.17 163.017 131.186 161.887C131.281 163.403 131.504 164.466 131.764 164.466C132.047 164.466 132.287 163.201 132.366 161.463C133.779 162.479 134.92 163.075 135.095 162.853C135.263 162.641 134.499 161.744 133.285 160.672C134.887 160.434 136.016 160.098 135.991 159.829Z" fill="white"/>
<path d="M146.683 159.829C146.658 159.555 145.445 159.433 143.782 159.502C144.746 158.144 145.304 157.061 145.088 156.89C144.884 156.729 144.05 157.425 143.035 158.555C142.939 157.039 142.716 155.976 142.456 155.976C142.173 155.976 141.933 157.241 141.855 158.979C140.442 157.963 139.301 157.367 139.125 157.589C138.957 157.801 139.721 158.698 140.935 159.77C139.333 160.008 138.204 160.343 138.229 160.613C138.254 160.887 139.467 161.009 141.131 160.94C140.167 162.298 139.608 163.381 139.824 163.552C140.028 163.713 140.862 163.017 141.878 161.887C141.974 163.403 142.196 164.466 142.456 164.466C142.739 164.466 142.979 163.201 143.058 161.463C144.471 162.479 145.612 163.075 145.787 162.853C145.955 162.641 145.191 161.744 143.977 160.672C145.58 160.434 146.708 160.098 146.683 159.829Z" fill="white"/>
<path d="M157.376 159.829C157.35 159.555 156.137 159.433 154.474 159.502C155.438 158.144 155.996 157.061 155.78 156.89C155.576 156.729 154.742 157.425 153.727 158.555C153.631 157.039 153.408 155.976 153.148 155.976C152.865 155.976 152.625 157.241 152.547 158.979C151.134 157.963 149.993 157.367 149.817 157.589C149.649 157.801 150.413 158.698 151.627 159.77C150.025 160.008 148.896 160.343 148.921 160.613C148.946 160.887 150.159 161.009 151.823 160.94C150.859 162.298 150.3 163.381 150.516 163.552C150.72 163.713 151.554 163.017 152.57 161.887C152.666 163.403 152.889 164.466 153.148 164.466C153.432 164.466 153.671 163.201 153.75 161.463C155.163 162.479 156.304 163.075 156.479 162.853C156.647 162.641 155.883 161.744 154.669 160.672C156.272 160.434 157.4 160.098 157.376 159.829Z" fill="white"/>
<path d="M168.068 159.829C168.042 159.555 166.83 159.433 165.166 159.502C166.13 158.144 166.688 157.061 166.472 156.89C166.268 156.729 165.434 157.425 164.419 158.555C164.323 157.039 164.1 155.976 163.84 155.976C163.557 155.976 163.318 157.241 163.239 158.979C161.826 157.963 160.685 157.367 160.509 157.589C160.341 157.801 161.105 158.698 162.319 159.77C160.717 160.008 159.588 160.343 159.613 160.613C159.638 160.887 160.851 161.009 162.515 160.94C161.551 162.298 160.992 163.381 161.208 163.552C161.412 163.713 162.246 163.017 163.262 161.887C163.358 163.403 163.581 164.466 163.84 164.466C164.124 164.466 164.363 163.201 164.442 161.463C165.855 162.479 166.996 163.075 167.171 162.853C167.339 162.641 166.575 161.744 165.361 160.672C166.964 160.434 168.093 160.098 168.068 159.829Z" fill="white"/>
<path d="M134.838 141.537C134.838 141.537 133.93 153.509 138.284 154.053C142.638 154.598 138.647 140.448 138.647 140.448L134.838 141.537Z" fill="#FFB9B9"/>
<path d="M137.196 92.5573L135.926 92.9201C135.926 92.9201 130.665 135.006 134.112 143.169C134.112 143.169 137.74 141.174 139.554 141.537L142.456 107.251L137.196 92.5573Z" fill="#2F2E41"/>
</g>
</svg>
