<svg width="226" height="202" viewBox="0 0 226 202" fill="none" xmlns="http://www.w3.org/2000/svg">
<path d="M113.447 2.82727L42.5222 46.4933C42.5222 46.4933 42.5222 136.554 113.447 185.679C184.372 136.554 184.372 46.4933 184.372 46.4933L113.447 2.82727Z" fill="#3F3D56"/>
<path opacity="0.04" d="M113.87 2.82727L112.658 3.5737V184.827C113.061 185.112 113.463 185.396 113.87 185.679C184.795 136.554 184.795 46.4932 184.795 46.4932L113.87 2.82727Z" fill="#9B79FF"/>
<g opacity="0.7">
<path opacity="0.7" d="M96.2764 91.3118L109.647 103.574L126.222 79.652L132.907 85.2256L109.647 114.721L90.7053 93.5413L96.2764 91.3118Z" fill="url(#paint0_linear)"/>
</g>
<path d="M99.4322 92.0485L110.278 101.995L125.643 79.3889L131.066 83.9102L110.278 111.038L94.913 93.857L99.4322 92.0485Z" fill="#3AD29F"/>
<path opacity="0.5" d="M43.467 12.6171C43.2496 12.5223 43.0746 12.3509 42.9753 12.1355C42.876 11.92 42.8594 11.6756 42.9285 11.4487C42.9397 11.4139 42.9468 11.3779 42.9495 11.3414C42.9559 11.2375 42.9286 11.1342 42.8717 11.047C42.8147 10.9598 42.7313 10.8932 42.6336 10.8572C42.5359 10.8211 42.4292 10.8175 42.3293 10.8469C42.2294 10.8762 42.1417 10.937 42.079 11.0201C42.0574 11.0497 42.0394 11.0816 42.0254 11.1153C41.9307 11.3328 41.7594 11.5079 41.544 11.6073C41.3287 11.7066 41.0843 11.7232 40.8575 11.654C40.8227 11.6428 40.7867 11.6358 40.7503 11.633C40.6464 11.6267 40.5432 11.654 40.456 11.7109C40.3688 11.7679 40.3023 11.8514 40.2663 11.9491C40.2302 12.0468 40.2266 12.1536 40.256 12.2535C40.2853 12.3534 40.346 12.4413 40.4292 12.504C40.4587 12.5255 40.4906 12.5435 40.5243 12.5576C40.7417 12.6523 40.9167 12.8237 41.016 13.0392C41.1153 13.2546 41.1319 13.4991 41.0628 13.726C41.0516 13.7608 41.0445 13.7968 41.0417 13.8332C41.0354 13.9372 41.0627 14.0404 41.1196 14.1277C41.1765 14.2149 41.26 14.2815 41.3577 14.3175C41.4554 14.3535 41.5621 14.3572 41.662 14.3278C41.7619 14.2985 41.8496 14.2377 41.9123 14.1545C41.9339 14.125 41.9519 14.0931 41.9659 14.0593C42.0606 13.8418 42.2319 13.6667 42.4473 13.5674C42.6626 13.4681 42.907 13.4514 43.1338 13.5206C43.1686 13.5318 43.2045 13.5389 43.241 13.5417C43.3449 13.548 43.4481 13.5207 43.5353 13.4637C43.6225 13.4068 43.689 13.3233 43.725 13.2256C43.7611 13.1278 43.7647 13.0211 43.7353 12.9212C43.706 12.8212 43.6452 12.7334 43.5621 12.6707C43.5326 12.6491 43.5007 12.6311 43.467 12.6171Z" fill="#4D8AF0"/>
<path opacity="0.5" d="M5.07268 98.1229C4.85527 98.0282 4.68027 97.8568 4.58098 97.6413C4.4817 97.4259 4.46506 97.1814 4.53425 96.9545C4.54544 96.9197 4.55249 96.8837 4.55526 96.8473C4.56158 96.7433 4.53427 96.6401 4.47736 96.5529C4.42046 96.4656 4.33698 96.3991 4.2393 96.363C4.14163 96.327 4.03494 96.3234 3.93505 96.3527C3.83516 96.3821 3.74737 96.4428 3.6847 96.526C3.66314 96.5555 3.64515 96.5875 3.63108 96.6212C3.53639 96.8387 3.36506 97.0138 3.14971 97.1131C2.93436 97.2125 2.69002 97.2291 2.4632 97.1599C2.42843 97.1487 2.39246 97.1416 2.35603 97.1389C2.25211 97.1325 2.14892 97.1599 2.06174 97.2168C1.97455 97.2737 1.90802 97.3572 1.87199 97.455C1.83595 97.5527 1.83234 97.6594 1.86168 97.7594C1.89102 97.8593 1.95176 97.9471 2.03489 98.0098C2.06439 98.0314 2.09632 98.0494 2.13004 98.0635C2.34745 98.1582 2.52245 98.3296 2.62174 98.5451C2.72102 98.7605 2.73765 99.005 2.66847 99.2319C2.65727 99.2667 2.65022 99.3027 2.64746 99.3391C2.64113 99.4431 2.66845 99.5463 2.72535 99.6335C2.78226 99.7208 2.86573 99.7873 2.96341 99.8234C3.06109 99.8594 3.16778 99.863 3.26767 99.8337C3.36756 99.8043 3.45535 99.7436 3.51802 99.6604C3.53958 99.6309 3.55757 99.5989 3.57164 99.5652C3.66633 99.3477 3.83765 99.1726 4.053 99.0733C4.26835 98.9739 4.51269 98.9573 4.73951 99.0265C4.77429 99.0377 4.81026 99.0448 4.84668 99.0475C4.9506 99.0539 5.0538 99.0265 5.14098 98.9696C5.22816 98.9127 5.29469 98.8292 5.33073 98.7314C5.36676 98.6337 5.37037 98.527 5.34103 98.427C5.31169 98.3271 5.25096 98.2393 5.16782 98.1766C5.13833 98.155 5.10639 98.137 5.07268 98.1229Z" fill="#4D8AF0"/>
<path opacity="0.5" d="M196.81 68.4047C197.681 68.4047 198.388 67.698 198.388 66.8261C198.388 65.9543 197.681 65.2476 196.81 65.2476C195.938 65.2476 195.232 65.9543 195.232 66.8261C195.232 67.698 195.938 68.4047 196.81 68.4047Z" fill="#F55F44"/>
<path opacity="0.5" d="M31.9249 181.272C32.7963 181.272 33.5027 180.566 33.5027 179.694C33.5027 178.822 32.7963 178.115 31.9249 178.115C31.0535 178.115 30.347 178.822 30.347 179.694C30.347 180.566 31.0535 181.272 31.9249 181.272Z" fill="#F55F44"/>
<path opacity="0.5" d="M223.633 129.18C224.505 129.18 225.211 128.473 225.211 127.601C225.211 126.729 224.505 126.022 223.633 126.022C222.762 126.022 222.055 126.729 222.055 127.601C222.055 128.473 222.762 129.18 223.633 129.18Z" fill="#F55F44"/>
<path opacity="0.5" d="M185.21 20.2468C184.993 20.1521 184.818 19.9807 184.718 19.7652C184.619 19.5498 184.602 19.3053 184.672 19.0784C184.683 19.0436 184.69 19.0076 184.693 18.9712C184.699 18.8672 184.672 18.764 184.615 18.6768C184.558 18.5895 184.474 18.523 184.377 18.4869C184.279 18.4509 184.172 18.4473 184.072 18.4766C183.973 18.506 183.885 18.5667 183.822 18.6499C183.801 18.6794 183.783 18.7114 183.769 18.7451C183.674 18.9626 183.503 19.1377 183.287 19.237C183.072 19.3364 182.827 19.353 182.601 19.2838C182.566 19.2726 182.53 19.2655 182.493 19.2628C182.39 19.2564 182.286 19.2838 182.199 19.3407C182.112 19.3976 182.045 19.4811 182.009 19.5789C181.973 19.6766 181.97 19.7833 181.999 19.8833C182.028 19.9832 182.089 20.071 182.172 20.1337C182.202 20.1553 182.234 20.1733 182.267 20.1874C182.485 20.2821 182.66 20.4535 182.759 20.6689C182.858 20.8844 182.875 21.1288 182.806 21.3558C182.795 21.3906 182.788 21.4266 182.785 21.463C182.779 21.567 182.806 21.6702 182.863 21.7574C182.92 21.8447 183.003 21.9112 183.101 21.9473C183.199 21.9833 183.305 21.9869 183.405 21.9576C183.505 21.9282 183.593 21.8675 183.655 21.7843C183.677 21.7548 183.695 21.7228 183.709 21.6891C183.804 21.4716 183.975 21.2965 184.19 21.1972C184.406 21.0978 184.65 21.0812 184.877 21.1504C184.912 21.1616 184.948 21.1687 184.984 21.1714C185.088 21.1778 185.191 21.1504 185.278 21.0935C185.366 21.0366 185.432 20.9531 185.468 20.8553C185.504 20.7576 185.508 20.6509 185.478 20.5509C185.449 20.451 185.388 20.3632 185.305 20.3005C185.276 20.2789 185.244 20.2609 185.21 20.2468Z" fill="#4D8AF0"/>
<path opacity="0.5" d="M211.508 185.47C211.29 185.376 211.115 185.204 211.016 184.989C210.917 184.773 210.9 184.529 210.969 184.302C210.98 184.267 210.987 184.231 210.99 184.195C210.997 184.091 210.969 183.988 210.912 183.9C210.855 183.813 210.772 183.747 210.674 183.711C210.577 183.674 210.47 183.671 210.37 183.7C210.27 183.73 210.182 183.79 210.12 183.873C210.098 183.903 210.08 183.935 210.066 183.969C209.971 184.186 209.8 184.361 209.585 184.461C209.369 184.56 209.125 184.577 208.898 184.507C208.863 184.496 208.827 184.489 208.791 184.486C208.687 184.48 208.584 184.507 208.497 184.564C208.409 184.621 208.343 184.705 208.307 184.802C208.271 184.9 208.267 185.007 208.297 185.107C208.326 185.207 208.387 185.295 208.47 185.357C208.499 185.379 208.531 185.397 208.565 185.411C208.782 185.506 208.957 185.677 209.057 185.893C209.156 186.108 209.173 186.352 209.103 186.579C209.092 186.614 209.085 186.65 209.082 186.687C209.076 186.791 209.103 186.894 209.16 186.981C209.217 187.068 209.301 187.135 209.398 187.171C209.496 187.207 209.603 187.211 209.703 187.181C209.802 187.152 209.89 187.091 209.953 187.008C209.975 186.978 209.993 186.946 210.007 186.913C210.101 186.695 210.273 186.52 210.488 186.421C210.703 186.321 210.948 186.305 211.174 186.374C211.209 186.385 211.245 186.392 211.282 186.395C211.386 186.401 211.489 186.374 211.576 186.317C211.663 186.26 211.73 186.177 211.766 186.079C211.802 185.981 211.805 185.874 211.776 185.775C211.747 185.675 211.686 185.587 211.603 185.524C211.573 185.502 211.541 185.484 211.508 185.47Z" fill="#4D8AF0"/>
<path opacity="0.5" d="M3.23186 48.1349C3.01445 48.0402 2.83945 47.8688 2.74016 47.6533C2.64088 47.4379 2.62424 47.1934 2.69343 46.9665C2.70462 46.9317 2.71167 46.8957 2.71444 46.8593C2.72077 46.7553 2.69345 46.6521 2.63654 46.5648C2.57964 46.4776 2.49616 46.411 2.39849 46.375C2.30081 46.3389 2.19412 46.3353 2.09423 46.3647C1.99434 46.394 1.90655 46.4548 1.84388 46.538C1.82232 46.5675 1.80433 46.5994 1.79026 46.6332C1.69557 46.8507 1.52424 47.0258 1.30889 47.1251C1.09354 47.2244 0.849204 47.2411 0.622385 47.1718C0.587611 47.1606 0.551641 47.1536 0.515214 47.1508C0.411295 47.1445 0.3081 47.1718 0.220917 47.2287C0.133734 47.2857 0.0671982 47.3692 0.0311658 47.4669C-0.00486656 47.5646 -0.00848004 47.6714 0.0208613 47.7713C0.0502026 47.8713 0.110939 47.9591 0.194072 48.0218C0.223567 48.0433 0.255503 48.0614 0.289217 48.0754C0.506628 48.1702 0.681632 48.3416 0.780917 48.557C0.880202 48.7725 0.896833 49.0169 0.827649 49.2438C0.816454 49.2786 0.809403 49.3146 0.806639 49.3511C0.800312 49.455 0.827625 49.5583 0.884533 49.6455C0.94144 49.7327 1.02491 49.7993 1.12259 49.8353C1.22027 49.8714 1.32696 49.875 1.42685 49.8456C1.52674 49.8163 1.61453 49.7555 1.6772 49.6723C1.69876 49.6428 1.71676 49.6109 1.73083 49.5772C1.82551 49.3596 1.99683 49.1846 2.21218 49.0852C2.42753 48.9859 2.67187 48.9693 2.89869 49.0385C2.93347 49.0497 2.96944 49.0567 3.00586 49.0595C3.10978 49.0658 3.21298 49.0385 3.30016 48.9816C3.38734 48.9246 3.45388 48.8411 3.48991 48.7434C3.52594 48.6457 3.52955 48.5389 3.50021 48.439C3.47087 48.3391 3.41014 48.2512 3.32701 48.1885C3.29751 48.167 3.26557 48.149 3.23186 48.1349Z" fill="#4D8AF0"/>
<path opacity="0.5" d="M20.88 76.2975C21.7514 76.2975 22.4578 75.5908 22.4578 74.719C22.4578 73.8471 21.7514 73.1404 20.88 73.1404C20.0085 73.1404 19.3021 73.8471 19.3021 74.719C19.3021 75.5908 20.0085 76.2975 20.88 76.2975Z" fill="#47E6B1"/>
<path opacity="0.5" d="M224.422 88.9261C225.294 88.9261 226 88.2193 226 87.3475C226 86.4757 225.294 85.7689 224.422 85.7689C223.551 85.7689 222.844 86.4757 222.844 87.3475C222.844 88.2193 223.551 88.9261 224.422 88.9261Z" fill="#47E6B1"/>
<g opacity="0.5">
<path opacity="0.5" d="M154.208 0H153.419V4.47261H154.208V0Z" fill="#47E6B1"/>
<path opacity="0.5" d="M156.049 2.63096V1.84167L151.578 1.84167V2.63096H156.049Z" fill="#47E6B1"/>
</g>
<g opacity="0.5">
<path opacity="0.5" d="M157.101 175.221H156.312V179.694H157.101V175.221Z" fill="#47E6B1"/>
<path opacity="0.5" d="M158.942 177.852V177.063H154.471V177.852H158.942Z" fill="#47E6B1"/>
</g>
<g opacity="0.5">
<path opacity="0.5" d="M7.73131 184.693H6.94238V189.165H7.73131V184.693Z" fill="#47E6B1"/>
<path opacity="0.5" d="M9.57214 187.324V186.534H5.10158V187.324H9.57214Z" fill="#47E6B1"/>
</g>
<g opacity="0.5">
<path opacity="0.5" d="M187.343 104.186H186.554V108.658H187.343V104.186Z" fill="#47E6B1"/>
<path opacity="0.5" d="M189.184 106.816V106.027H184.713V106.816H189.184Z" fill="#47E6B1"/>
</g>
<path opacity="0.5" d="M209.224 32.3654L210.918 33.9192L213.319 30.3875L214.166 31.0939L210.918 35.3321L208.518 32.648L209.224 32.3654Z" fill="#47E6B1"/>
<path d="M160.853 62.9512L155.009 63.1779L155.3 70.6961L161.145 70.4693L160.853 62.9512Z" fill="#9B79FF"/>
<path d="M134.488 89.2814C134.488 89.2814 126.393 85.4124 126.523 88.7538C126.653 92.0952 134.682 94.2935 134.682 94.2935L134.488 89.2814Z" fill="#FFB9B9"/>
<path d="M138.928 117.554C138.928 117.554 135.11 126.905 133.699 133.652C132.288 140.4 130.139 149.686 132.903 156.271C135.667 162.857 143.525 182.212 143.606 184.301C143.687 186.389 142.933 188.51 144.603 188.445C146.273 188.38 155.36 185.518 155.729 184.249C156.098 182.979 152.629 179.768 152.629 179.768L144.062 152.91L153 135.413L159.447 161.516L160.71 194.095C160.71 194.095 166.908 192.181 167.807 193.819C167.807 193.819 170.584 189.947 170.937 188.26C171.289 186.573 169.625 154.428 169.625 154.428C169.625 154.428 175.314 117.815 170.722 117.993C166.129 118.172 148.142 107.157 138.928 117.554Z" fill="#9B79FF"/>
<path d="M144.538 186.774C144.538 186.774 140.302 196.141 139.901 196.575C139.499 197.009 136.739 201.299 138.826 201.218C140.914 201.137 145.843 198.855 149.47 195.367C153.098 191.88 157.881 185.838 157.448 185.437C157.014 185.035 154.043 183.896 154.043 183.896L144.538 186.774Z" fill="#575A89"/>
<path d="M161.464 191.974C161.464 191.974 161.209 196.167 160.438 197.87C159.668 199.573 159.765 202.079 161.853 201.998C163.94 201.917 169.335 200.871 169.335 200.871C169.335 200.871 169.655 198.349 169.222 197.947C168.788 197.546 166.94 193.016 167.726 191.731C168.513 190.445 161.464 191.974 161.464 191.974Z" fill="#575A89"/>
<path d="M164.552 55.9056C164.552 55.9056 169.002 62.8441 170.737 64.4501C172.472 66.056 167.591 69.5917 167.591 69.5917L158.857 70.7672C158.857 70.7672 158.967 62.8152 158.517 61.996C158.067 61.1769 164.552 55.9056 164.552 55.9056Z" fill="#FFB9B9"/>
<path d="M156.96 64.9846C156.96 64.9846 158.76 68.2612 160.429 68.1964C162.099 68.1316 170.737 64.4501 171.106 63.1809C171.475 61.9117 173.967 72.2725 173.967 72.2725L152.831 109.485L147.676 105.92L150.174 84.0715L152.226 72.2794L156.96 64.9846Z" fill="#9B79FF"/>
<path d="M171.886 98.2881C171.043 100.053 170.516 101.893 170.589 103.776C170.592 103.86 170.595 103.943 170.603 104.027C170.803 107.892 172.226 112.363 172.737 115.615C173.108 117.947 173.002 119.649 171.638 120.049C168.33 121.014 172.12 121.704 159.324 125.965C146.528 130.226 144.294 126.548 144.262 125.713C144.23 124.877 146.074 118.531 145.641 118.13C145.207 117.728 139.573 123.385 137.87 122.614C136.168 121.844 137.676 117.602 137.676 117.602C137.676 117.602 141.511 108.669 141.43 106.581C141.349 104.492 147.239 94.6429 147.239 94.6429L151.245 68.5527C151.245 68.5527 152.785 65.1466 154.857 64.6479C156.928 64.1492 158.646 65.3375 158.646 65.3375L155.18 73.0014L151.524 86.5289L152.135 91.5249C152.135 91.5249 156.388 82.5755 159.181 79.1207C161.973 75.666 167.928 67.4872 167.928 67.4872C167.928 67.4872 169.318 62.7943 168.269 61.3918C167.219 59.9853 172.646 59.7747 174.961 65.5412C176.187 68.5974 178.178 73.1549 179.426 77.3983C180.537 81.1576 181.062 84.6718 179.961 86.6806C178.278 89.7493 174.044 93.7829 171.886 98.2881Z" fill="#575A89"/>
<path opacity="0.1" d="M179.961 86.6806C178.278 89.7493 174.044 93.7829 171.886 98.2881C171.322 96.256 170.634 94.1536 170.634 94.1536C170.634 94.1536 167.996 80.0336 175.799 76.3845C177.092 76.2594 178.385 76.6209 179.426 77.3983C180.537 81.1575 181.062 84.6718 179.961 86.6806Z" fill="black"/>
<path d="M148.986 85.7908L142.371 87.7206L133.187 88.0769L132.242 96.0613L147.336 97.149C147.336 97.149 151.106 86.5451 148.986 85.7908Z" fill="#575A89"/>
<path d="M159.773 112.637C159.773 112.637 150.923 114.106 152.943 116.77C154.963 119.434 162.803 116.633 162.803 116.633L159.773 112.637Z" fill="#FFB9B9"/>
<path opacity="0.1" d="M170.603 104.027C170.803 107.892 172.226 112.363 172.737 115.615C169.918 118.284 167.237 120.638 166.227 120.678C164.139 120.759 160.783 120.471 159.547 120.937C158.311 121.403 157.586 113.483 157.586 113.483C157.586 113.483 158.324 110.945 161.615 109.562C163.836 108.627 168.095 106.09 170.603 104.027Z" fill="black"/>
<path d="M175.702 73.8785C175.702 73.8785 182.767 72.7678 182.385 84.495C182.003 96.2223 183.13 103.708 180.288 105.91C177.447 108.112 168.217 118.091 166.13 118.172C164.042 118.253 160.686 117.964 159.45 118.431C158.214 118.897 157.489 110.977 157.489 110.977C157.489 110.977 158.226 108.439 161.518 107.056C164.809 105.674 172.563 100.772 172.498 99.1009C172.434 97.4302 170.537 91.6475 170.537 91.6475C170.537 91.6475 167.899 77.5276 175.702 73.8785Z" fill="#575A89"/>
<path d="M158.323 66.1797C163.399 66.1797 167.514 62.0626 167.514 56.984C167.514 51.9053 163.399 47.7882 158.323 47.7882C153.246 47.7882 149.131 51.9053 149.131 56.984C149.131 62.0626 153.246 66.1797 158.323 66.1797Z" fill="#FFB9B9"/>
<path d="M152.134 43.8037C151.912 43.9949 151.646 44.1281 151.361 44.1918C151.217 44.2173 151.07 44.1851 150.95 44.1021C150.83 44.0192 150.748 43.8922 150.722 43.7489C150.511 44.1852 150.274 44.6502 149.845 44.8741C149.415 45.098 148.751 44.9102 148.69 44.4298C148.627 44.7946 148.466 45.1352 148.223 45.4148C147.957 45.6689 147.474 45.7331 147.241 45.4477C147.429 46.4757 147.313 47.5329 147.372 48.5763C147.431 49.6198 147.709 50.726 148.497 51.4121C149.646 52.4127 151.374 52.1658 152.886 51.9762C153.115 51.9282 153.352 51.9412 153.574 52.0138C154.14 52.2551 154.114 53.0433 154.122 53.6588C154.168 54.7387 154.595 55.7673 155.328 56.5619C156.06 57.3565 157.05 57.8658 158.122 57.9992C158.722 58.0919 159.334 57.9424 159.824 57.5836C160.254 57.2197 160.473 56.6265 160.965 56.3531C161.765 55.9083 162.735 56.5569 163.32 57.2611C163.905 57.9654 164.481 58.8316 165.387 58.9606C166.585 59.131 167.498 57.9092 167.946 56.7842C168.564 55.2074 168.86 53.5227 168.816 51.8296C168.773 50.1365 168.392 48.4693 167.694 46.9261C165.192 41.4692 156.644 40.6061 152.134 43.8037Z" fill="#2F2E41"/>
<defs>
<linearGradient id="paint0_linear" x1="90.7053" y1="97.1865" x2="132.907" y2="97.1865" gradientUnits="userSpaceOnUse">
<stop stop-color="#808080" stop-opacity="0.25"/>
<stop offset="0.53514" stop-color="#808080" stop-opacity="0.12"/>
<stop offset="1" stop-color="#808080" stop-opacity="0.1"/>
</linearGradient>
</defs>
</svg>
