<svg width="198" height="181" viewBox="0 0 198 181" fill="none" xmlns="http://www.w3.org/2000/svg">
<path d="M170.637 16.6431L4.73059 65.0901L9.12498 80.2065L175.032 31.7594L170.637 16.6431Z" fill="#3F3D56"/>
<path d="M24.5528 134.526L0.0995047 50.4085C-0.0817856 49.7848 -0.0084589 49.1145 0.303343 48.5451C0.615144 47.9756 1.13988 47.5536 1.76213 47.3719L163.647 0.0992057C164.269 -0.0818821 164.938 -0.00814142 165.506 0.30425C166.074 0.616641 166.495 1.14216 166.677 1.76544L188.34 76.2875L187.67 76.4833L166.006 1.96123C165.876 1.51621 165.575 1.14105 165.17 0.917951C164.764 0.694848 164.287 0.641987 163.842 0.770956L1.95743 48.0437C1.51297 48.1735 1.13816 48.4749 0.915442 48.8817C0.692727 49.2884 0.640351 49.7672 0.769837 50.2127L25.2232 134.33L24.5528 134.526Z" fill="#3F3D56"/>
<path d="M152.509 76.6329C152.018 76.6324 151.54 76.4725 151.147 76.1771C150.755 75.8818 150.468 75.4668 150.33 74.9944L146.228 60.8858C146.061 60.3067 146.129 59.6846 146.418 59.1561C146.708 58.6275 147.195 58.2355 147.772 58.0662L161.849 53.9555C162.427 53.7875 163.047 53.8561 163.575 54.1462C164.102 54.4363 164.493 54.9243 164.662 55.503L168.764 69.6116C168.931 70.1907 168.863 70.8127 168.573 71.3413C168.284 71.8699 167.797 72.2619 167.22 72.4312L153.143 76.5419C152.937 76.6022 152.724 76.6328 152.509 76.6329Z" fill="#9B79FF"/>
<path d="M24.174 50.6678C24.1319 50.5228 24.0818 50.3803 24.0239 50.2409C23.6303 49.2835 22.8975 48.5056 21.9665 48.0567C21.0354 47.6079 19.9716 47.5197 18.9796 47.8092C17.9876 48.0986 17.1373 48.7453 16.5921 49.6249C16.047 50.5046 15.8454 51.5551 16.0261 52.5747C16.0515 52.7234 16.0853 52.8706 16.1273 53.0155C16.3822 53.8877 16.9122 54.6535 17.6378 55.1985C18.3634 55.7435 19.2456 56.0382 20.1524 56.0386C20.5483 56.0394 20.9422 55.9829 21.3219 55.8706C22.3877 55.5585 23.2865 54.8355 23.8211 53.8601C24.3558 52.8848 24.4827 51.7368 24.174 50.6678ZM21.1264 55.1988C20.2376 55.4574 19.2827 55.3521 18.4713 54.9061C17.6598 54.4601 17.0579 53.7097 16.7976 52.8196C16.7567 52.6746 16.724 52.5274 16.6997 52.3787C16.5688 51.5387 16.7476 50.6796 17.2028 49.9621C17.6579 49.2447 18.3583 48.7179 19.1728 48.4804C19.9873 48.2428 20.8603 48.3108 21.6285 48.6715C22.3967 49.0322 23.0074 49.661 23.3466 50.4404C23.4098 50.5772 23.4624 50.7187 23.5038 50.8637C23.7614 51.7545 23.6557 52.7114 23.21 53.5243C22.7642 54.3371 22.0149 54.9394 21.1264 55.1988V55.1988Z" fill="#9B79FF"/>
<path d="M13.8991 53.6664C13.6757 52.8974 13.6972 52.0777 13.9605 51.3216C14.2239 50.5654 14.716 49.9104 15.3683 49.4477C14.7571 49.4179 14.1477 49.5348 13.5908 49.7888C13.0339 50.0428 12.5456 50.4265 12.1666 50.908C11.7876 51.3894 11.5289 51.9546 11.412 52.5566C11.2951 53.1585 11.3234 53.7798 11.4946 54.3685C11.6657 54.9573 11.9748 55.4966 12.396 55.9414C12.8172 56.3862 13.3383 56.7237 13.916 56.9257C14.4937 57.1278 15.1112 57.1886 15.7171 57.1031C16.323 57.0175 16.8997 56.7881 17.3992 56.4339C16.601 56.3949 15.8349 56.1073 15.2075 55.6112C14.5802 55.1151 14.1228 54.4353 13.8991 53.6664Z" fill="#9B79FF"/>
<path d="M122.422 71.0068C122.347 70.739 122.221 70.4886 122.05 70.2698C121.879 70.0509 121.667 69.8681 121.425 69.7316C121.184 69.5951 120.918 69.5077 120.642 69.4743C120.367 69.441 120.088 69.4624 119.821 69.5372L96.6439 76.0346L94.1479 76.7344H109.823L112.319 76.0346L120.959 73.6134C121.497 73.4618 121.954 73.1021 122.228 72.6134C122.502 72.1247 122.572 71.5468 122.422 71.0068Z" fill="#CCCCCC"/>
<path d="M106.024 66.1539C105.873 65.6138 105.514 65.156 105.027 64.8811C104.539 64.6062 103.962 64.5367 103.423 64.6878L68.6461 74.4357C68.1601 74.5737 67.7394 74.8811 67.4596 75.3026C67.1799 75.7241 67.0596 76.2319 67.1205 76.7345H76.1238L78.6233 76.0347L104.562 68.764C105.101 68.6119 105.557 68.2516 105.832 67.7622C106.106 67.2728 106.175 66.6944 106.024 66.1539Z" fill="#CCCCCC"/>
<path d="M195.556 76.0338H26.9401C26.2922 76.0345 25.6711 76.2928 25.2129 76.752C24.7548 77.2111 24.4971 77.8337 24.4964 78.483V178.551C24.4971 179.2 24.7548 179.823 25.2129 180.282C25.671 180.741 26.2922 180.999 26.9401 181H195.556C196.204 180.999 196.825 180.741 197.283 180.282C197.742 179.823 197.999 179.2 198 178.551V78.483C197.999 77.8337 197.742 77.2112 197.283 76.752C196.825 76.2929 196.204 76.0346 195.556 76.0338ZM197.302 178.551C197.302 179.015 197.118 179.46 196.79 179.788C196.463 180.116 196.019 180.3 195.556 180.3H26.9401C26.4772 180.3 26.0333 180.116 25.706 179.788C25.3787 179.46 25.1948 179.015 25.1946 178.551V78.483C25.1948 78.0191 25.3788 77.5742 25.7061 77.2462C26.0334 76.9182 26.4772 76.7338 26.9401 76.7336H195.556C196.019 76.7338 196.463 76.9182 196.79 77.2462C197.118 77.5742 197.302 78.0191 197.302 78.483V178.551Z" fill="#3F3D56"/>
<path d="M43.3467 89.6803C42.5181 89.6803 41.7082 89.434 41.0193 88.9727C40.3304 88.5113 39.7934 87.8556 39.4764 87.0884C39.1593 86.3212 39.0763 85.477 39.238 84.6625C39.3996 83.848 39.7986 83.0999 40.3845 82.5127C40.9703 81.9255 41.7168 81.5256 42.5294 81.3636C43.342 81.2016 44.1844 81.2848 44.9498 81.6026C45.7153 81.9203 46.3696 82.4585 46.8299 83.149C47.2902 83.8394 47.5359 84.6512 47.5359 85.4816C47.5346 86.5948 47.0929 87.662 46.3075 88.4491C45.5222 89.2362 44.4573 89.679 43.3467 89.6803ZM43.3467 81.9827C42.6562 81.9827 41.9813 82.1879 41.4072 82.5724C40.8331 82.9569 40.3856 83.5033 40.1214 84.1427C39.8572 84.782 39.7881 85.4855 39.9228 86.1642C40.0575 86.8429 40.3899 87.4664 40.8782 87.9557C41.3664 88.445 41.9884 88.7782 42.6656 88.9133C43.3428 89.0483 44.0447 88.979 44.6826 88.7141C45.3205 88.4493 45.8658 88.0009 46.2494 87.4255C46.633 86.8501 46.8377 86.1736 46.8377 85.4816C46.8367 84.554 46.4685 83.6646 45.8141 83.0087C45.1596 82.3527 44.2722 81.9838 43.3467 81.9827Z" fill="#9B79FF"/>
<path d="M36.8352 85.4816C36.8353 84.6807 37.0846 83.8997 37.5485 83.2476C38.0124 82.5954 38.6677 82.1045 39.423 81.8432C38.8446 81.6432 38.2269 81.5847 37.6213 81.6724C37.0158 81.7601 36.4399 81.9916 35.9416 82.3476C35.4434 82.7035 35.0373 83.1737 34.757 83.7188C34.4768 84.264 34.3306 84.8683 34.3306 85.4816C34.3306 86.0948 34.4768 86.6992 34.757 87.2443C35.0373 87.7895 35.4434 88.2596 35.9416 88.6156C36.4399 88.9715 37.0158 89.203 37.6213 89.2907C38.2269 89.3785 38.8446 89.3199 39.423 89.1199C38.6677 88.8586 38.0124 88.3677 37.5485 87.7156C37.0846 87.0634 36.8353 86.2825 36.8352 85.4816Z" fill="#9B79FF"/>
<path d="M60.3283 135.088C59.4953 135.087 58.6966 134.755 58.1076 134.165C57.5186 133.574 57.1873 132.774 57.1863 131.939V122.492C57.1863 121.657 57.5174 120.856 58.1066 120.265C58.6958 119.675 59.495 119.343 60.3283 119.343C61.1615 119.343 61.9607 119.675 62.5499 120.265C63.1391 120.856 63.4702 121.657 63.4702 122.492V131.939C63.4692 132.774 63.1379 133.574 62.5489 134.164C61.9598 134.755 61.1612 135.087 60.3283 135.088Z" fill="#9B79FF"/>
<path d="M68.7067 135.088C67.8737 135.087 67.0751 134.755 66.4861 134.165C65.897 133.574 65.5657 132.774 65.5648 131.939V122.492C65.5648 121.657 65.8958 120.856 66.485 120.265C67.0742 119.675 67.8734 119.343 68.7067 119.343C69.5399 119.343 70.3391 119.675 70.9283 120.265C71.5175 120.856 71.8486 121.657 71.8486 122.492V131.939C71.8476 132.774 71.5163 133.574 70.9273 134.164C70.3383 134.755 69.5397 135.087 68.7067 135.088Z" fill="#9B79FF"/>
<path d="M77.0851 135.088C76.2521 135.087 75.4535 134.755 74.8645 134.165C74.2755 133.574 73.9441 132.774 73.9432 131.939V122.492C73.9432 121.657 74.2742 120.856 74.8634 120.265C75.4526 119.675 76.2518 119.343 77.0851 119.343C77.9184 119.343 78.7175 119.675 79.3068 120.265C79.896 120.856 80.227 121.657 80.227 122.492V131.939C80.2261 132.774 79.8947 133.574 79.3057 134.164C78.7167 134.755 77.9181 135.087 77.0851 135.088Z" fill="#9B79FF"/>
<path d="M90.0018 135.088C89.1688 135.087 88.3703 134.755 87.7812 134.165C87.1922 133.574 86.8609 132.774 86.8599 131.939V122.492C86.8599 121.657 87.1909 120.856 87.7802 120.265C88.3694 119.675 89.1686 119.343 90.0018 119.343C90.8351 119.343 91.6343 119.675 92.2235 120.265C92.8127 120.856 93.1438 121.657 93.1438 122.492V131.939C93.1428 132.774 92.8115 133.574 92.2225 134.164C91.6334 134.755 90.8348 135.087 90.0018 135.088Z" fill="#9B79FF"/>
<path d="M98.3803 135.088C97.5473 135.087 96.7487 134.755 96.1597 134.165C95.5707 133.574 95.2394 132.774 95.2384 131.939V122.492C95.2384 121.657 95.5694 120.856 96.1587 120.265C96.7479 119.675 97.547 119.343 98.3803 119.343C99.2136 119.343 100.013 119.675 100.602 120.265C101.191 120.856 101.522 121.657 101.522 122.492V131.939C101.521 132.774 101.19 133.574 100.601 134.164C100.012 134.755 99.2133 135.087 98.3803 135.088Z" fill="#9B79FF"/>
<path d="M106.759 135.088C105.926 135.087 105.127 134.755 104.538 134.165C103.949 133.574 103.618 132.774 103.617 131.939V122.492C103.617 121.657 103.948 120.856 104.537 120.265C105.126 119.675 105.925 119.343 106.759 119.343C107.592 119.343 108.391 119.675 108.98 120.265C109.57 120.856 109.901 121.657 109.901 122.492V131.939C109.9 132.774 109.568 133.574 108.979 134.164C108.39 134.755 107.592 135.087 106.759 135.088Z" fill="#9B79FF"/>
<path d="M119.675 135.088C118.842 135.087 118.044 134.755 117.455 134.165C116.866 133.574 116.535 132.774 116.534 131.939V122.492C116.534 121.657 116.865 120.856 117.454 120.265C118.043 119.675 118.842 119.343 119.675 119.343C120.509 119.343 121.308 119.675 121.897 120.265C122.486 120.856 122.817 121.657 122.817 122.492V131.939C122.816 132.774 122.485 133.574 121.896 134.164C121.307 134.755 120.508 135.087 119.675 135.088Z" fill="#9B79FF"/>
<path d="M128.054 135.088C127.221 135.087 126.422 134.755 125.833 134.165C125.244 133.574 124.913 132.774 124.912 131.939V122.492C124.912 121.657 125.243 120.856 125.832 120.265C126.421 119.675 127.221 119.343 128.054 119.343C128.887 119.343 129.686 119.675 130.276 120.265C130.865 120.856 131.196 121.657 131.196 122.492V131.939C131.195 132.774 130.864 133.574 130.275 134.164C129.686 134.755 128.887 135.087 128.054 135.088Z" fill="#9B79FF"/>
<path d="M136.432 135.088C135.599 135.087 134.801 134.755 134.212 134.165C133.623 133.574 133.291 132.774 133.29 131.939V122.492C133.29 121.657 133.621 120.856 134.211 120.265C134.8 119.675 135.599 119.343 136.432 119.343C137.266 119.343 138.065 119.675 138.654 120.265C139.243 120.856 139.574 121.657 139.574 122.492V131.939C139.573 132.774 139.242 133.574 138.653 134.164C138.064 134.755 137.265 135.087 136.432 135.088Z" fill="#9B79FF"/>
<path d="M149.349 135.088C148.516 135.087 147.717 134.755 147.128 134.165C146.539 133.574 146.208 132.774 146.207 131.939V122.492C146.207 121.657 146.538 120.856 147.127 120.265C147.717 119.675 148.516 119.343 149.349 119.343C150.182 119.343 150.982 119.675 151.571 120.265C152.16 120.856 152.491 121.657 152.491 122.492V131.939C152.49 132.774 152.159 133.574 151.57 134.164C150.981 134.755 150.182 135.087 149.349 135.088Z" fill="#9B79FF"/>
<path d="M157.728 135.088C156.895 135.087 156.096 134.755 155.507 134.165C154.918 133.574 154.587 132.774 154.586 131.939V122.492C154.586 121.657 154.917 120.856 155.506 120.265C156.095 119.675 156.894 119.343 157.728 119.343C158.561 119.343 159.36 119.675 159.949 120.265C160.538 120.856 160.869 121.657 160.869 122.492V131.939C160.868 132.774 160.537 133.574 159.948 134.164C159.359 134.755 158.561 135.087 157.728 135.088Z" fill="#9B79FF"/>
<path d="M166.106 135.088C165.273 135.087 164.474 134.755 163.885 134.165C163.296 133.574 162.965 132.774 162.964 131.939V122.492C162.964 121.657 163.295 120.856 163.884 120.265C164.474 119.675 165.273 119.343 166.106 119.343C166.939 119.343 167.738 119.675 168.328 120.265C168.917 120.856 169.248 121.657 169.248 122.492V131.939C169.247 132.774 168.916 133.574 168.327 134.164C167.738 134.755 166.939 135.087 166.106 135.088Z" fill="#9B79FF"/>
<path d="M81.6297 170.135H36.4419C35.882 170.135 35.345 169.912 34.9491 169.515C34.5532 169.119 34.3307 168.58 34.3307 168.019C34.3307 167.458 34.5532 166.92 34.9491 166.523C35.345 166.126 35.882 165.903 36.4419 165.903H81.6297C82.1896 165.903 82.7266 166.126 83.1225 166.523C83.5184 166.92 83.7408 167.458 83.7408 168.019C83.7408 168.58 83.5184 169.119 83.1225 169.515C82.7266 169.912 82.1896 170.135 81.6297 170.135Z" fill="#E6E6E6"/>
<path d="M67.142 161.038H50.9296C50.3697 161.038 49.8327 160.815 49.4368 160.418C49.0409 160.021 48.8185 159.483 48.8185 158.922C48.8185 158.361 49.0409 157.823 49.4368 157.426C49.8327 157.029 50.3697 156.806 50.9296 156.806H67.142C67.7019 156.806 68.2389 157.029 68.6348 157.426C69.0307 157.823 69.2531 158.361 69.2531 158.922C69.2531 159.483 69.0307 160.021 68.6348 160.418C68.2389 160.815 67.7019 161.038 67.142 161.038Z" fill="#E6E6E6"/>
<path d="M197.176 96.9502H25.069V97.65H197.176V96.9502Z" fill="#3F3D56"/>
</svg>
