<svg width="316" height="143" viewBox="0 0 316 143" fill="none" xmlns="http://www.w3.org/2000/svg">
<defs>
<clipPath id="clip0">
<rect width="316" height="143" fill="white"/>
</clipPath>
</defs>
<g clip-path="url(#clip0)">
<path d="M301.266 80.8162C309.09 80.8162 315.432 74.518 315.432 66.7489C315.432 58.9798 309.09 52.6817 301.266 52.6817C293.441 52.6817 287.099 58.9798 287.099 66.7489C287.099 74.518 293.441 80.8162 301.266 80.8162Z" fill="#F2F2F2"/>
<path d="M301.266 70.4509C303.325 70.4509 304.994 68.7935 304.994 66.749C304.994 64.7045 303.325 63.0471 301.266 63.0471C299.207 63.0471 297.537 64.7045 297.537 66.749C297.537 68.7935 299.207 70.4509 301.266 70.4509Z" fill="#E6E6E6"/>
<path d="M300.584 66.8281C302.155 68.1002 302.633 70.1052 302.341 72.0412C301.982 74.1647 300.873 76.0916 299.212 77.4759C297.344 79.1241 295.067 80.2378 292.869 81.3783C290.849 82.4017 288.908 83.5715 287.062 84.8783C279.993 89.9799 274.653 97.2438 271.597 105.35C268.545 113.442 267.727 122.627 270.045 131.014C271.192 135.164 273.513 139.641 277.836 141.202C281.282 142.447 285.987 141.645 287.742 138.118C289.627 134.33 286.997 130.071 283.61 128.191C279.219 125.753 273.974 127.534 270.024 130.002C265.676 132.719 262.181 136.617 257.641 139.052C255.598 140.183 253.324 140.842 250.989 140.979C248.845 141.063 246.704 140.735 244.685 140.012C240.496 138.497 236.89 135.717 234.373 132.064C231.489 127.902 230.199 122.8 229.963 117.802C229.437 106.62 233.885 96.1591 237.454 85.7891C239.373 80.3891 240.81 74.8322 241.749 69.1825C242.642 63.5042 242.96 57.7513 242.698 52.01C242.461 46.9334 241.957 41.6247 239.701 36.9881C237.716 32.9111 234.09 29.5743 229.506 28.733C227.439 28.3303 225.298 28.5745 223.377 29.4321C222.723 29.7283 223.291 30.6857 223.941 30.391C227.999 28.5532 232.794 30.3413 235.791 33.3088C239.29 36.774 240.575 41.8912 241.146 46.6129C242.428 57.8031 241.417 69.1351 238.175 79.9275C235.063 90.4231 230.169 100.481 229.039 111.477C228.524 116.495 228.789 121.682 230.404 126.494C231.79 130.78 234.388 134.579 237.889 137.439C241.186 140.085 245.241 141.888 249.51 142.089C254.302 142.314 258.505 140.193 262.223 137.371C266.205 134.348 269.868 130.619 274.692 128.924C276.891 128.152 279.396 127.791 281.653 128.535C283.59 129.192 285.234 130.504 286.296 132.241C287.276 133.86 287.638 135.885 286.743 137.624C285.902 139.26 284.26 140.205 282.482 140.529C280.599 140.86 278.66 140.533 276.993 139.603C275.045 138.499 273.62 136.645 272.622 134.687C270.631 130.781 269.962 126.132 269.86 121.798C269.771 117.564 270.318 113.34 271.481 109.266C273.797 101.024 278.47 93.6258 284.936 87.969C286.564 86.5601 288.307 85.2862 290.145 84.1601C292.151 82.9326 294.292 81.9517 296.337 80.7934C298.349 79.6537 300.331 78.292 301.717 76.4165C302.898 74.8092 303.536 72.8716 303.539 70.8819C303.56 69.9668 303.377 69.0584 303.003 68.2218C302.629 67.3851 302.073 66.641 301.375 66.0428C300.822 65.5947 300.026 66.3759 300.584 66.8281V66.8281Z" fill="#CCCCCC"/>
<path d="M168.329 131.532C173.283 134.712 179.013 136.495 184.908 136.693C184.803 136.94 184.685 137.183 184.554 137.418C183.868 138.676 182.898 139.759 181.721 140.583C180.326 141.558 178.69 142.133 176.989 142.247C175.288 142.361 173.588 142.008 172.075 141.228C170.561 140.448 169.293 139.271 168.408 137.824C167.523 136.377 167.054 134.717 167.054 133.024V131.532H168.329Z" fill="#3F3D56"/>
<path d="M203.101 131.969V133.024C203.102 135.078 202.414 137.074 201.145 138.696C199.876 140.318 198.099 141.474 196.094 141.981C194.09 142.489 191.972 142.319 190.076 141.498C188.18 140.677 186.614 139.252 185.624 137.448C185.488 137.207 185.364 136.958 185.255 136.704C185.527 136.711 185.796 136.715 186.068 136.715C192.077 136.722 197.972 135.079 203.101 131.969Z" fill="#3F3D56"/>
<path d="M215.643 20.4012C215.363 20.3605 215.08 20.3345 214.796 20.316C218.016 27.6839 218.239 36.0031 215.419 43.5307C215.702 43.4973 215.982 43.4529 216.262 43.4011C218.992 42.8758 221.446 41.4055 223.186 39.2519C224.927 37.0983 225.842 34.4012 225.768 31.6407C225.693 28.8802 224.635 26.2355 222.781 24.1773C220.927 22.1191 218.397 20.781 215.643 20.4012Z" fill="#3F3D56"/>
<path d="M157.339 20.316C157.056 20.3345 156.772 20.3605 156.493 20.4012C153.738 20.781 151.209 22.119 149.354 24.1772C147.5 26.2354 146.442 28.8802 146.368 31.6407C146.293 34.4012 147.208 37.0983 148.949 39.2519C150.69 41.4055 153.144 42.8758 155.874 43.4011C156.153 43.4529 156.433 43.4973 156.716 43.5307C153.896 36.0031 154.119 27.6839 157.339 20.316Z" fill="#3F3D56"/>
<path d="M215.643 20.4012C212.571 13.1158 206.882 7.22411 199.681 3.87078C192.48 0.517454 184.28 -0.0581056 176.675 2.25592C169.071 4.56995 162.604 9.60833 158.531 16.3922C154.458 23.1762 153.07 31.2212 154.637 38.9644C156.203 46.7077 160.613 53.5962 167.008 58.2918C173.403 62.9874 181.328 65.1547 189.243 64.3727C197.158 63.5908 204.497 59.9153 209.836 54.0605C215.174 48.2056 218.13 40.5894 218.129 32.6915C218.128 28.4716 217.283 24.2941 215.643 20.4012ZM215.419 43.5306C212.692 50.81 207.319 56.8121 200.359 60.3557C193.399 63.8992 185.355 64.7275 177.811 62.6775C170.267 60.6274 163.768 55.8476 159.595 49.2788C155.422 42.7099 153.875 34.8279 155.261 27.1839C156.647 19.54 160.863 12.6879 167.081 7.9762C173.299 3.26452 181.068 1.03458 188.859 1.72527C196.65 2.41597 203.898 5.97725 209.177 11.7082C214.456 17.4392 217.384 24.9247 217.384 32.6915C217.382 36.3917 216.717 40.0622 215.419 43.5307V43.5306Z" fill="#3F3D56"/>
<path d="M202.471 25.4728H169.664C167.934 25.4728 166.274 26.1553 165.051 27.3702C163.827 28.5852 163.14 30.2329 163.14 31.9511C163.14 33.6693 163.827 35.317 165.051 36.532C166.274 37.7469 167.934 38.4294 169.664 38.4294H202.471C204.202 38.4294 205.861 37.7469 207.085 36.532C208.308 35.317 208.995 33.6693 208.995 31.9511C208.995 30.2329 208.308 28.5852 207.085 27.3702C205.861 26.1553 204.202 25.4728 202.471 25.4728Z" fill="#3F3D56"/>
<path d="M186.068 70.821C177.303 70.825 168.888 74.2344 162.622 80.3201C156.356 86.4057 152.738 94.6843 152.54 103.385C152.342 112.086 155.581 120.518 161.564 126.879C167.547 133.239 175.798 137.022 184.554 137.418C184.908 137.437 185.266 137.448 185.624 137.448C185.773 137.455 185.919 137.455 186.068 137.455C194.966 137.455 203.501 133.945 209.793 127.697C216.085 121.449 219.62 112.974 219.62 104.138C219.62 95.3019 216.085 86.8276 209.793 80.5794C203.501 74.3312 194.966 70.821 186.068 70.821ZM203.101 131.969C197.972 135.079 192.077 136.722 186.068 136.715C185.795 136.715 185.527 136.711 185.255 136.704C185.139 136.704 185.024 136.7 184.908 136.693C177.03 136.421 169.514 133.343 163.733 128.022C157.951 122.7 154.292 115.491 153.423 107.711C152.553 99.9315 154.532 92.1009 158.998 85.6507C163.464 79.2004 170.118 74.5613 177.744 72.5812C185.371 70.6011 193.46 71.4122 200.534 74.8663C207.608 78.3204 213.194 84.1868 216.271 91.3933C219.348 98.5999 219.71 106.665 217.292 114.115C214.874 121.566 209.837 127.903 203.101 131.969Z" fill="#3F3D56"/>
<path d="M209.617 95.9323H194.953C193.931 95.9323 192.951 95.5293 192.229 94.8119C191.506 94.0945 191.101 93.1215 191.101 92.107C191.101 91.0924 191.506 90.1194 192.229 89.402C192.951 88.6846 193.931 88.2816 194.953 88.2816H209.617C210.638 88.2816 211.618 88.6846 212.341 89.402C213.063 90.1194 213.469 91.0924 213.469 92.107C213.469 93.1215 213.063 94.0945 212.341 94.8119C211.618 95.5293 210.638 95.9323 209.617 95.9323Z" fill="#3F3D56"/>
<path d="M195.931 94.0484C197.01 94.0484 197.886 93.1792 197.886 92.107C197.886 91.0347 197.01 90.1655 195.931 90.1655C194.851 90.1655 193.975 91.0347 193.975 92.107C193.975 93.1792 194.851 94.0484 195.931 94.0484Z" fill="#F2F2F2"/>
<path d="M202.285 94.0484C203.365 94.0484 204.24 93.1792 204.24 92.107C204.24 91.0347 203.365 90.1655 202.285 90.1655C201.205 90.1655 200.33 91.0347 200.33 92.107C200.33 93.1792 201.205 94.0484 202.285 94.0484Z" fill="#F2F2F2"/>
<path d="M208.639 94.0484C209.719 94.0484 210.594 93.1792 210.594 92.107C210.594 91.0347 209.719 90.1655 208.639 90.1655C207.559 90.1655 206.684 91.0347 206.684 92.107C206.684 93.1792 207.559 94.0484 208.639 94.0484Z" fill="#9B79FF"/>
<path d="M72.1221 141.301C75.4746 138.488 77.511 134.044 76.9769 129.718C76.4429 125.392 73.1352 121.415 68.8447 120.497C64.5542 119.578 59.6633 122.121 58.3602 126.283C57.643 118.259 56.8165 109.899 52.5205 103.066C48.6305 96.8793 41.8929 92.4523 34.5909 91.6603C27.289 90.8682 19.6009 93.8596 15.047 99.5824C10.493 105.305 9.37797 113.625 12.5674 120.196C14.917 125.036 19.2458 128.638 23.7812 131.568C38.2509 140.917 56.2006 144.076 73.2799 141.58L72.1221 141.301Z" fill="#F2F2F2"/>
<path d="M22.2678 94.0254C28.2928 98.8984 33.8201 104.348 38.7698 110.297C43.7203 116.239 48.0786 122.644 51.7836 129.422C53.8546 133.224 55.7149 137.135 57.3564 141.139C57.6911 141.953 56.3593 142.308 56.0284 141.502C53.1209 134.444 49.5238 127.686 45.2886 121.325C41.074 114.987 36.2501 109.069 30.8848 103.656C27.8502 100.596 24.6484 97.7036 21.2939 94.9924C20.6063 94.4365 21.5859 93.474 22.2678 94.0254Z" fill="white"/>
<path d="M70.9854 24.4326C77.3682 24.4326 82.5425 19.2946 82.5425 12.9567C82.5425 6.61871 77.3682 1.48077 70.9854 1.48077C64.6026 1.48077 59.4284 6.61871 59.4284 12.9567C59.4284 19.2946 64.6026 24.4326 70.9854 24.4326Z" fill="#2F2E41"/>
<path d="M114.088 54.9774C113.867 55.3081 113.597 55.6042 113.287 55.8557C112.842 56.2208 112.323 56.4881 111.766 56.6403C111.209 56.7925 110.625 56.826 110.054 56.7387C109.483 56.6514 108.937 56.4453 108.451 56.1338C107.966 55.8223 107.553 55.4124 107.238 54.9312C107.165 54.819 107.098 54.7031 107.038 54.584L88.826 52.8393C87.3887 52.6961 86.0362 52.0966 84.9692 51.1296C83.9022 50.1627 83.1777 48.8799 82.9032 47.4716L81.8695 42.0605L88.9769 40.9626L90.2523 45.297L108.008 49.6279C108.146 49.508 108.292 49.3979 108.445 49.2984C109.237 48.788 110.182 48.5645 111.121 48.6658C112.059 48.767 112.934 49.1867 113.597 49.8541C114.261 50.5215 114.672 51.3956 114.761 52.329C114.851 53.2624 114.613 54.1978 114.089 54.9775L114.088 54.9774Z" fill="#FFB8B8"/>
<path d="M90.6888 44.6427L82.7495 46.7723C82.32 46.887 81.8622 46.8278 81.4765 46.6078C81.0909 46.3877 80.8089 46.0248 80.6924 45.5985L77.9116 35.3769C77.6137 34.282 77.7346 33.1164 78.251 32.1047C78.7674 31.0931 79.6427 30.3071 80.7081 29.8984C81.7735 29.4897 82.9536 29.4871 84.0208 29.8912C85.088 30.2953 85.9668 31.0774 86.4876 32.0867L91.7444 42.2748C91.8584 42.4957 91.9213 42.7391 91.9284 42.9872C91.9355 43.2353 91.8867 43.4818 91.7855 43.7088C91.6843 43.9358 91.5333 44.1374 91.3436 44.299C91.1539 44.4605 90.9301 44.578 90.6888 44.6427Z" fill="#2F2E41"/>
<path d="M86.09 138.5H90.6602L92.8348 120.995L86.0889 120.995L86.09 138.5Z" fill="#FFB8B8"/>
<path d="M99.4752 142.714L85.1106 142.715L85.1103 137.204L93.925 137.203C95.3969 137.203 96.8086 137.784 97.8494 138.817C98.8903 139.851 99.4751 141.253 99.4752 142.714Z" fill="#2F2E41"/>
<path d="M45.3531 134.077L49.6293 135.68L57.8915 120.066L51.5805 117.7L45.3531 134.077Z" fill="#FFB8B8"/>
<path d="M56.3764 142.715L42.9378 137.676L44.8983 132.521L53.1447 135.612C54.5217 136.129 55.6358 137.167 56.2419 138.499C56.848 139.831 56.8963 141.347 56.3764 142.715L56.3764 142.715Z" fill="#2F2E41"/>
<path d="M85.9456 134.434C85.5913 134.434 85.2462 134.322 84.9598 134.115C84.6734 133.908 84.4605 133.616 84.3516 133.281L72.6944 97.5342C72.6598 97.4282 72.594 97.335 72.5054 97.2667C72.4168 97.1984 72.3096 97.1581 72.1977 97.151C72.0857 97.1439 71.9742 97.1705 71.8777 97.2271C71.7811 97.2838 71.7039 97.368 71.6561 97.4688L55.5007 131.601C55.3257 131.97 55.0206 132.262 54.643 132.423C54.2655 132.584 53.8417 132.601 53.452 132.473L47.0893 130.367C46.6852 130.232 46.3476 129.95 46.145 129.578C45.9423 129.205 45.8897 128.77 45.9978 128.361L55.8938 91.1394C56.9293 87.1966 57.6773 83.1849 58.1319 79.1353C58.8259 72.4668 61.9744 66.2874 66.9737 61.7819C69.1566 59.796 70.5756 57.1179 70.9873 54.2067L71.014 54.0206L85.5065 56.2927L94.6864 130.674C94.7338 131.072 94.6359 131.474 94.4103 131.806C94.1847 132.139 93.8466 132.38 93.4573 132.485L86.3836 134.376C86.2408 134.415 86.0935 134.434 85.9456 134.434Z" fill="#2F2E41"/>
<path d="M75.5765 24.3779C80.6336 24.3779 84.7331 20.3072 84.7331 15.2857C84.7331 10.2642 80.6336 6.19342 75.5765 6.19342C70.5195 6.19342 66.42 10.2642 66.42 15.2857C66.42 20.3072 70.5195 24.3779 75.5765 24.3779Z" fill="#FFB8B8"/>
<path d="M84.6059 57.8787C84.5772 57.8787 84.5485 57.878 84.5196 57.8766L70.1531 57.1633C69.7521 57.1453 69.371 56.9844 69.0799 56.71C68.7887 56.4356 68.6069 56.0662 68.5679 55.6695L66.6053 36.6684C66.4616 35.2769 66.6628 33.8716 67.1913 32.575C67.7198 31.2784 68.5596 30.1299 69.6376 29.2294C70.7155 28.3289 71.9989 27.7038 73.3758 27.4086C74.7528 27.1135 76.1815 27.1571 77.5376 27.5358H77.5377C78.6611 27.8413 79.7081 28.3761 80.6117 29.106C90.7179 37.3473 87.4593 52.2793 86.2198 56.6594C86.1226 57.0102 85.912 57.3196 85.6204 57.54C85.3288 57.7603 84.9723 57.8793 84.6059 57.8787Z" fill="#9B79FF"/>
<path d="M72.1075 70.6376C71.7075 70.6377 71.3097 70.5785 70.9273 70.4619C70.3743 70.2955 69.8629 70.0149 69.4266 69.6386C68.9904 69.2622 68.6392 68.7985 68.396 68.278C68.1528 67.7574 68.0231 67.1917 68.0154 66.618C68.0078 66.0442 68.1223 65.4752 68.3515 64.9485C68.4052 64.8261 68.4653 64.7066 68.5317 64.5906L59.9066 48.5683C59.2305 47.3007 58.984 45.8505 59.2037 44.4328C59.4234 43.0151 60.0977 41.7055 61.1264 40.6985L65.0907 36.8466L69.9483 42.1142L67.0206 45.5695L73.2249 62.6478C73.4016 62.6951 73.5746 62.7547 73.7429 62.826C74.6096 63.1981 75.3205 63.8557 75.7555 64.6878C76.1906 65.5199 76.3233 66.4756 76.1311 67.3936C75.9389 68.3116 75.4337 69.1356 74.7006 69.7266C73.9676 70.3176 73.0517 70.6394 72.1075 70.6376L72.1075 70.6376Z" fill="#FFB8B8"/>
<path d="M67.8109 45.5681L61.6275 40.1841C61.2935 39.8926 61.0895 39.4813 61.0603 39.0406C61.0312 38.5999 61.1794 38.1657 61.4722 37.8333L68.5022 29.8724C69.2553 29.0196 70.2996 28.4739 71.4338 28.3404C72.568 28.207 73.7118 28.4952 74.6447 29.1496C75.5776 29.804 76.2334 30.7782 76.4858 31.8843C76.7381 32.9904 76.5691 34.1501 76.0114 35.1398L70.381 45.1291C70.259 45.3457 70.0897 45.5325 69.8856 45.6758C69.6815 45.8191 69.4478 45.9153 69.2014 45.9574C68.9551 45.9995 68.7024 45.9863 68.4618 45.919C68.2212 45.8516 67.9989 45.7317 67.8109 45.568V45.5681Z" fill="#2F2E41"/>
<path d="M69.6843 24.1176C70.5197 24.4118 71.544 24.6711 72.2014 24.0611C72.8432 23.4655 72.7262 22.3763 72.3482 21.5739C71.9701 20.7716 71.3837 20.0575 71.2039 19.1842C70.9463 17.9325 71.6125 16.6322 72.5634 15.8161C73.5144 15.0001 74.7115 14.5715 75.8801 14.159L82.2898 11.8964C83.8764 11.3364 85.5862 10.6785 86.474 9.20473C87.7587 7.07221 86.5843 4.02389 84.477 2.77952C82.3697 1.53515 79.7079 1.76697 77.4343 2.64195C76.1769 3.12589 74.9807 3.79275 73.6802 4.13341C71.1137 4.80574 68.1955 4.20259 65.9402 5.63952C63.9769 6.89037 63.0663 9.44263 63.1324 11.8307C63.1985 14.2188 64.084 16.4931 65.0181 18.6771C65.5737 19.9764 66.1673 21.2907 67.1085 22.3242C68.0497 23.3576 69.4098 24.0806 70.7684 23.8904L69.6843 24.1176Z" fill="#2F2E41"/>
<path d="M61.2924 14.8076C65.4103 14.8076 68.7486 11.4928 68.7486 7.4038C68.7486 3.3148 65.4103 0 61.2924 0C57.1745 0 53.8362 3.3148 53.8362 7.4038C53.8362 11.4928 57.1745 14.8076 61.2924 14.8076Z" fill="#2F2E41"/>
<path d="M121.766 50.1423L121.634 50.1243L122.132 46.525C122.209 45.9725 122.061 45.4125 121.722 44.9681C121.382 44.5237 120.879 44.2314 120.323 44.1555L112.643 43.1072C112.087 43.0312 111.523 43.1779 111.075 43.5148C110.628 43.8518 110.333 44.3515 110.257 44.904L107.523 64.6502C107.447 65.2027 107.594 65.7627 107.934 66.2071C108.273 66.6515 108.776 66.9438 109.333 67.0198L117.012 68.068C117.569 68.144 118.133 67.9973 118.58 67.6603C119.028 67.3234 119.322 66.8237 119.399 66.2712L121.279 52.6863L121.412 52.7044L121.766 50.1423Z" fill="#3F3D56"/>
<path d="M120.081 45.2114L119.125 45.0809C119.154 45.1939 119.155 45.3124 119.127 45.4258C119.099 45.5392 119.044 45.644 118.966 45.7311C118.888 45.8182 118.789 45.8849 118.679 45.9252C118.568 45.9655 118.45 45.9783 118.333 45.9624L114.137 45.3896C114.02 45.3737 113.91 45.3296 113.814 45.2612C113.719 45.1928 113.642 45.1022 113.591 44.9974C113.539 44.8926 113.514 44.7768 113.518 44.6601C113.522 44.5435 113.555 44.4297 113.614 44.3286L112.721 44.2067C112.525 44.1799 112.325 44.1918 112.133 44.2416C111.942 44.2914 111.762 44.3782 111.604 44.4971C111.446 44.6159 111.313 44.7645 111.213 44.9343C111.113 45.1041 111.048 45.2918 111.021 45.4866L108.417 64.2939C108.363 64.6874 108.468 65.0863 108.71 65.4029C108.952 65.7194 109.31 65.9277 109.706 65.9818L117.067 66.9865C117.463 67.0406 117.865 66.9361 118.184 66.6961C118.502 66.456 118.712 66.1001 118.767 65.7065L121.37 46.8993C121.425 46.5057 121.32 46.1068 121.078 45.7902C120.836 45.4737 120.478 45.2655 120.081 45.2114V45.2114Z" fill="white"/>
<path d="M114.861 60.8259C117.126 60.8259 118.962 59.0027 118.962 56.7538C118.962 54.5048 117.126 52.6817 114.861 52.6817C112.596 52.6817 110.76 54.5048 110.76 56.7538C110.76 59.0027 112.596 60.8259 114.861 60.8259Z" fill="#9B79FF"/>
<path d="M114.455 58.3072C114.362 58.3074 114.273 58.2778 114.199 58.2228L114.194 58.2194L113.23 57.4867C113.186 57.4529 113.148 57.4105 113.12 57.3621C113.091 57.3138 113.073 57.2603 113.065 57.2048C113.058 57.1494 113.061 57.093 113.076 57.0389C113.09 56.9848 113.115 56.9341 113.15 56.8896C113.184 56.8452 113.227 56.8079 113.276 56.7799C113.324 56.752 113.378 56.7338 113.434 56.7266C113.49 56.7194 113.547 56.7232 113.601 56.7378C113.656 56.7524 113.707 56.7775 113.751 56.8118L114.376 57.2871L115.851 55.3767C115.885 55.3324 115.928 55.2952 115.976 55.2673C116.025 55.2394 116.079 55.2212 116.134 55.2139C116.19 55.2066 116.247 55.2103 116.301 55.2247C116.355 55.2392 116.406 55.2641 116.451 55.298L116.442 55.3104L116.451 55.2982C116.541 55.3669 116.6 55.4682 116.615 55.58C116.63 55.6918 116.599 55.8048 116.53 55.8943L114.795 58.1413C114.755 58.1931 114.704 58.235 114.645 58.2638C114.585 58.2925 114.52 58.3074 114.455 58.3072Z" fill="white"/>
<path d="M326.304 143H13.4083C13.2908 143 13.1782 142.953 13.0952 142.87C13.0123 142.788 12.9657 142.676 12.9657 142.559C12.9657 142.443 13.0123 142.331 13.0952 142.248C13.1782 142.165 13.2908 142.119 13.4083 142.118H326.304C326.422 142.118 326.535 142.165 326.618 142.248C326.702 142.33 326.748 142.442 326.748 142.559C326.748 142.676 326.702 142.788 326.618 142.871C326.535 142.954 326.422 143 326.304 143Z" fill="#CCCCCC"/>
</g>
</svg>
