<svg width="279" height="187" viewBox="0 0 279 187" fill="none" xmlns="http://www.w3.org/2000/svg">
<defs>
<clipPath id="clip0">
<rect width="279" height="187" fill="white"/>
</clipPath>
</defs>
<g clip-path="url(#clip0)">
<path d="M222.261 82.7557L223.089 76.1141C223.383 73.7538 224.603 71.6071 226.479 70.1463C228.355 68.6855 230.735 68.0302 233.094 68.3247C235.453 68.6192 237.599 69.8392 239.059 71.7165C240.519 73.5938 241.174 75.9744 240.88 78.3348L240.051 84.9764C240.012 85.2933 239.848 85.5814 239.596 85.7776C239.344 85.9738 239.024 86.0619 238.707 86.0227L223.306 84.1004C222.99 84.0605 222.702 83.8965 222.506 83.6444C222.309 83.3923 222.221 83.0727 222.261 82.7557Z" fill="#2F2E41"/>
<path d="M229.638 84.7372C233.268 84.7372 236.21 81.7932 236.21 78.1616C236.21 74.53 233.268 71.5861 229.638 71.5861C226.008 71.5861 223.065 74.53 223.065 78.1616C223.065 81.7932 226.008 84.7372 229.638 84.7372Z" fill="#FFB8B8"/>
<path d="M220.918 76.3828C221.153 74.5166 222.118 72.8198 223.602 71.6646C225.086 70.5094 226.967 69.9903 228.833 70.221L230.16 70.3868C232.026 70.6217 233.722 71.5874 234.876 73.0719C236.031 74.5563 236.55 76.4384 236.319 78.3052L236.303 78.438L233.497 78.0878L232.874 75.2873L232.348 77.9444L230.898 77.7634L230.584 76.3505L230.319 77.6911L220.901 76.5157L220.918 76.3828Z" fill="#2F2E41"/>
<path d="M197.492 101.618C197.693 102.012 197.978 102.358 198.327 102.631C198.676 102.903 199.08 103.096 199.512 103.195C199.943 103.294 200.391 103.298 200.824 103.205C201.256 103.112 201.664 102.926 202.017 102.659L207.986 106.157L210.996 103.046L202.497 98.2242C202.009 97.6607 201.331 97.2958 200.592 97.1987C199.853 97.1016 199.105 97.279 198.488 97.6973C197.871 98.1156 197.429 98.7457 197.246 99.4683C197.062 100.191 197.15 100.956 197.492 101.618Z" fill="#FFB8B8"/>
<path d="M217.057 107.905C212.654 107.905 204.906 105.932 204.477 105.822L204.341 105.788L205.561 99.6102L217.396 101.949L223.825 92.8906L231.207 92.1398L231.001 92.411C230.905 92.5374 221.389 105.069 219.909 107.172C219.535 107.702 218.467 107.905 217.057 107.905Z" fill="#3F3D56"/>
<path d="M218.238 131.089L218.062 131.005C218.024 130.987 214.283 129.167 212.345 125.613C210.417 122.075 219.445 107.07 220.076 106.029L220.085 101.264L223.333 92.4915L227.474 90.1495L223.919 98.4505L218.238 131.089Z" fill="#3F3D56"/>
<path d="M214.089 182.307L210.131 182.306L208.247 167.031L214.089 167.032L214.089 182.307Z" fill="#FFB8B8"/>
<path d="M215.098 186.145L202.335 186.145V185.983C202.335 184.665 202.858 183.401 203.79 182.469C204.722 181.537 205.985 181.013 207.303 181.013H207.303L215.098 181.013L215.098 186.145Z" fill="#2F2E41"/>
<path d="M256.605 178.836L252.844 180.069L246.3 166.14L251.852 164.32L256.605 178.836Z" fill="#FFB8B8"/>
<path d="M258.759 182.169L246.631 186.145L246.58 185.992C246.17 184.739 246.274 183.375 246.869 182.199C247.465 181.023 248.502 180.132 249.754 179.721L249.755 179.721L257.162 177.293L258.759 182.169Z" fill="#2F2E41"/>
<path d="M248.941 176.339L237.657 157.491L228.132 137.355L219.56 155.142L216.155 178.179L204.213 178.345L204.26 178.158L222.535 105.51L236.847 107.649L236.196 117.101L236.584 117.653C239.817 122.248 243.16 126.999 241.243 132.121L246.678 148.268L258.71 175.154L248.941 176.339Z" fill="#2F2E41"/>
<path d="M223.189 121.255C221.115 121.255 218.749 118.886 219.976 114.841L219.897 114.783L222.845 101.75C220.272 98.0689 223.665 95.0305 223.982 94.759L225.602 91.8428L232.747 87.3093L236.362 117.361L236.308 117.412C233.697 119.911 224.929 121.255 223.189 121.255Z" fill="#9B79FF"/>
<path d="M237.821 128.036C237.537 128.04 237.254 128.01 236.977 127.947C236.699 127.877 236.25 127.523 235.554 125.258C232.791 116.256 229.528 89.1696 231.899 86.519L231.953 86.4583L235.845 87.1073C236.169 86.8684 237.866 85.6826 239.433 85.8888C239.756 85.9294 240.066 86.0358 240.346 86.2012C240.626 86.3667 240.869 86.5879 241.06 86.851L241.087 86.8862L242.327 104.535L246.869 125.304L246.76 125.354C246.496 125.474 240.824 128.036 237.821 128.036Z" fill="#3F3D56"/>
<path d="M235.204 121.138C235.646 121.123 236.08 121.012 236.474 120.811C236.869 120.61 237.215 120.326 237.487 119.977C237.76 119.628 237.953 119.224 238.053 118.792C238.152 118.361 238.156 117.913 238.064 117.48L243.762 113.553L242.221 109.507L234.253 115.165C233.536 115.368 232.918 115.827 232.517 116.456C232.116 117.084 231.959 117.838 232.077 118.574C232.194 119.31 232.577 119.978 233.153 120.451C233.73 120.923 234.459 121.168 235.204 121.138Z" fill="#FFB8B8"/>
<path d="M241.882 116.699L236.806 112.976L243.94 103.243L238.466 93.5773L240.915 86.5701L241.073 86.8718C241.147 87.0124 248.458 100.947 249.733 103.18C251.06 105.503 242.342 116.14 241.97 116.591L241.882 116.699Z" fill="#3F3D56"/>
<path d="M127.721 160.505L123.401 158.686L120.438 137.022H80.9793L77.7675 158.597L73.9031 160.53C73.7182 160.623 73.5699 160.775 73.4823 160.962C73.3947 161.15 73.3729 161.361 73.4204 161.562C73.4679 161.764 73.5819 161.943 73.744 162.071C73.9061 162.2 74.1068 162.269 74.3135 162.269H127.365C127.577 162.269 127.782 162.196 127.946 162.062C128.11 161.928 128.222 161.741 128.264 161.533C128.306 161.325 128.275 161.109 128.176 160.922C128.077 160.735 127.916 160.587 127.721 160.505Z" fill="#E6E6E6"/>
<path d="M197.842 139.904H4.00854C2.99155 139.902 2.01699 139.496 1.29868 138.776C0.580361 138.055 0.176948 137.08 0.176941 136.062V108.716H201.674V136.062C201.674 137.08 201.27 138.055 200.552 138.776C199.834 139.496 198.859 139.902 197.842 139.904Z" fill="#CCCCCC"/>
<path d="M201.876 121.64H0V4.6315C0.00141807 3.40356 0.48962 2.22632 1.3575 1.35804C2.22539 0.489772 3.40208 0.00137714 4.62943 0H197.247C198.474 0.00137398 199.651 0.489768 200.519 1.35804C201.387 2.22631 201.875 3.40355 201.876 4.6315V121.64Z" fill="#3F3D56"/>
<path d="M189.819 113.148H12.0573C11.1111 113.147 10.2039 112.77 9.53484 112.101C8.86576 111.432 8.48941 110.524 8.48834 109.577V12.0631C8.4894 11.1164 8.86575 10.2088 9.53482 9.53938C10.2039 8.86996 11.1111 8.4934 12.0573 8.49231H189.819C190.765 8.4934 191.672 8.86996 192.342 9.53938C193.011 10.2088 193.387 11.1164 193.388 12.0631V109.577C193.387 110.524 193.011 111.432 192.342 112.101C191.672 112.77 190.765 113.147 189.819 113.148Z" fill="white"/>
<path d="M150.792 162.495H50.9047C50.8024 162.498 50.7022 162.466 50.6198 162.405C50.5374 162.344 50.4774 162.258 50.4491 162.16C50.4315 162.093 50.4294 162.023 50.4431 161.955C50.4568 161.887 50.4859 161.823 50.5281 161.768C50.5704 161.713 50.6246 161.669 50.6868 161.638C50.7489 161.607 50.8172 161.591 50.8864 161.591H150.755C150.862 161.588 150.968 161.621 151.055 161.685C151.142 161.749 151.205 161.841 151.233 161.945C151.248 162.011 151.247 162.08 151.232 162.146C151.216 162.212 151.187 162.273 151.144 162.326C151.102 162.379 151.048 162.422 150.987 162.451C150.926 162.48 150.859 162.495 150.792 162.495Z" fill="#CCCCCC"/>
<path d="M187.921 24.2574H145.002V57.0628H187.921V24.2574Z" fill="#F2F2F2"/>
<path d="M185.789 25.8875H147.134V55.4327H185.789V25.8875Z" fill="white"/>
<path d="M167.14 47.8027C167.145 47.8028 167.151 47.8027 167.156 47.8024C169.772 47.6655 172.238 46.5366 174.053 44.6453C175.867 42.754 176.893 40.2424 176.923 37.6211C176.952 34.9999 175.982 32.4658 174.211 30.5343C172.439 28.6028 169.999 27.4189 167.386 27.2233C167.354 27.2208 167.321 27.2249 167.291 27.2356C167.26 27.2462 167.232 27.263 167.208 27.285C167.185 27.3066 167.166 27.333 167.152 27.3623C167.139 27.3916 167.133 27.4233 167.132 27.4555L166.907 47.5646C166.906 47.6271 166.931 47.6873 166.974 47.7319C167.018 47.7766 167.078 47.802 167.14 47.8027Z" fill="#3F3D56"/>
<path d="M159.058 30.5485C159.138 30.5495 159.215 30.5822 159.271 30.6395L166.19 37.7192C166.218 37.7475 166.24 37.7811 166.255 37.8179C166.27 37.8548 166.277 37.8942 166.276 37.9339L166.168 47.5562C166.168 47.5975 166.159 47.6383 166.143 47.676C166.126 47.7137 166.101 47.7475 166.071 47.7753C166.04 47.8035 166.004 47.8251 165.965 47.8387C165.926 47.8523 165.884 47.8578 165.842 47.8547C163.919 47.7106 162.073 47.0326 160.513 45.8969C158.953 44.7612 157.741 43.2128 157.012 41.4256C156.283 39.6385 156.067 37.6834 156.388 35.78C156.708 33.8767 157.553 32.1006 158.827 30.6512C158.855 30.62 158.888 30.5947 158.926 30.5771C158.964 30.5594 159.005 30.5497 159.047 30.5486C159.05 30.5485 159.054 30.5484 159.058 30.5485Z" fill="#E6E6E6"/>
<path d="M166.094 27.1411C166.171 27.142 166.245 27.1723 166.301 27.2257C166.331 27.2542 166.354 27.2886 166.37 27.3267C166.386 27.3648 166.394 27.4059 166.394 27.4472L166.296 36.129C166.296 36.1888 166.277 36.247 166.244 36.2964C166.21 36.3457 166.162 36.3839 166.107 36.4062C166.051 36.4284 165.991 36.4337 165.932 36.4214C165.874 36.4091 165.82 36.3797 165.778 36.337L159.74 30.1591C159.712 30.1297 159.689 30.0948 159.674 30.0565C159.66 30.0182 159.653 29.9772 159.654 29.9362C159.656 29.8952 159.666 29.8549 159.683 29.8177C159.701 29.7806 159.726 29.7475 159.757 29.7203C161.513 28.1738 163.739 27.2652 166.075 27.1414C166.081 27.1411 166.088 27.141 166.094 27.1411Z" fill="#9B79FF"/>
<path d="M162.983 51.9726C162.979 52.3389 162.867 52.6957 162.66 52.9979C162.453 53.3002 162.161 53.5343 161.821 53.6707C161.482 53.807 161.109 53.8395 160.751 53.7641C160.393 53.6886 160.065 53.5085 159.809 53.2466C159.553 52.9847 159.38 52.6528 159.313 52.2928C159.245 51.9327 159.286 51.5608 159.43 51.224C159.574 50.8872 159.815 50.6006 160.121 50.4006C160.428 50.2005 160.787 50.0959 161.153 50.1C161.644 50.1061 162.112 50.3066 162.455 50.6577C162.798 51.0088 162.988 51.4816 162.983 51.9726Z" fill="#9B79FF"/>
<path d="M168.272 52.032C168.268 52.3982 168.155 52.755 167.948 53.0573C167.741 53.3595 167.45 53.5936 167.11 53.73C166.77 53.8664 166.397 53.8989 166.039 53.8234C165.681 53.7479 165.353 53.5679 165.097 53.306C164.841 53.0441 164.669 52.7121 164.601 52.3521C164.534 51.9921 164.575 51.6202 164.719 51.2833C164.862 50.9465 165.103 50.66 165.41 50.4599C165.716 50.2598 166.075 50.1553 166.441 50.1594C166.932 50.1654 167.4 50.366 167.744 50.717C168.087 51.0681 168.277 51.541 168.272 52.032Z" fill="#3F3D56"/>
<path d="M173.56 52.0913C173.556 52.4575 173.443 52.8143 173.237 53.1166C173.03 53.4188 172.738 53.653 172.398 53.7893C172.058 53.9257 171.686 53.9582 171.328 53.8827C170.969 53.8072 170.642 53.6272 170.386 53.3653C170.13 53.1034 169.957 52.7714 169.89 52.4114C169.822 52.0514 169.863 51.6795 170.007 51.3427C170.151 51.0059 170.391 50.7193 170.698 50.5192C171.005 50.3192 171.364 50.2146 171.73 50.2187C172.221 50.2247 172.689 50.4253 173.032 50.7764C173.375 51.1274 173.565 51.6003 173.56 52.0913Z" fill="#E6E6E6"/>
<path d="M187.47 62.2258H144.55V95.0311H187.47V62.2258Z" fill="#F2F2F2"/>
<path d="M185.337 63.8558H146.682V93.4011H185.337V63.8558Z" fill="white"/>
<path d="M153.241 73.5664C154.127 73.5664 154.846 72.8475 154.846 71.9606C154.846 71.0738 154.127 70.3549 153.241 70.3549C152.355 70.3549 151.636 71.0738 151.636 71.9606C151.636 72.8475 152.355 73.5664 153.241 73.5664Z" fill="#3F3D56"/>
<path d="M179.028 70.7112C179.171 70.7109 179.313 70.7389 179.445 70.7935C179.578 70.8482 179.698 70.9283 179.799 71.0295C179.9 71.1306 179.981 71.2508 180.036 71.383C180.09 71.5152 180.119 71.657 180.119 71.8001C180.119 71.9433 180.09 72.0851 180.036 72.2173C179.981 72.3495 179.9 72.4697 179.799 72.5708C179.698 72.672 179.578 72.7521 179.445 72.8068C179.313 72.8614 179.171 72.8894 179.028 72.8891H162.148C161.86 72.8891 161.583 72.7744 161.379 72.5702C161.175 72.3659 161.06 72.089 161.06 71.8001C161.06 71.5113 161.175 71.2343 161.379 71.0301C161.583 70.8259 161.86 70.7112 162.148 70.7112H179.028ZM179.028 70.4445H162.148C161.97 70.4442 161.794 70.4791 161.629 70.5471C161.465 70.6151 161.315 70.7149 161.189 70.8408C161.063 70.9667 160.963 71.1163 160.895 71.2809C160.827 71.4455 160.791 71.6219 160.791 71.8001C160.791 71.9783 160.827 72.1548 160.895 72.3194C160.963 72.484 161.063 72.6336 161.189 72.7595C161.315 72.8854 161.465 72.9852 161.629 73.0532C161.794 73.1212 161.97 73.1561 162.148 73.1558H179.028C179.206 73.1561 179.383 73.1212 179.548 73.0532C179.712 72.9852 179.862 72.8854 179.988 72.7595C180.114 72.6336 180.214 72.484 180.282 72.3194C180.35 72.1548 180.385 71.9783 180.385 71.8001C180.385 71.6219 180.35 71.4455 180.282 71.2809C180.214 71.1163 180.114 70.9667 179.988 70.8408C179.862 70.7149 179.712 70.6151 179.548 70.5471C179.383 70.4791 179.206 70.4442 179.028 70.4445Z" fill="#3F3D56"/>
<path d="M172.368 73.1558H159.661C159.301 73.1558 158.957 73.013 158.703 72.7588C158.448 72.5045 158.306 72.1597 158.306 71.8001C158.306 71.4406 158.448 71.0958 158.703 70.8415C158.957 70.5873 159.301 70.4445 159.661 70.4445H172.368C172.727 70.4445 173.072 70.5873 173.326 70.8415C173.58 71.0958 173.723 71.4406 173.723 71.8001C173.723 72.1597 173.58 72.5045 173.326 72.7588C173.072 73.013 172.727 73.1558 172.368 73.1558Z" fill="#9B79FF"/>
<path d="M153.241 80.2342C154.127 80.2342 154.846 79.5152 154.846 78.6284C154.846 77.7416 154.127 77.0227 153.241 77.0227C152.355 77.0227 151.636 77.7416 151.636 78.6284C151.636 79.5152 152.355 80.2342 153.241 80.2342Z" fill="#3F3D56"/>
<path d="M179.028 77.3789C179.171 77.3787 179.313 77.4067 179.445 77.4613C179.578 77.5159 179.698 77.5961 179.799 77.6972C179.9 77.7984 179.981 77.9185 180.036 78.0507C180.09 78.183 180.119 78.3247 180.119 78.4679C180.119 78.611 180.09 78.7528 180.036 78.885C179.981 79.0173 179.9 79.1374 179.799 79.2385C179.698 79.3397 179.578 79.4198 179.445 79.4745C179.313 79.5291 179.171 79.5571 179.028 79.5568H162.148C161.86 79.5568 161.583 79.4421 161.379 79.2379C161.175 79.0337 161.06 78.7567 161.06 78.4679C161.06 78.1791 161.175 77.9021 161.379 77.6978C161.583 77.4936 161.86 77.3789 162.148 77.3789H179.028ZM179.028 77.1122H162.148C161.789 77.1122 161.444 77.255 161.19 77.5093C160.936 77.7635 160.793 78.1083 160.793 78.4679C160.793 78.8274 160.936 79.1722 161.19 79.4265C161.444 79.6807 161.789 79.8236 162.148 79.8236H179.028C179.388 79.8236 179.732 79.6807 179.987 79.4265C180.241 79.1722 180.383 78.8274 180.383 78.4679C180.383 78.1083 180.241 77.7635 179.987 77.5093C179.732 77.255 179.388 77.1122 179.028 77.1122Z" fill="#3F3D56"/>
<path d="M177.166 79.8235H159.661C159.301 79.8235 158.957 79.6807 158.703 79.4265C158.448 79.1722 158.306 78.8274 158.306 78.4679C158.306 78.1083 158.448 77.7635 158.703 77.5092C158.957 77.255 159.301 77.1122 159.661 77.1122H177.166C177.526 77.1122 177.87 77.255 178.124 77.5092C178.379 77.7635 178.521 78.1083 178.521 78.4679C178.521 78.8274 178.379 79.1722 178.124 79.4265C177.87 79.6807 177.526 79.8235 177.166 79.8235Z" fill="#9B79FF"/>
<path d="M153.241 86.9019C154.127 86.9019 154.846 86.183 154.846 85.2962C154.846 84.4094 154.127 83.6905 153.241 83.6905C152.355 83.6905 151.636 84.4094 151.636 85.2962C151.636 86.183 152.355 86.9019 153.241 86.9019Z" fill="#3F3D56"/>
<path d="M179.028 84.0467C179.171 84.0464 179.313 84.0744 179.445 84.1291C179.578 84.1837 179.698 84.2639 179.799 84.365C179.9 84.4661 179.981 84.5863 180.036 84.7185C180.09 84.8507 180.119 84.9925 180.119 85.1357C180.119 85.2788 180.09 85.4206 180.036 85.5528C179.981 85.685 179.9 85.8052 179.799 85.9063C179.698 86.0075 179.578 86.0876 179.445 86.1423C179.313 86.1969 179.171 86.2249 179.028 86.2246H162.148C161.86 86.2246 161.583 86.1099 161.379 85.9057C161.175 85.7015 161.06 85.4245 161.06 85.1357C161.06 84.8468 161.175 84.5699 161.379 84.3656C161.583 84.1614 161.86 84.0467 162.148 84.0467H179.028ZM179.028 83.78H162.148C161.789 83.78 161.444 83.9228 161.19 84.177C160.936 84.4313 160.793 84.7761 160.793 85.1357C160.793 85.4952 160.936 85.84 161.19 86.0943C161.444 86.3485 161.789 86.4913 162.148 86.4913H179.028C179.388 86.4913 179.732 86.3485 179.987 86.0943C180.241 85.84 180.383 85.4952 180.383 85.1357C180.383 84.7761 180.241 84.4313 179.987 84.177C179.732 83.9228 179.388 83.78 179.028 83.78Z" fill="#3F3D56"/>
<path d="M166.77 86.4913H159.661C159.483 86.4916 159.306 86.4567 159.142 86.3887C158.977 86.3207 158.827 86.2209 158.701 86.095C158.575 85.9691 158.475 85.8195 158.407 85.6549C158.339 85.4903 158.304 85.3139 158.304 85.1357C158.304 84.9575 158.339 84.781 158.407 84.6164C158.475 84.4518 158.575 84.3022 158.701 84.1763C158.827 84.0504 158.977 83.9506 159.142 83.8826C159.306 83.8146 159.483 83.7797 159.661 83.78H166.77C167.129 83.7805 167.473 83.9236 167.726 84.1777C167.98 84.4319 168.123 84.7765 168.123 85.1357C168.123 85.4949 167.98 85.8394 167.726 86.0936C167.473 86.3478 167.129 86.4908 166.77 86.4913Z" fill="#9B79FF"/>
<path d="M135.062 30.0615H15.152V91.545H135.062V30.0615Z" fill="#F2F2F2"/>
<path d="M131.065 33.1165H19.1491V88.4899H131.065V33.1165Z" fill="white"/>
<path d="M117.185 80.0422H35.6005C35.5328 80.0422 35.4679 80.0152 35.42 79.9673C35.3721 79.9194 35.3452 79.8545 35.3452 79.7867V40.6643C35.3452 40.5966 35.3721 40.5316 35.42 40.4837C35.4679 40.4358 35.5328 40.4089 35.6005 40.4089C35.6683 40.4089 35.7332 40.4358 35.7811 40.4837C35.829 40.5316 35.8559 40.5966 35.8559 40.6643V79.5313H117.185C117.253 79.5313 117.318 79.5582 117.366 79.6061C117.414 79.654 117.441 79.719 117.441 79.7867C117.441 79.8545 117.414 79.9194 117.366 79.9673C117.318 80.0152 117.253 80.0422 117.185 80.0422Z" fill="#3F3D56"/>
<path d="M53.0317 77.2323H45.6112C45.4103 77.2321 45.2176 77.1521 45.0756 77.01C44.9335 76.8678 44.8535 76.6751 44.8533 76.474V66.24C44.8535 66.0389 44.9335 65.8462 45.0756 65.7041C45.2176 65.5619 45.4103 65.482 45.6112 65.4818H53.0317C53.2326 65.482 53.4253 65.5619 53.5673 65.7041C53.7094 65.8462 53.7894 66.0389 53.7896 66.24V76.474C53.7894 76.6751 53.7094 76.8678 53.5673 77.01C53.4253 77.1521 53.2326 77.2321 53.0317 77.2323Z" fill="#9B79FF"/>
<path d="M66.5638 77.2323H59.1433C58.9424 77.232 58.7498 77.1521 58.6077 77.0099C58.4656 76.8678 58.3856 76.6751 58.3854 76.474V56.533C58.3856 56.332 58.4656 56.1393 58.6077 55.9971C58.7498 55.855 58.9424 55.775 59.1433 55.7748H66.5638C66.7647 55.775 66.9574 55.855 67.0994 55.9971C67.2415 56.1393 67.3215 56.332 67.3217 56.533V76.474C67.3215 76.6751 67.2415 76.8678 67.0994 77.0099C66.9574 77.1521 66.7647 77.232 66.5638 77.2323Z" fill="#9B79FF"/>
<path d="M80.0959 77.2323H72.6755C72.4745 77.2321 72.2819 77.1521 72.1398 77.0099C71.9977 76.8678 71.9178 76.6751 71.9175 76.474V66.24C71.9178 66.0389 71.9977 65.8462 72.1398 65.7041C72.2819 65.5619 72.4745 65.482 72.6755 65.4818H80.0959C80.2969 65.482 80.4895 65.5619 80.6316 65.7041C80.7737 65.8462 80.8536 66.0389 80.8539 66.24V76.474C80.8536 76.6751 80.7737 76.8678 80.6316 77.01C80.4895 77.1521 80.2969 77.2321 80.0959 77.2323Z" fill="#9B79FF"/>
<path d="M93.6281 77.2323H86.2076C86.0113 77.2365 85.8212 77.1627 85.6792 77.027C85.5371 76.8913 85.4546 76.7048 85.4497 76.5084V52.667C85.4546 52.4705 85.5371 52.2841 85.6792 52.1484C85.8212 52.0127 86.0113 51.9389 86.2076 51.9431H93.6281C93.8244 51.9389 94.0145 52.0127 94.1565 52.1484C94.2986 52.2841 94.3811 52.4705 94.386 52.667V76.5084C94.3811 76.7048 94.2986 76.8913 94.1565 77.027C94.0145 77.1627 93.8244 77.2365 93.6281 77.2323Z" fill="#9B79FF"/>
<path d="M107.16 77.2323H99.7397C99.5388 77.2321 99.3462 77.1521 99.2041 77.01C99.062 76.8678 98.9821 76.6751 98.9818 76.474V45.8043C98.9821 45.6033 99.062 45.4105 99.2041 45.2684C99.3462 45.1263 99.5388 45.0463 99.7397 45.0461H107.16C107.361 45.0463 107.554 45.1263 107.696 45.2684C107.838 45.4105 107.918 45.6033 107.918 45.8043V76.474C107.918 76.6751 107.838 76.8678 107.696 77.01C107.554 77.1521 107.361 77.2321 107.16 77.2323Z" fill="#9B79FF"/>
<path d="M49.3215 62.4164C50.1675 62.4164 50.8534 61.7302 50.8534 60.8838C50.8534 60.0373 50.1675 59.3511 49.3215 59.3511C48.4754 59.3511 47.7895 60.0373 47.7895 60.8838C47.7895 61.7302 48.4754 62.4164 49.3215 62.4164Z" fill="#3F3D56"/>
<path d="M62.8536 52.454C63.6997 52.454 64.3856 51.7678 64.3856 50.9213C64.3856 50.0748 63.6997 49.3886 62.8536 49.3886C62.0076 49.3886 61.3217 50.0748 61.3217 50.9213C61.3217 51.7678 62.0076 52.454 62.8536 52.454Z" fill="#3F3D56"/>
<path d="M76.3857 62.4164C77.2318 62.4164 77.9176 61.7302 77.9176 60.8838C77.9176 60.0373 77.2318 59.3511 76.3857 59.3511C75.5396 59.3511 74.8538 60.0373 74.8538 60.8838C74.8538 61.7302 75.5396 62.4164 76.3857 62.4164Z" fill="#3F3D56"/>
<path d="M89.9179 47.6006C90.7639 47.6006 91.4498 46.9144 91.4498 46.0679C91.4498 45.2214 90.7639 44.5352 89.9179 44.5352C89.0718 44.5352 88.3859 45.2214 88.3859 46.0679C88.3859 46.9144 89.0718 47.6006 89.9179 47.6006Z" fill="#3F3D56"/>
<path d="M103.45 41.9807C104.296 41.9807 104.982 41.2945 104.982 40.448C104.982 39.6015 104.296 38.9153 103.45 38.9153C102.604 38.9153 101.918 39.6015 101.918 40.448C101.918 41.2945 102.604 41.9807 103.45 41.9807Z" fill="#3F3D56"/>
<path d="M76.4179 61.227L62.8537 51.0623L49.4745 61.0881L49.1685 60.6794L62.8537 50.4238L76.3534 60.5402L89.7687 45.8527L89.8223 45.8308L103.354 40.376L103.545 40.8499L90.0671 46.283L76.4179 61.227Z" fill="#3F3D56"/>
<path d="M278.704 187H165.926C165.847 187 165.772 186.969 165.716 186.913C165.661 186.858 165.63 186.782 165.63 186.704C165.63 186.625 165.661 186.55 165.716 186.494C165.772 186.439 165.847 186.408 165.926 186.408H278.704C278.782 186.408 278.858 186.439 278.913 186.494C278.969 186.55 279 186.625 279 186.704C279 186.782 278.969 186.858 278.913 186.913C278.858 186.969 278.782 187 278.704 187Z" fill="#CCCCCC"/>
</g>
</svg>
