<svg width="390" height="445" viewBox="0 0 390 445" fill="none" xmlns="http://www.w3.org/2000/svg">
<g opacity="0.5">
<path opacity="0.5" d="M114.595 309.319C101.674 300.277 90.2809 289.07 81.0266 276.15C62.6744 250.504 53.4697 219.042 55.1017 187.547C55.1426 186.722 55.8503 186.094 56.6761 186.135C57.5019 186.176 58.1434 186.881 58.1026 187.707C56.5081 218.52 65.5145 249.306 83.4685 274.405C101.42 299.489 127.652 317.956 157.326 326.393C187 334.831 219.027 332.93 247.5 321.036C275.974 309.142 299.831 287.695 314.687 260.657C315.084 259.934 315.999 259.672 316.723 260.068C317.438 260.459 317.714 261.372 317.312 262.104C302.138 289.736 277.746 311.651 248.656 323.797C219.56 335.952 186.839 337.904 156.515 329.28C141.478 325.006 127.302 318.211 114.595 309.319ZM62.1813 153.762C61.657 153.395 61.4144 152.713 61.6174 152.074C62.2676 150.063 62.9792 148.035 63.6753 146.081C70.2183 128.446 80.0532 112.577 92.9213 98.8804C93.4815 98.2716 94.431 98.2403 95.0341 98.8088C95.6371 99.3772 95.6684 100.327 95.0999 100.93C82.5103 114.333 72.8884 129.863 66.4985 147.104C65.8172 149.02 65.1088 151.026 64.4792 152.99C64.2229 153.775 63.3808 154.211 62.5902 153.963C62.4443 153.909 62.3042 153.848 62.1813 153.762ZM108.062 87.4817C107.939 87.3957 107.836 87.2991 107.744 87.186C107.226 86.5307 107.339 85.5845 107.989 85.0748C129.581 67.9988 155.495 57.7561 182.916 55.4262C210.344 53.102 237.618 58.8472 261.769 72.0373C285.934 85.2249 305.508 105.061 318.386 129.391C331.256 153.714 336.639 181.062 333.959 208.455C333.874 209.274 333.142 209.884 332.323 209.799C331.489 209.717 330.893 208.982 330.97 208.157C333.603 181.354 328.331 154.597 315.733 130.793C303.134 106.988 283.973 87.5748 260.339 74.6738C236.689 61.7613 210.012 56.1405 183.178 58.4171C156.336 60.688 130.981 70.7242 109.847 87.4249C109.319 87.8486 108.587 87.8487 108.062 87.4817Z" fill="#A6EFF4"/>
</g>
<path d="M192.098 444.333C233.369 444.333 266.825 440.497 266.825 435.766C266.825 431.035 233.369 427.201 192.098 427.201C150.827 427.201 117.37 431.035 117.37 435.766C117.37 440.497 150.827 444.333 192.098 444.333Z" fill="#E7E8EB"/>
<path d="M236.111 331.4C234.098 327.919 232.243 324.262 230.599 320.532L230.337 319.935H160.407L160.13 320.485C157.324 326.047 154.761 331.855 152.512 337.747L152.507 337.76C147.715 350.88 153.205 366.182 158.634 372.856L158.752 373.001C163.585 378.947 170.126 386.993 185.826 386.993C186.553 386.993 187.3 386.975 188.067 386.94C193.065 386.708 197.667 386.64 202.118 386.575C218.571 386.333 230.459 386.158 236.723 377.526C244.043 367.438 245.812 347.42 236.111 331.4Z" fill="#242C42"/>
<path d="M204.137 339.285H188.979V347.093H204.137V339.285Z" fill="white"/>
<path d="M204.137 348.092H188.979C188.427 348.092 187.979 347.645 187.979 347.092V339.286C187.979 338.733 188.427 338.286 188.979 338.286H204.137C204.69 338.286 205.137 338.733 205.137 339.286V347.092C205.137 347.645 204.69 348.092 204.137 348.092ZM189.979 346.092H203.137V340.286H189.979V346.092Z" fill="#242C42"/>
<path d="M189.647 386.433V366.054C189.897 366.054 190.148 365.964 190.342 365.776C190.739 365.392 190.75 364.759 190.367 364.362C176.026 349.501 149.796 341.794 136.558 339.583C124.087 337.5 100.898 324.807 100.666 324.679L100.457 324.564L100.218 324.556C99.9797 324.546 94.2897 324.407 90.2287 328.595C87.3207 331.595 86.0317 335.988 86.3987 341.651C87.3787 356.786 118.502 373.359 137.097 383.26C139.454 384.515 141.579 385.647 143.365 386.63C150.418 390.606 158.422 392.863 166.512 393.157C167.122 393.179 167.73 393.19 168.34 393.19C175.825 393.19 183.303 391.523 190.074 388.331C190.574 388.096 190.788 387.5 190.552 387C190.382 386.639 190.021 386.434 189.647 386.433Z" fill="#242C42"/>
<path d="M298.102 330.712C293.002 325.974 284.779 327.055 284.43 327.102L284.248 327.127L284.088 327.215C283.89 327.322 264.21 338.033 251.732 340.116C238.495 342.327 212.266 350.035 197.925 364.897C197.542 365.294 197.553 365.927 197.95 366.311C198.144 366.498 198.395 366.588 198.645 366.588V387.017C198.27 387.017 197.91 387.224 197.74 387.585C197.505 388.084 197.719 388.681 198.219 388.915C204.989 392.103 212.462 393.769 219.944 393.769C220.555 393.769 221.168 393.756 221.779 393.734C229.869 393.44 237.873 391.186 244.918 387.219C246.738 386.215 248.898 385.063 251.294 383.787C269.853 373.896 300.914 357.343 301.893 342.235C302.217 337.226 300.941 333.35 298.102 330.712Z" fill="#242C42"/>
<path d="M260.658 386.342L260.534 386.235C257.863 384.287 255.29 384.683 252.799 385.065C251.807 385.217 250.781 385.376 249.761 385.376C246.099 385.376 231.833 384.003 225.872 383.413C222.08 383.031 216.026 382.906 208.374 383.056L207.3 383.078L207.398 384.148C207.752 388.006 206.967 391.849 205.127 395.259L204.417 396.574L207.195 396.863C211 397.238 214.074 397.509 216.608 397.734C221.437 398.162 224.351 398.42 226.551 398.882C228.919 399.382 231.403 400.479 234.032 401.642C237.959 403.378 242.011 405.172 246.183 405.172C246.401 405.172 246.618 405.167 246.836 405.157C253.935 404.83 258.367 402.919 260.786 399.145C263.156 395.449 264.127 389.865 260.658 386.342Z" fill="#242C42"/>
<path d="M209.39 383.932L209.306 383.024H207.78C206.047 382.654 181.84 377.327 161.855 365.122C153.742 360.168 145.271 353.752 137.078 347.549C123.818 337.509 111.292 328.024 100.59 324.653C94.5498 321.157 87.9778 321.153 82.5398 324.648C76.7428 328.373 73.4498 335.225 74.1478 342.105C75.4708 355.134 85.8968 361.827 104.675 369.619C122.197 376.889 156.231 388.941 174.562 392.663C183.995 394.527 196.272 395.799 205.914 396.698L206.573 396.759L206.887 396.176C208.914 392.416 209.78 388.183 209.39 383.932Z" fill="#242C42"/>
<path d="M300.058 328.573C294.51 324.934 287.892 324.763 281.88 328.088C270.228 331.905 257.929 341.309 244.908 351.262C236.943 357.351 228.709 363.646 220.612 368.573C200.612 380.745 176.409 386.118 174.667 386.494H173.16L173.076 387.401C172.68 391.65 173.541 395.884 175.562 399.645L175.876 400.229L176.536 400.166C186.85 399.194 198.644 397.942 207.909 396.029C226.466 392.248 260.576 380.035 277.787 372.972C296.576 365.261 307.006 358.605 308.317 345.539C308.978 338.956 305.736 332.296 300.058 328.573Z" fill="#242C42"/>
<path d="M174.071 387.527C174.071 387.527 149.715 388.478 141.986 387.944C134.257 387.411 128.397 383.674 126.277 385.542C124.157 387.411 126.811 390.33 126.811 390.33C126.811 390.33 126.01 394.85 128.147 397.252C130.283 399.655 133.155 401.773 142.253 404.442C151.351 407.111 160.616 403.341 165.624 402.007L176.392 399.171C176.392 399.171 173.921 395.351 174.071 387.527Z" fill="white"/>
<path d="M177.234 398.632C177.211 398.595 174.93 394.912 175.071 387.547L175.091 386.486L174.032 386.528C173.789 386.537 149.643 387.472 142.055 386.946C138.663 386.713 135.574 385.822 133.092 385.107C129.665 384.121 127.187 383.404 125.616 384.792C123.149 386.967 124.456 392.113 124.672 392.891C124.754 393.303 125.277 395.53 127.4 397.916C129.844 400.666 133.011 402.772 141.971 405.401C144.351 406.099 146.736 406.375 149.051 406.375C154.513 406.375 159.595 404.843 163.334 403.715C164.272 403.433 165.125 403.174 165.879 402.973L177.967 399.786L177.234 398.632Z" fill="#242C42"/>
<path d="M183.685 383.917C183.294 383.917 182.923 383.686 182.762 383.303C182.549 382.793 182.789 382.208 183.298 381.995C183.821 381.775 235.822 359.922 256.907 347.127C257.381 346.841 257.995 346.99 258.28 347.463C258.567 347.935 258.417 348.55 257.944 348.836C236.732 361.708 184.595 383.619 184.071 383.839C183.945 383.893 183.814 383.917 183.685 383.917Z" fill="white"/>
<path d="M197.026 381.671C196.943 381.671 196.858 381.661 196.774 381.639C172.377 375.313 130.166 346.343 128.381 345.113C127.926 344.8 127.812 344.177 128.125 343.722C128.439 343.268 129.061 343.154 129.516 343.466C129.951 343.765 173.222 373.467 197.276 379.704C197.811 379.843 198.133 380.388 197.994 380.922C197.877 381.372 197.471 381.671 197.026 381.671Z" fill="white"/>
<path d="M172.731 224.461C172.731 224.461 154.703 225.128 148.247 228.601C141.792 232.075 140.218 253.219 140.218 253.219L120.333 293.978C120.333 293.978 69.4389 257.163 65.1117 253.5C60.7844 249.836 59.6329 247.014 55.2589 244.133C50.8848 241.254 49.3148 241.243 43.7237 241.145C38.1325 241.047 37.3166 241.832 37.6896 243.424C38.0627 245.016 40.0581 245.468 41.6438 245.496C43.3941 245.666 45.1301 245.964 46.8369 246.388L30.7351 252.494C26.7178 254.009 27.631 247.635 24.0426 247.572C20.4541 247.509 20.6764 256.705 26.5914 261.198C32.5063 265.689 36.5498 264.559 41.3141 264.242C46.0784 263.926 57.3395 262.539 57.3395 262.539C57.3395 262.539 87.6075 290.216 98.6153 300.386C109.623 310.557 124.627 320.397 130.289 316.51C135.951 312.622 157.753 273.881 157.753 273.881L171.955 238.212C171.955 238.212 175.876 230.739 172.731 224.461Z" fill="white"/>
<path d="M172.731 224.461C172.731 224.461 154.703 225.128 148.247 228.601C141.792 232.075 140.218 253.219 140.218 253.219L120.333 293.978C120.333 293.978 69.4389 257.163 65.1117 253.5C60.7844 249.836 59.6329 247.014 55.2589 244.133C50.8848 241.254 49.3148 241.243 43.7237 241.145C38.1325 241.047 37.3166 241.832 37.6896 243.424C38.0627 245.016 40.0581 245.468 41.6438 245.496C43.3941 245.666 45.1301 245.964 46.8369 246.388L30.7351 252.494C26.7178 254.009 27.631 247.635 24.0426 247.572C20.4541 247.509 20.6764 256.705 26.5914 261.198C32.5063 265.689 36.5498 264.559 41.3141 264.242C46.0784 263.926 57.3395 262.539 57.3395 262.539C57.3395 262.539 87.6075 290.216 98.6153 300.386C109.623 310.557 124.627 320.397 130.289 316.51C135.951 312.622 157.753 273.881 157.753 273.881L171.955 238.212C171.955 238.212 175.876 230.739 172.731 224.461Z" fill="#E5E5E5"/>
<path d="M126.909 318.376C118.76 318.232 105.485 308.094 97.9373 301.121C87.6843 291.648 60.3704 266.666 57.004 263.587C54.8391 263.85 45.5711 264.961 41.3806 265.238C40.7617 265.281 40.1557 265.336 39.5556 265.39C35.5626 265.753 31.4333 266.13 25.9872 261.994C21.1077 258.287 19.9841 252.052 21.0504 248.976C21.5888 247.424 22.6854 246.547 24.0602 246.571C26.3268 246.611 27.2719 248.489 27.9619 249.86C28.8568 251.638 29.1874 252.007 30.3824 251.558L43.211 246.693C42.6573 246.612 42.1014 246.545 41.5473 246.492C41.5433 246.491 41.5393 246.491 41.5353 246.491C38.9117 246.445 37.1276 245.409 36.7165 243.652C36.6383 243.318 36.4001 242.302 37.079 241.462C37.9113 240.431 39.7179 240.073 43.7422 240.144L43.8432 240.146C49.3313 240.243 51.2191 240.276 55.8086 243.298C58.3971 245.003 59.9056 246.688 61.5025 248.473C62.6992 249.811 63.937 251.194 65.7582 252.736C69.6794 256.056 112.913 287.373 119.956 292.471L139.258 252.906C139.606 250.948 143.039 232.562 149.621 229.02C156.168 225.499 171.942 223.549 172.61 223.468L173.309 223.383L173.625 224.013C176.861 230.471 173.243 237.889 172.866 238.627L158.624 274.372C157.729 275.962 136.642 313.36 130.854 317.334C129.763 318.084 128.425 318.401 126.909 318.376ZM57.674 261.489L58.0146 261.8C58.3178 262.077 88.4105 289.596 99.2943 299.652C110.408 309.92 124.849 319.029 129.722 315.685C134.202 312.609 150.788 284.213 156.848 273.449L171.069 237.747C171.104 237.68 174.449 231.151 172.129 225.548C168.934 225.976 156.021 227.849 150.568 230.782C145.624 233.443 142.131 248.003 141.203 253.388L141.117 253.657L120.711 295.485L119.747 294.788C117.668 293.284 68.7727 257.908 64.4661 254.263C62.5395 252.632 61.2546 251.196 60.0118 249.807C58.4385 248.048 57.08 246.53 54.7091 244.968C50.604 242.265 49.2779 242.261 43.808 242.146L43.7071 242.144C39.6057 242.072 38.7937 242.521 38.6352 242.718C38.6117 242.747 38.5903 242.883 38.6638 243.196C38.8796 244.119 40.3536 244.473 41.6614 244.496C43.5315 244.675 45.3284 244.983 47.079 245.417L50.186 246.186L31.0896 253.429C28.0903 254.56 26.9373 252.272 26.1758 250.759C25.4984 249.414 25.0318 248.588 24.025 248.571C23.5511 248.562 23.1857 248.919 22.9392 249.631C22.0762 252.122 23.2782 257.425 27.1964 260.401C32.0247 264.068 35.4297 263.759 39.3736 263.399C39.9897 263.344 40.6118 263.287 41.2476 263.244C45.9298 262.933 57.1047 261.56 57.2169 261.546L57.674 261.489Z" fill="#242C42"/>
<path d="M27.7276 262.102C27.7276 262.102 20.0607 255.66 24.3586 249.563C25.4204 248.047 27.6833 250.405 28.2769 254.637C28.8706 258.869 30.9446 260.54 32.0241 260.859" fill="white"/>
<path d="M27.7276 262.102C27.7276 262.102 20.0607 255.66 24.3586 249.563C25.4204 248.047 27.6833 250.405 28.2769 254.637C28.8706 258.869 30.9446 260.54 32.0241 260.859" fill="#242C42"/>
<path d="M27.71 263.102C27.489 263.098 27.2674 263.021 27.085 262.868C24.1894 260.435 19.7227 254.404 23.5416 248.987C24.0382 248.277 24.8157 247.967 25.6115 248.159C27.2976 248.563 28.801 251.171 29.2675 254.499C29.8078 258.353 31.6444 259.704 32.307 259.9C32.8374 260.056 33.1396 260.613 32.9833 261.142C32.8269 261.672 32.2705 261.975 31.7412 261.818C30.0726 261.326 27.9059 259.185 27.2874 254.776C26.8537 251.684 25.5573 250.159 25.1382 250.102C21.4623 255.408 28.0893 261.097 28.3731 261.337C28.795 261.693 28.8478 262.325 28.4924 262.746C28.2911 262.986 28.001 263.107 27.71 263.102Z" fill="#242C42"/>
<path d="M33.561 260.819C31.7083 260.787 31.8963 255.785 28.4498 253.338C25.7135 251.339 25.996 255.18 26.592 258.311C26.8245 259.595 27.4388 260.779 28.3545 261.709C29.2703 262.638 30.4454 263.271 31.7262 263.523C32.9167 263.843 34.1596 263.916 35.379 263.738" fill="white"/>
<path d="M33.561 260.819C31.7083 260.787 31.8963 255.785 28.4498 253.338C25.7135 251.339 25.996 255.18 26.592 258.311C26.8245 259.595 27.4388 260.779 28.3545 261.709C29.2703 262.638 30.4454 263.271 31.7262 263.523C32.9167 263.843 34.1596 263.916 35.379 263.738" fill="#242C42"/>
<path d="M33.8916 264.833C33.0767 264.818 32.2666 264.703 31.4672 264.488C30.0509 264.212 28.7044 263.488 27.6422 262.41C26.58 261.332 25.8777 259.976 25.6088 258.489C24.9011 254.77 25.0991 252.781 26.2551 252.051C27.0127 251.573 27.95 251.734 29.0402 252.53C31.1264 254.011 32.0194 256.298 32.6711 257.968C32.9391 258.655 33.3448 259.694 33.5986 259.825C34.1505 259.835 34.5806 260.287 34.5709 260.839C34.5612 261.391 34.0954 261.829 33.5435 261.819C32.0167 261.792 31.4301 260.288 30.808 258.696C30.2166 257.181 29.4796 255.297 27.8704 254.153C27.6058 253.96 27.4264 253.869 27.3181 253.825C27.2084 254.152 27.0206 255.215 27.5745 258.125C27.7733 259.223 28.2889 260.217 29.0671 261.007C29.8453 261.797 30.8321 262.328 31.9195 262.542C33.0524 262.843 34.1464 262.908 35.2344 262.748C35.7809 262.667 36.2893 263.047 36.3697 263.593C36.4501 264.14 36.0712 264.647 35.5247 264.726C34.9802 264.807 34.4345 264.842 33.8916 264.833Z" fill="#242C42"/>
<path d="M57.1389 253.076C57.1389 253.076 54.5508 251.178 49.4297 252.79C44.3086 254.401 38.1705 261.684 36.7956 261.043C35.5129 260.279 34.5498 259.076 34.0837 257.659C33.3258 256.11 31.8461 253.865 30.7798 255.632C28.4075 259.494 34.6055 264.041 34.6055 264.041C34.6055 264.041 35.4605 264.79 40.328 264.292C45.1955 263.793 56.1888 262.451 56.1888 262.451" fill="white"/>
<path d="M57.1389 253.076C57.1389 253.076 54.5508 251.178 49.4297 252.79C44.3086 254.401 38.1705 261.684 36.7956 261.043C35.5129 260.279 34.5498 259.076 34.0837 257.659C33.3258 256.11 31.8461 253.865 30.7798 255.632C28.4075 259.494 34.6055 264.041 34.6055 264.041C34.6055 264.041 35.4605 264.79 40.328 264.292C45.1955 263.793 56.1888 262.451 56.1888 262.451" fill="#E5E5E5"/>
<path d="M37.053 265.461C35.0423 265.426 34.2536 265.063 33.9463 264.793C33.731 264.639 27.1067 259.704 29.928 255.109C30.542 254.091 31.3234 253.958 31.754 253.986C32.8703 254.036 33.9573 255.123 34.9826 257.22L35.0334 257.347C35.397 258.453 36.1204 259.402 37.0863 260.045C37.6988 259.795 39.1817 258.562 40.3906 257.556C42.9474 255.429 46.1294 252.781 49.1295 251.837C54.669 250.092 57.6077 252.181 57.7302 252.27C58.1755 252.597 58.2715 253.223 57.9456 253.668C57.6218 254.109 57.001 254.208 56.5555 253.889C56.4459 253.813 54.2156 252.331 49.73 253.744C47.1061 254.57 44.0915 257.078 41.6697 259.094C38.9383 261.366 37.565 262.508 36.3727 261.95L36.2835 261.902C34.8147 261.026 33.7066 259.658 33.1569 258.041C32.5301 256.776 31.9754 256.181 31.7232 256.022C31.6997 256.051 31.6699 256.092 31.6359 256.149C29.8629 259.035 34.7814 262.915 35.1732 263.217C35.332 263.286 36.4402 263.684 40.2265 263.298C45.0279 262.806 55.9581 261.472 56.0673 261.459C56.6066 261.39 57.1138 261.781 57.1812 262.33C57.2486 262.878 56.8587 263.376 56.3105 263.444C56.2002 263.458 45.251 264.792 40.4296 265.287C39.0319 265.429 37.9269 265.477 37.053 265.461ZM35.1821 263.223C35.191 263.23 35.1969 263.234 35.1979 263.235C35.1979 263.233 35.191 263.228 35.1821 263.223Z" fill="#242C42"/>
<path d="M115.172 316.878L119.8 291.1L134.859 263.002L146.787 228.175L155.893 232.506L157.561 280.085L131.733 319.333C131.275 320.03 130.431 320.369 129.617 320.183L115.172 316.878Z" fill="#9B79FF"/>
<path d="M130.004 321.232C129.801 321.228 129.597 321.205 129.394 321.158L114.949 317.852C114.429 317.734 114.093 317.226 114.187 316.701L118.815 290.923C118.834 290.82 118.868 290.72 118.918 290.627L133.939 262.601L145.839 227.852C145.931 227.582 146.134 227.364 146.397 227.253C146.66 227.142 146.957 227.148 147.215 227.272L156.322 231.603C156.659 231.763 156.878 232.098 156.892 232.471L158.559 280.048C158.567 280.256 158.509 280.46 158.395 280.634L132.568 319.883C131.998 320.75 131.017 321.25 130.004 321.232ZM116.324 316.115L129.84 319.208C130.241 319.303 130.67 319.13 130.898 318.783L156.549 279.8L154.914 233.148L147.367 229.56L135.805 263.326C135.787 263.377 135.765 263.426 135.74 263.474L120.755 291.431L116.324 316.115Z" fill="#242C42"/>
<path d="M120.532 292.227L116.252 318.375C116.122 319.165 115.163 319.49 114.579 318.942L105.678 310.575C105.425 310.338 105.315 309.986 105.384 309.646L110.416 285.071C110.568 284.33 111.455 284.019 112.036 284.503L120.185 291.297C120.458 291.524 120.589 291.878 120.532 292.227Z" fill="white"/>
<path d="M115.228 320.214C114.739 320.205 114.262 320.019 113.894 319.671L104.993 311.304C104.485 310.825 104.264 310.132 104.403 309.448L109.437 284.87C109.579 284.175 110.064 283.618 110.735 283.384C111.403 283.148 112.13 283.28 112.676 283.736L120.825 290.53C121.367 290.982 121.633 291.694 121.52 292.387L121.52 292.388L117.238 318.538C117.118 319.268 116.608 319.87 115.907 320.108C115.685 320.184 115.455 320.218 115.228 320.214ZM111.395 285.272L106.362 309.847L115.263 318.214L119.545 292.066L111.395 285.272ZM119.545 292.065L119.545 292.064L119.545 292.065Z" fill="#242C42"/>
<path d="M219.143 222.487C219.143 222.487 238.145 223.505 244.602 227.045C251.059 230.585 252.632 251.663 252.632 251.663L272.516 292.422C272.516 292.422 323.411 255.607 327.738 251.943C332.064 248.281 333.217 245.457 337.591 242.577C341.965 239.697 343.534 239.687 349.126 239.588C354.717 239.49 355.532 240.277 355.16 241.867C354.787 243.459 352.792 243.911 351.189 243.94C349.445 244.111 347.714 244.41 346.013 244.832L362.099 250.939C366.132 252.453 365.219 246.079 368.807 246.016C372.396 245.953 372.173 255.149 366.258 259.641C360.343 264.133 356.3 263.003 351.519 262.687C346.738 262.371 335.51 260.983 335.51 260.983C335.51 260.983 305.242 288.659 294.234 298.831C283.226 309.001 268.223 318.841 262.561 314.953C256.9 311.065 235.097 272.326 235.097 272.326L220.896 236.655C220.896 236.655 216.015 228.766 219.143 222.487Z" fill="white"/>
<path d="M219.143 222.487C219.143 222.487 238.145 223.505 244.602 227.045C251.059 230.585 252.632 251.663 252.632 251.663L272.516 292.422C272.516 292.422 323.411 255.607 327.738 251.943C332.064 248.281 333.217 245.457 337.591 242.577C341.965 239.697 343.534 239.687 349.126 239.588C354.717 239.49 355.532 240.277 355.16 241.867C354.787 243.459 352.792 243.911 351.189 243.94C349.445 244.111 347.714 244.41 346.013 244.832L362.099 250.939C366.132 252.453 365.219 246.079 368.807 246.016C372.396 245.953 372.173 255.149 366.258 259.641C360.343 264.133 356.3 263.003 351.519 262.687C346.738 262.371 335.51 260.983 335.51 260.983C335.51 260.983 305.242 288.659 294.234 298.831C283.226 309.001 268.223 318.841 262.561 314.953C256.9 311.065 235.097 272.326 235.097 272.326L220.896 236.655C220.896 236.655 216.015 228.766 219.143 222.487Z" fill="#E5E5E5"/>
<path d="M265.94 316.821C264.424 316.848 263.086 316.528 261.994 315.778C256.208 311.804 235.121 274.406 234.226 272.816L234.167 272.696L219.997 237.103C219.45 236.188 215.046 228.472 218.248 222.043L218.484 221.57L219.007 221.498C219.576 221.421 233.003 219.637 239.673 223.294C246.284 226.92 253.035 249.492 253.568 251.301L272.893 290.914C279.935 285.816 323.17 254.5 327.091 251.18C328.913 249.639 330.15 248.255 331.347 246.917C332.944 245.133 334.452 243.447 337.04 241.743C341.605 238.736 343.47 238.687 348.92 238.592C353.107 238.54 354.932 238.868 355.771 239.906C356.449 240.748 356.211 241.763 356.133 242.097C355.721 243.856 353.926 244.892 351.206 244.939C350.688 244.992 350.161 245.058 349.631 245.136L362.453 250.004C363.656 250.458 363.988 250.085 364.889 248.299C365.58 246.931 366.526 245.056 368.79 245.016C370.164 244.992 371.262 245.869 371.8 247.422C372.867 250.497 371.743 256.732 366.863 260.437C361.42 264.572 357.287 264.196 353.29 263.836C352.686 263.781 352.076 263.727 351.453 263.685C347.25 263.408 338.008 262.295 335.846 262.032C332.479 265.112 305.166 290.092 294.913 299.565C287.366 306.539 274.091 316.677 265.94 316.821ZM236.002 271.894C242.062 282.658 258.648 311.053 263.127 314.129C267.992 317.473 282.442 308.364 293.555 298.096C304.44 288.04 334.532 260.522 334.835 260.246L335.176 259.935L335.633 259.991C335.745 260.005 346.888 261.379 351.584 261.689C352.224 261.732 352.851 261.788 353.47 261.844C357.417 262.2 360.827 262.51 365.653 258.844C369.572 255.87 370.772 250.568 369.91 248.077C369.664 247.365 369.299 247.008 368.825 247.016C367.819 247.034 367.351 247.858 366.674 249.201C365.908 250.716 364.759 253.006 361.747 251.875L342.666 244.632L345.772 243.862C347.516 243.429 349.305 243.121 351.091 242.945C352.487 242.918 353.97 242.563 354.186 241.64C354.259 241.326 354.238 241.192 354.215 241.163C354.056 240.966 353.243 240.516 349.143 240.588C349.111 240.589 349.079 240.589 349.048 240.59C343.535 240.687 342.223 240.725 338.141 243.413C335.77 244.974 334.411 246.493 332.838 248.251C331.595 249.639 330.311 251.076 328.385 252.707C324.077 256.353 275.181 291.729 273.102 293.232L272.139 293.928L251.672 251.943C249.762 245.391 243.708 227.788 238.711 225.049C233.32 222.092 222.369 223.124 219.817 223.414C217.446 229.038 221.702 236.057 221.748 236.13L221.825 236.285L236.002 271.894Z" fill="#242C42"/>
<path d="M367.001 258.177C367.001 258.177 370.173 248.694 368.49 247.94C366.807 247.185 365.165 248.782 364.572 253.014C363.979 257.246 361.905 258.916 360.824 259.236" fill="white"/>
<path d="M369.251 256.102C369.251 256.102 370.206 248.694 368.49 247.94C366.773 247.186 365.166 248.782 364.572 253.014C363.979 257.246 361.905 258.916 360.824 259.236" fill="#242C42"/>
<path d="M360.841 260.237C360.403 260.245 359.997 259.961 359.866 259.52C359.71 258.991 360.012 258.434 360.541 258.277C361.204 258.082 363.043 256.728 363.583 252.875C364.002 249.878 364.964 247.884 366.366 247.109C367.15 246.675 368.049 246.646 368.899 247.028C369.52 247.306 371.41 248.152 367.948 258.494C367.773 259.017 367.209 259.303 366.683 259.125C366.159 258.951 365.876 258.384 366.052 257.86C367.405 253.816 368.239 249.772 367.937 248.799C367.658 248.715 367.471 248.784 367.334 248.859C367.037 249.024 366.029 249.819 365.562 253.153C364.945 257.561 362.777 259.702 361.108 260.196C361.02 260.221 360.93 260.236 360.841 260.237Z" fill="#242C42"/>
<path d="M364.494 259.906C364.494 259.906 368.49 247.94 363.672 251.178C360.124 253.56 361.141 259.164 359.288 259.196" fill="white"/>
<path d="M365.464 260.022C365.464 260.022 368.49 247.94 363.638 251.179C360.09 253.56 361.107 259.164 359.254 259.197" fill="#242C42"/>
<path d="M364.512 260.906C364.402 260.908 364.289 260.891 364.178 260.854C363.654 260.679 363.37 260.114 363.546 259.59C364.69 256.16 365.33 252.486 364.951 251.638C364.838 251.668 364.608 251.754 364.231 252.007C362.569 253.123 362.073 255.216 361.674 256.896C361.293 258.505 360.898 260.168 359.306 260.196C358.753 260.206 358.298 259.766 358.289 259.214C358.279 258.692 358.672 258.256 359.181 258.202C359.369 257.944 359.576 257.077 359.729 256.434C360.182 254.52 360.803 251.9 363.115 250.348C364.352 249.515 365.368 249.395 366.14 249.984C368.028 251.421 366.514 257.015 365.442 260.222C365.305 260.635 364.924 260.899 364.512 260.906Z" fill="#242C42"/>
<path d="M335.677 251.454C335.677 251.454 338.265 249.556 343.386 251.168C348.506 252.779 354.645 260.062 356.02 259.421C357.303 258.656 358.266 257.454 358.732 256.036C359.473 254.488 360.858 253.546 361.808 255.365C362.759 257.183 360.083 262.653 360.083 262.653C360.083 262.653 358.435 263.866 354.329 262.987C349.693 261.959 344.988 261.266 340.251 260.916" fill="white"/>
<path d="M336.078 252.177C336.078 252.177 338.666 250.28 343.787 251.891C348.908 253.503 355.047 260.785 356.421 260.144C357.703 259.379 358.667 258.178 359.134 256.76C359.873 255.212 361.26 254.27 362.21 256.089C363.16 257.907 360.485 263.376 360.485 263.376C360.485 263.376 358.836 264.59 354.73 263.711C350.624 262.832 342.571 260.388 340.05 260.432" fill="#E5E5E5"/>
<path d="M357.292 264.305C356.422 264.321 355.37 264.233 354.119 263.966C349.536 262.95 344.847 262.259 340.176 261.913C339.625 261.873 339.212 261.393 339.252 260.842C339.294 260.292 339.77 259.881 340.324 259.919C345.09 260.272 349.875 260.975 354.545 262.011C357.341 262.608 358.828 262.146 359.321 261.929C360.443 259.55 361.332 256.614 360.921 255.828C360.744 255.49 360.598 255.38 360.56 255.368C360.464 255.372 360.044 255.638 359.66 256.415C359.11 258.034 358 259.405 356.531 260.281L356.443 260.328C355.243 260.887 353.874 259.743 351.145 257.471C348.723 255.456 345.709 252.948 343.085 252.122C338.582 250.703 336.351 252.204 336.258 252.267C335.81 252.579 335.186 252.477 334.869 252.032C334.55 251.586 334.644 250.972 335.085 250.648C335.208 250.559 338.144 248.47 343.686 250.214C346.685 251.159 349.867 253.807 352.424 255.935C353.633 256.94 355.116 258.173 355.728 258.423C356.694 257.78 357.418 256.83 357.782 255.723L357.829 255.605C358.491 254.223 359.502 253.388 360.533 253.37C361.037 253.361 361.986 253.548 362.694 254.902C363.794 257.005 361.662 261.703 360.982 263.093L360.874 263.314L360.676 263.459C360.528 263.567 359.494 264.267 357.292 264.305Z" fill="#242C42"/>
<path d="M275.977 314.45L271.753 288.665L258.102 260.543L244.184 223.249L239.053 230.012L237.627 277.587L260.951 316.759C261.404 317.518 262.301 317.89 263.158 317.675L275.977 314.45Z" fill="#9B79FF"/>
<path d="M262.732 318.734C261.673 318.752 260.648 318.203 260.092 317.27L236.768 278.098C236.67 277.935 236.622 277.747 236.627 277.556L238.053 229.983C238.059 229.775 238.131 229.574 238.256 229.408L243.388 222.645C243.609 222.354 243.963 222.207 244.33 222.26C244.69 222.314 244.994 222.558 245.122 222.9L259.039 260.194L272.653 288.23C272.695 288.317 272.724 288.408 272.739 288.504L276.964 314.289C277.048 314.802 276.725 315.294 276.22 315.42L263.401 318.645C263.179 318.701 262.955 318.73 262.732 318.734ZM238.636 277.326L261.811 316.248C262.035 316.625 262.49 316.811 262.914 316.705L274.842 313.704L270.789 288.971L257.203 260.98L243.882 225.301L240.043 230.362L238.636 277.326Z" fill="#242C42"/>
<path d="M271.088 289.751L274.982 315.788C275.104 316.609 276.116 316.932 276.691 316.333L284.552 308.153C284.776 307.92 284.873 307.595 284.814 307.278L280.245 282.791C280.1 282.019 279.162 281.707 278.584 282.24L271.399 288.869C271.156 289.093 271.038 289.424 271.088 289.751Z" fill="white"/>
<path d="M276.011 317.641C275.795 317.645 275.577 317.614 275.364 317.545C274.63 317.312 274.105 316.695 273.992 315.935L270.1 289.9C269.999 289.245 270.23 288.585 270.719 288.134L277.906 281.504C278.442 281.012 279.2 280.847 279.892 281.076C280.582 281.305 281.094 281.891 281.228 282.606L285.797 307.094C285.914 307.727 285.718 308.381 285.274 308.845L277.413 317.025C277.036 317.418 276.532 317.632 276.011 317.641ZM272.077 289.603L275.97 315.639L283.831 307.461L279.261 282.973L272.076 289.605L272.077 289.603Z" fill="#242C42"/>
<path d="M181.586 215.286L148.12 228.372C148.12 228.372 157.505 286.137 157.869 296.707C158.233 307.277 151.722 336.29 153.963 339.285C156.204 342.28 165.755 341.721 165.755 341.721L240.22 340.149C240.902 340.134 241.379 339.456 241.173 338.805C240.49 336.642 239.069 331.805 237.432 324.272C236.123 318.456 239.308 275.712 240.079 265.956C240.85 256.2 245.332 223.196 245.332 223.196C245.332 223.196 217.555 215.33 210.047 214.196C202.539 213.062 187.13 211.564 181.586 215.286Z" fill="#9B79FF"/>
<path d="M163.851 342.771C160.773 342.771 155.055 342.413 153.163 339.884C151.838 338.113 152.57 331.981 154.556 318.414C155.774 310.095 157.034 301.491 156.87 296.741C156.513 286.354 147.227 229.109 147.133 228.532C147.058 228.067 147.317 227.612 147.756 227.441L181.123 214.394C187.578 210.194 204.991 212.421 210.196 213.207C217.681 214.338 244.467 221.912 245.604 222.234C246.083 222.37 246.389 222.837 246.323 223.331C246.278 223.661 241.837 256.418 241.076 266.035C239.663 283.925 237.287 319.073 238.408 324.052C240.028 331.509 241.434 336.307 242.127 338.504C242.321 339.119 242.217 339.776 241.839 340.303C241.464 340.826 240.882 341.135 240.242 341.149L165.776 342.721C165.537 342.735 164.827 342.771 163.851 342.771ZM149.236 229.009C150.413 236.284 158.526 286.712 158.869 296.673C159.039 301.603 157.766 310.297 156.535 318.704C155.385 326.56 153.809 337.321 154.765 338.687C156.162 340.555 162.211 340.927 165.697 340.723L240.199 339.149C239.515 336.877 238.091 332.011 236.455 324.484C234.99 317.978 238.914 268.002 239.082 265.877C239.777 257.088 243.514 229.194 244.225 223.923C239.539 222.607 216.531 216.187 209.897 215.185C199.491 213.613 186.735 213.033 182.144 216.116C182.083 216.157 182.019 216.191 181.951 216.217L149.236 229.009ZM181.586 215.286H181.596H181.586Z" fill="#242C42"/>
<path d="M162.445 336.178C162.145 336.178 161.848 336.044 161.651 335.787C161.315 335.349 161.398 334.721 161.836 334.385L194.385 309.407C194.823 309.07 195.451 309.153 195.787 309.591C196.123 310.029 196.04 310.657 195.602 310.993L163.053 335.971C162.871 336.111 162.657 336.178 162.445 336.178Z" fill="#242C42"/>
<path d="M178.421 317.713C178.145 317.713 177.872 317.6 177.674 317.378C177.307 316.965 177.343 316.333 177.756 315.966L200.73 295.522C201.142 295.154 201.775 295.192 202.142 295.604C202.509 296.017 202.472 296.65 202.06 297.017L179.085 317.46C178.895 317.63 178.657 317.713 178.421 317.713Z" fill="#242C42"/>
<path d="M186.759 205.835C186.759 205.835 179.818 207.915 178.436 209.296C177.054 210.677 176.006 218.019 174.609 221.77C173.212 225.521 168.716 232.166 170.113 232.515C171.51 232.864 183.281 226.961 183.281 226.961L196.813 242.286L209.647 226.291C209.647 226.291 219.701 233.911 220.385 232.864C221.069 231.817 215.874 219.356 215.539 214.166C215.205 208.975 207.551 207.231 203.055 206.897C198.559 206.562 186.759 205.835 186.759 205.835Z" fill="white"/>
<path d="M196.813 243.287C196.526 243.287 196.253 243.164 196.063 242.949L183.04 228.2C177.648 230.884 171.257 233.835 169.87 233.486C169.471 233.386 169.146 233.114 168.979 232.739C168.521 231.711 169.248 230.164 171.285 226.327C172.209 224.586 173.164 222.785 173.672 221.422C174.219 219.952 174.725 217.851 175.214 215.818C176.141 211.967 176.758 209.558 177.728 208.589C179.214 207.105 185.273 205.236 186.472 204.877C186.585 204.843 186.702 204.829 186.82 204.837C186.938 204.844 198.678 205.568 203.129 205.9C209.386 206.364 216.193 208.765 216.537 214.104C216.708 216.75 218.283 221.628 219.549 225.548C221.403 231.291 221.752 232.6 221.222 233.411C221.038 233.693 220.746 233.881 220.398 233.941C219.211 234.165 215.645 232.043 209.819 227.675L197.593 242.913C197.408 243.143 197.131 243.279 196.836 243.286C196.828 243.286 196.821 243.287 196.813 243.287ZM183.28 225.961C183.56 225.961 183.835 226.079 184.03 226.299L196.776 240.734L208.866 225.667C209.204 225.246 209.818 225.167 210.25 225.496C213.538 227.987 217.461 230.688 219.299 231.625C218.99 230.327 218.261 228.07 217.645 226.162C216.278 221.927 214.728 217.128 214.541 214.232C214.197 208.882 204.127 207.98 202.98 207.895C198.843 207.587 188.375 206.938 186.876 206.845C184.092 207.69 179.955 209.192 179.142 210.004C178.522 210.624 177.734 213.896 177.159 216.286C176.656 218.376 176.135 220.538 175.546 222.121C174.992 223.608 174.005 225.467 173.051 227.265C172.366 228.555 171.411 230.355 171.022 231.392C172.979 230.773 178.209 228.385 182.832 226.067C182.975 225.996 183.128 225.961 183.28 225.961ZM170.847 232.072H170.857H170.847Z" fill="#242C42"/>
<path d="M181.7 183.833V207.087L196.207 233.776L210.047 206.753V182.482L181.7 183.833Z" fill="#E5E5E5"/>
<path d="M196.208 234.776C195.842 234.776 195.504 234.575 195.329 234.253L180.822 207.564C180.742 207.418 180.7 207.254 180.7 207.087V183.833C180.7 183.299 181.12 182.859 181.653 182.834L210 181.483C210.291 181.476 210.54 181.57 210.738 181.758C210.935 181.946 211.048 182.209 211.048 182.482V206.753C211.048 206.912 211.009 207.068 210.937 207.209L197.098 234.232C196.929 234.562 196.591 234.772 196.22 234.776C196.216 234.776 196.212 234.776 196.208 234.776ZM182.7 206.832L196.181 231.634L209.048 206.511V183.531L182.7 184.786V206.832Z" fill="#242C42"/>
<path d="M166.55 174.725L167.653 174.621L167.655 174.471L166.55 174.725Z" fill="#242C42"/>
<path d="M174.744 166.494C174.744 166.494 167.508 158.545 164.812 163.942C162.116 169.339 168.256 179.115 170.641 181.586C173.026 184.056 175.872 179.215 175.872 179.215" fill="#E5E5E5"/>
<path d="M172.096 183.287C171.475 183.28 170.683 183.068 169.921 182.28C167.774 180.055 160.815 169.705 163.917 163.495C164.79 161.747 166.064 161.228 166.977 161.102C170.61 160.607 174.995 165.284 175.483 165.82C175.854 166.228 175.825 166.861 175.417 167.233C175.01 167.604 174.377 167.575 174.005 167.167C172.432 165.443 169.209 162.817 167.251 163.083C166.839 163.14 166.232 163.339 165.707 164.389C163.431 168.945 168.701 178.137 171.359 180.891C171.739 181.284 172.025 181.306 172.23 181.281C173.251 181.161 174.544 179.495 175.01 178.707C175.291 178.232 175.904 178.074 176.379 178.354C176.855 178.634 177.013 179.246 176.733 179.722C176.537 180.056 174.748 182.996 172.468 183.267C172.353 183.28 172.228 183.288 172.096 183.287Z" fill="#242C42"/>
<path d="M220.093 166.902C220.093 166.902 227.689 159.269 230.128 164.774C232.566 170.28 226.008 179.796 223.519 182.144C221.03 184.492 218.481 179.54 218.481 179.54" fill="#E5E5E5"/>
<path d="M222.068 183.775C221.906 183.773 221.755 183.757 221.619 183.734C219.376 183.351 217.768 180.339 217.592 179.997C217.339 179.507 217.532 178.906 218.021 178.652C218.511 178.398 219.114 178.591 219.37 179.081C219.785 179.883 220.966 181.594 221.959 181.763C222.155 181.795 222.437 181.789 222.833 181.416C225.063 179.314 231.411 170.14 229.214 165.179C228.741 164.112 228.148 163.888 227.742 163.814C225.551 163.41 221.91 166.494 220.803 167.606C220.413 167.998 219.78 167.999 219.389 167.61C218.997 167.221 218.996 166.588 219.385 166.196C219.898 165.681 224.503 161.182 228.105 161.847C229.009 162.014 230.253 162.588 231.043 164.369C233.825 170.651 226.363 180.835 224.205 182.87C223.44 183.591 222.674 183.782 222.068 183.775Z" fill="#242C42"/>
<path d="M222.312 162.314C222.105 181.382 210.595 207.541 196.75 207.39C182.906 207.24 171.968 180.837 172.175 161.768C172.383 142.699 183.775 127.376 197.619 127.527C211.464 127.678 222.52 143.245 222.312 162.314Z" fill="#E5E5E5"/>
<path d="M196.74 208.39C189.985 208.317 183.435 202.537 178.297 192.115C173.8 182.995 171.071 171.363 171.175 161.757C171.389 142.175 183.256 126.371 197.63 126.527C212.004 126.683 223.525 142.743 223.312 162.324C223.109 180.988 211.862 208.555 196.74 208.39ZM197.609 128.527C184.337 128.382 173.376 143.299 173.175 161.779C173.074 171.089 175.723 182.375 180.09 191.231C184.809 200.801 190.886 206.326 196.761 206.39C202.637 206.454 208.833 201.062 213.758 191.597C218.317 182.838 221.211 171.613 221.313 162.303C221.514 143.823 210.88 128.671 197.609 128.527Z" fill="#242C42"/>
<path d="M197.531 184.11C197.051 184.105 196.547 183.99 196.04 183.76L193.662 182.67C193.161 182.44 192.939 181.847 193.17 181.345C193.4 180.843 193.993 180.62 194.496 180.852L196.868 181.939C197.659 182.295 198.039 181.995 198.165 181.895C198.703 181.467 198.978 180.478 198.802 179.593C198.389 177.511 197.147 168.226 197.094 167.832C197.021 167.285 197.405 166.781 197.953 166.708C198.496 166.635 199.004 167.019 199.077 167.567C199.09 167.663 200.363 177.184 200.763 179.204C201.09 180.848 200.545 182.558 199.409 183.461C198.855 183.9 198.215 184.118 197.531 184.11Z" fill="#242C42"/>
<path d="M217.09 152.686C217.09 152.686 215.302 157.574 217.362 159.625C219.421 161.675 219.04 164.844 218.665 169.087C218.288 173.331 219.286 175.751 220.707 174.311C222.128 172.87 223.746 153.332 223.762 151.927C223.777 150.523 217.09 152.686 217.09 152.686Z" fill="#242C42"/>
<path d="M219.908 175.727C219.611 175.724 219.375 175.641 219.235 175.577C217.371 174.714 217.518 170.69 217.669 168.999L217.715 168.473C218.053 164.696 218.297 161.969 216.655 160.334C214.212 157.902 215.945 152.905 216.151 152.343C216.257 152.054 216.489 151.83 216.781 151.735C220.775 150.442 223.272 150.136 224.203 150.823C224.563 151.088 224.766 151.495 224.762 151.938C224.759 152.137 223.325 173.08 221.418 175.014C220.857 175.582 220.323 175.732 219.908 175.727ZM220.122 173.789L220.132 173.79L220.122 173.789ZM217.88 153.486C217.459 154.894 216.908 157.763 218.066 158.916C220.372 161.212 220.079 164.494 219.707 168.651L219.661 169.176C219.442 171.654 219.746 173.091 219.998 173.604C221.005 172.084 222.543 156.074 222.741 152.447C221.857 152.456 219.857 152.879 217.88 153.486Z" fill="#242C42"/>
<path d="M172.502 158.859L173.078 169.718C173.353 169.818 173.646 169.863 173.939 169.848C174.232 169.832 174.519 169.758 174.782 169.63C175.046 169.502 175.28 169.322 175.474 169.101C175.666 168.881 175.812 168.623 175.903 168.345C176.62 166.255 174.94 159.666 176.73 156.096C178.522 152.528 185.202 150.987 185.489 148.477C185.776 145.966 182.095 141.505 182.113 139.772C182.132 138.038 183.209 136.316 191.879 144.784C200.549 153.252 216.663 155.214 225.083 153.207C233.503 151.201 223.508 138.471 221.422 135.656C219.336 132.842 227.051 135.008 222.911 127.958C218.772 120.909 204.11 116.189 189.324 121.281C174.539 126.374 166.062 133.65 168.081 141.023C170.1 148.396 172.502 158.859 172.502 158.859Z" fill="#242C42"/>
<path d="M173.791 170.85C173.43 170.846 173.075 170.781 172.736 170.658C172.359 170.521 172.101 170.172 172.079 169.772L171.509 158.999C171.276 157.991 169.012 148.208 167.117 141.287C164.984 133.496 172.958 125.86 188.998 120.336C195.977 117.932 203.557 117.491 210.34 119.094C216.631 120.579 221.527 123.626 223.774 127.451C225.006 129.549 225.399 131.117 225.013 132.385C224.602 133.735 223.413 134.305 222.628 134.682C222.479 134.755 222.279 134.852 222.137 134.933C222.16 134.969 222.19 135.012 222.226 135.061L222.547 135.493C226.085 140.216 230.613 146.98 229.102 151.154C228.545 152.696 227.27 153.714 225.315 154.18C216.809 156.208 200.211 154.32 191.181 145.5C185.308 139.763 183.542 139.347 183.164 139.343C183.143 139.413 183.116 139.548 183.113 139.783C183.108 140.273 183.838 141.617 184.425 142.697C185.534 144.74 186.682 146.852 186.483 148.591C186.285 150.318 184.43 151.418 182.283 152.692C180.464 153.77 178.405 154.991 177.625 156.545C176.658 158.472 176.843 161.644 176.992 164.193C177.105 166.131 177.195 167.661 176.849 168.669C176.719 169.064 176.51 169.435 176.229 169.758C175.944 170.083 175.605 170.341 175.221 170.529C174.834 170.717 174.421 170.823 173.993 170.846C173.926 170.85 173.858 170.851 173.791 170.85ZM202.441 120.143C198.362 120.099 193.997 120.73 189.65 122.227C174.956 127.287 167.254 134.215 169.046 140.759C171.047 148.067 173.454 158.532 173.478 158.636C173.491 158.692 173.497 158.749 173.501 158.806L174.033 168.833C174.14 168.814 174.246 168.779 174.346 168.731C174.49 168.661 174.617 168.563 174.723 168.442C174.825 168.324 174.904 168.185 174.953 168.034C175.176 167.385 175.085 165.822 174.996 164.31C174.833 161.523 174.63 158.053 175.837 155.648C176.88 153.571 179.208 152.19 181.262 150.971C182.738 150.096 184.41 149.104 184.495 148.363C184.622 147.253 183.539 145.256 182.667 143.651C181.793 142.042 181.102 140.77 181.113 139.761C181.129 138.303 181.791 137.724 182.341 137.496C183.56 136.991 185.728 137.377 192.578 144.069C201.092 152.386 216.793 154.155 224.851 152.235C226.127 151.93 226.902 151.354 227.222 150.473C228.096 148.057 225.984 143.419 220.946 136.691L220.619 136.252C220.44 136.011 219.895 135.275 220.105 134.425C220.314 133.576 221.082 133.206 221.762 132.88C222.475 132.537 222.954 132.277 223.1 131.802C223.242 131.337 223.175 130.38 222.05 128.464C219.271 123.732 211.58 120.242 202.441 120.143Z" fill="#242C42"/>
<path d="M181.902 133.713C181.48 133.709 181.091 133.435 180.959 133.012C180.795 132.485 181.088 131.923 181.615 131.758C188.85 129.495 196.617 129.015 204.072 130.373C204.616 130.472 204.976 130.993 204.876 131.536C204.777 132.079 204.257 132.443 203.714 132.341C196.577 131.042 189.141 131.5 182.213 133.668C182.109 133.7 182.004 133.714 181.902 133.713Z" fill="white"/>
<path d="M215.712 146.945C215.683 146.945 215.653 146.942 215.623 146.94C211.577 146.534 207.702 145.371 204.104 143.484C191.664 137.461 182.555 136.633 181.526 136.556L176.821 137.284C176.522 137.333 176.221 137.24 175.997 137.036L172.439 133.807C172.03 133.436 172 132.804 172.371 132.395C172.741 131.986 173.375 131.954 173.784 132.327L176.987 135.235L181.33 134.563C181.397 134.552 181.466 134.551 181.535 134.553C181.934 134.575 191.464 135.142 205.005 141.699C208.404 143.48 212.033 144.57 215.822 144.95C216.372 145.005 216.773 145.495 216.718 146.045C216.665 146.564 216.224 146.95 215.712 146.945Z" fill="white"/>
<path d="M221.034 145.928C220.672 145.924 220.325 145.723 220.151 145.377C219.903 144.883 220.102 144.282 220.594 144.035C220.801 143.931 220.983 143.788 221.131 143.611C221.281 143.432 221.391 143.229 221.459 143.006C221.525 142.785 221.546 142.556 221.521 142.325C221.495 142.095 221.423 141.875 221.308 141.671C221.036 141.19 221.203 140.58 221.684 140.308C222.165 140.035 222.774 140.203 223.047 140.684C223.296 141.124 223.451 141.601 223.507 142.101C223.564 142.604 223.52 143.105 223.372 143.587C223.225 144.07 222.987 144.511 222.663 144.897C222.339 145.284 221.944 145.595 221.493 145.822C221.346 145.896 221.188 145.929 221.034 145.928Z" fill="white"/>
<path d="M183.943 166.263C183.893 166.263 183.843 166.257 183.792 166.25C183.251 166.161 182.881 165.658 182.965 165.116C183.006 164.853 184.066 158.686 193.618 158.79C194.17 158.796 194.613 159.249 194.607 159.801C194.601 160.353 194.148 160.796 193.596 160.79C185.85 160.706 184.974 165.237 184.94 165.429C184.855 165.919 184.426 166.269 183.943 166.263Z" fill="#242C42"/>
<path d="M211.248 166.564C210.761 166.559 210.337 166.2 210.269 165.704C210.238 165.5 209.452 160.963 201.716 160.878C201.163 160.872 200.721 160.42 200.727 159.868C200.733 159.316 201.185 158.873 201.738 158.879C211.291 158.983 212.216 165.17 212.251 165.433C212.323 165.981 211.937 166.484 211.39 166.556C211.342 166.563 211.295 166.565 211.248 166.564Z" fill="#242C42"/>
<path d="M190.407 170.063C188.925 170.047 187.523 169.342 186.351 168.023C185.985 167.61 186.022 166.979 186.435 166.612C186.848 166.245 187.48 166.283 187.847 166.695C189.421 168.466 191.428 168.487 193.043 166.75C193.42 166.347 194.051 166.322 194.456 166.699C194.861 167.075 194.884 167.708 194.508 168.112C193.307 169.404 191.888 170.079 190.407 170.063Z" fill="#242C42"/>
<path d="M205.431 170.226C203.951 170.21 202.548 169.505 201.374 168.187C201.007 167.774 201.045 167.143 201.457 166.775C201.869 166.409 202.501 166.445 202.868 166.857C204.447 168.629 206.449 168.652 208.068 166.914C208.444 166.51 209.076 166.487 209.481 166.863C209.885 167.24 209.907 167.872 209.531 168.276C208.329 169.568 206.91 170.243 205.431 170.226Z" fill="#242C42"/>
<path d="M195.491 191.677C191.284 191.631 188.886 189.99 188.74 189.886C188.288 189.568 188.182 188.944 188.5 188.492C188.817 188.043 189.437 187.934 189.888 188.248C190.076 188.378 194.581 191.384 202.404 188.286C202.912 188.083 203.497 188.333 203.701 188.847C203.904 189.36 203.654 189.942 203.14 190.146C200.172 191.321 197.603 191.7 195.491 191.677Z" fill="#242C42"/>
<path d="M297.76 194.471C296.647 196.348 297.258 198.74 299.134 199.852L334.269 220.691L338.442 213.655" fill="#F5F6FA"/>
<path d="M297.76 194.471C296.647 196.348 297.258 198.74 299.134 199.852L334.269 220.69L338.442 213.655L301.872 188.098L297.76 194.471Z" fill="#F5F6FA"/>
<path d="M334.258 221.692C334.084 221.69 333.912 221.642 333.76 221.552L298.624 200.713C297.486 200.039 296.682 198.968 296.357 197.697C296.033 196.426 296.225 195.1 296.9 193.962C296.907 193.951 296.913 193.941 296.92 193.93L301.032 187.556C301.18 187.328 301.413 187.171 301.679 187.118C301.945 187.065 302.221 187.123 302.445 187.279L339.015 212.835C339.445 213.134 339.57 213.716 339.303 214.166L335.13 221.202C334.994 221.43 334.774 221.595 334.517 221.66C334.432 221.682 334.345 221.693 334.258 221.692ZM298.612 194.998C298.217 195.674 298.104 196.456 298.296 197.203C298.487 197.956 298.965 198.591 299.644 198.993L333.92 219.321L337.109 213.943L302.149 189.512L298.612 194.998Z" fill="#364261"/>
<path d="M334.819 159.376C334.815 159.376 334.81 159.376 334.806 159.376C334.444 159.367 334.115 159.164 333.946 158.844L332.23 155.597L328.559 155.648C328.181 155.658 327.861 155.463 327.68 155.149C327.498 154.836 327.5 154.449 327.685 154.138L335.141 141.567C335.422 141.091 336.035 140.935 336.511 141.217C336.987 141.499 337.142 142.112 336.861 142.587L330.315 153.624L332.813 153.59C333.18 153.573 333.536 153.789 333.712 154.122L334.88 156.332L341.426 145.295C341.708 144.819 342.322 144.663 342.797 144.945C343.272 145.227 343.428 145.84 343.146 146.315L335.691 158.887C335.508 159.195 335.176 159.381 334.819 159.376Z" fill="#364261"/>
<path d="M334.359 141.103C332.342 139.907 329.726 140.574 328.53 142.592L299.93 190.814L297.759 194.472C298.955 192.456 301.571 191.788 303.589 192.984L325.214 205.809L341.443 215.436L372.214 163.555L334.359 141.103Z" fill="#F5F6FA"/>
<path d="M341.431 216.436C341.257 216.434 341.085 216.387 340.933 216.297L303.077 193.844C301.532 192.927 299.534 193.44 298.62 194.983C298.337 195.458 297.722 195.614 297.25 195.332C296.774 195.051 296.617 194.437 296.899 193.962L327.669 142.081C328.383 140.877 329.527 140.022 330.889 139.674C332.251 139.328 333.663 139.529 334.868 140.243L372.723 162.695C373.199 162.977 373.356 163.59 373.074 164.065L342.304 215.946C342.168 216.174 341.947 216.34 341.691 216.405C341.605 216.427 341.518 216.437 341.431 216.436ZM301.489 191.391C302.38 191.401 303.278 191.638 304.098 192.124L341.093 214.066L370.843 163.905L333.848 141.964C333.102 141.52 332.225 141.397 331.383 141.612C330.539 141.827 329.832 142.357 329.39 143.102L300.722 191.438C300.975 191.404 301.232 191.388 301.489 191.391Z" fill="#364261"/>
<path d="M337.156 194.561C336.986 194.559 336.815 194.514 336.659 194.421L320.711 184.962C320.235 184.68 320.078 184.066 320.36 183.592C320.641 183.116 321.255 182.96 321.731 183.242L337.679 192.701C338.155 192.983 338.312 193.597 338.03 194.071C337.84 194.39 337.502 194.565 337.156 194.561Z" fill="#364261"/>
<path d="M333.679 200.424C333.509 200.422 333.338 200.378 333.182 200.285L317.234 190.825C316.758 190.544 316.601 189.929 316.883 189.454C317.164 188.979 317.778 188.822 318.254 189.104L334.202 198.564C334.678 198.846 334.835 199.459 334.553 199.934C334.363 200.253 334.025 200.428 333.679 200.424Z" fill="#364261"/>
<path d="M352.429 190.5L367.731 164.7L353.47 156.242C357.04 163.052 357.838 171.008 355.79 178.417L352.429 190.5Z" fill="#9B79FF"/>
<path d="M336.358 181.836C335.458 181.825 334.571 181.578 333.777 181.108C332.575 180.395 331.726 179.257 331.387 177.903C331.051 176.561 331.253 175.169 331.957 173.982C332.239 173.506 332.853 173.35 333.327 173.633C333.803 173.915 333.96 174.527 333.678 175.003C333.245 175.733 333.12 176.591 333.327 177.417C333.536 178.25 334.058 178.949 334.797 179.388C335.527 179.82 336.385 179.945 337.211 179.737C338.043 179.529 338.742 179.007 339.181 178.268C339.973 176.931 339.617 175.732 337.819 173.684C336.98 172.729 334.426 169.821 336.24 166.76C337.703 164.294 340.901 163.477 343.366 164.939C345.83 166.402 346.648 169.599 345.186 172.064C344.903 172.54 344.289 172.693 343.815 172.414C343.34 172.132 343.184 171.519 343.466 171.045C344.365 169.527 343.862 167.56 342.346 166.659C340.825 165.759 338.86 166.262 337.961 167.78C337.218 169.032 337.638 170.446 339.322 172.364C341 174.275 342.499 176.592 340.901 179.288C340.189 180.489 339.051 181.339 337.697 181.678C337.254 181.789 336.803 181.841 336.358 181.836Z" fill="#364261"/>
<path d="M342.814 166.847C342.644 166.845 342.472 166.8 342.316 166.707C341.841 166.425 341.685 165.811 341.966 165.336L343.164 163.319C343.446 162.844 344.059 162.687 344.534 162.97C345.01 163.251 345.166 163.864 344.884 164.34L343.687 166.357C343.497 166.675 343.16 166.851 342.814 166.847Z" fill="#364261"/>
<path d="M333.078 183.265C332.908 183.263 332.736 183.218 332.58 183.125C332.104 182.843 331.949 182.23 332.23 181.755L333.454 179.69C333.736 179.214 334.35 179.057 334.825 179.339C335.3 179.621 335.456 180.234 335.175 180.71L333.95 182.775C333.761 183.094 333.424 183.269 333.078 183.265Z" fill="#364261"/>
<path d="M280.339 102.229L236.258 75.2872C233.352 73.511 232.361 69.6891 234.187 66.7023L248.546 43.2081C250.322 40.3017 254.143 39.3104 257.131 41.1366L301.293 68.1282C304.199 69.9044 305.19 73.7263 303.364 76.7131L288.956 100.288C287.098 103.145 283.326 104.055 280.339 102.229Z" fill="#F5F6FA"/>
<path d="M283.577 104.174C282.295 104.159 280.998 103.805 279.817 103.083L235.736 76.1401C234.096 75.1368 232.938 73.5562 232.477 71.6886C232.012 69.802 232.316 67.8455 233.334 66.1803L247.693 42.687C249.776 39.2782 254.241 38.2005 257.652 40.2836L301.815 67.2753C303.455 68.2786 304.613 69.8592 305.074 71.7268C305.539 73.6134 305.235 75.5699 304.217 77.2351L289.81 100.809C288.375 103.016 286.003 104.202 283.577 104.174ZM253.945 41.2222C252.155 41.2012 250.397 42.0957 249.399 43.7301L235.04 67.2234C234.301 68.4298 234.081 69.8453 234.419 71.2094C234.753 72.5624 235.592 73.7083 236.78 74.4343L280.86 101.376C283.348 102.897 286.533 102.178 288.117 99.7429L302.511 76.192C303.249 74.9856 303.47 73.5701 303.132 72.206C302.798 70.853 301.959 69.7071 300.771 68.9811L256.609 41.9905C255.776 41.4817 254.856 41.2329 253.945 41.2222Z" fill="#364261"/>
<path d="M260.369 53.9834C259.184 55.9207 256.713 56.5167 254.775 55.3329C252.837 54.1491 252.241 51.677 253.425 49.7397C254.61 47.8025 257.081 47.2064 259.019 48.3902C260.956 49.574 261.552 52.0462 260.369 53.9834Z" fill="#53BBF5"/>
<path d="M291.267 77.6363L285.859 74.3307C284.809 73.6893 284.464 72.2582 285.105 71.2086L286.98 68.1404C287.622 67.0908 289.052 66.7456 290.101 67.3869L295.511 70.6936C296.561 71.3349 296.905 72.7651 296.264 73.8146L294.439 76.8024C293.748 77.9324 292.317 78.2777 291.267 77.6363Z" fill="#9B79FF"/>
<path d="M264.912 51.9925C264.267 51.5979 263.603 51.4142 262.84 51.3912C262.992 52.5931 262.674 53.8404 261.983 54.9704C261.292 56.1004 260.378 56.8727 259.189 57.3658C259.476 57.9852 260.023 58.5407 260.669 58.9353C262.606 60.1191 265.078 59.523 266.262 57.5857C267.447 55.6485 266.769 53.1274 264.912 51.9925Z" fill="#9B79FF"/>
<path d="M243.192 65.9638C243.957 66.4308 244.197 67.4297 243.73 68.1943C243.263 68.9589 242.264 69.1992 241.499 68.7322C240.735 68.2652 240.494 67.2663 240.961 66.5017C241.428 65.7372 242.427 65.4969 243.192 65.9638Z" fill="#364261"/>
<path d="M246.883 68.2203C247.647 68.6873 247.888 69.6862 247.421 70.4507C246.954 71.2153 245.955 71.4556 245.19 70.9886C244.426 70.5216 244.185 69.5227 244.652 68.7582C245.119 67.9936 246.118 67.7533 246.883 68.2203Z" fill="#364261"/>
<path d="M250.574 70.4757C251.338 70.9427 251.578 71.9416 251.111 72.7062C250.644 73.4707 249.646 73.711 248.881 73.244C248.116 72.777 247.876 71.7782 248.343 71.0136C248.81 70.249 249.809 70.0087 250.574 70.4757Z" fill="#364261"/>
<path d="M254.264 72.7311C255.029 73.1981 255.269 74.197 254.802 74.9616C254.335 75.7262 253.336 75.9665 252.572 75.4995C251.807 75.0325 251.567 74.0336 252.034 73.269C252.501 72.5044 253.5 72.2641 254.264 72.7311Z" fill="#364261"/>
<path d="M258.878 75.5514C259.642 76.0184 259.882 77.0173 259.416 77.7819C258.949 78.5464 257.95 78.7868 257.185 78.3198C256.42 77.8528 256.18 76.8539 256.647 76.0893C257.114 75.3247 258.113 75.0844 258.878 75.5514Z" fill="#364261"/>
<path d="M262.568 77.8068C263.333 78.2738 263.573 79.2727 263.106 80.0373C262.639 80.8019 261.64 81.0422 260.876 80.5752C260.111 80.1082 259.871 79.1093 260.338 78.3447C260.805 77.5801 261.804 77.3398 262.568 77.8068Z" fill="#364261"/>
<path d="M266.259 80.0623C267.024 80.5293 267.264 81.5281 266.797 82.2927C266.33 83.0573 265.331 83.2976 264.567 82.8306C263.802 82.3636 263.562 81.3647 264.029 80.6002C264.496 79.8356 265.495 79.5953 266.259 80.0623Z" fill="#364261"/>
<path d="M269.95 82.3187C270.715 82.7857 270.955 83.7846 270.488 84.5492C270.021 85.3137 269.022 85.554 268.257 85.087C267.493 84.62 267.253 83.6212 267.72 82.8566C268.187 82.092 269.185 81.8517 269.95 82.3187Z" fill="#364261"/>
<path d="M274.563 85.138C275.328 85.605 275.568 86.6039 275.101 87.3684C274.634 88.133 273.635 88.3733 272.871 87.9063C272.106 87.4393 271.866 86.4404 272.333 85.6759C272.8 84.9113 273.799 84.671 274.563 85.138Z" fill="#364261"/>
<path d="M278.254 87.3934C279.019 87.8604 279.259 88.8593 278.792 89.6239C278.325 90.3884 277.326 90.6287 276.562 90.1617C275.797 89.6948 275.557 88.6959 276.024 87.9313C276.491 87.1667 277.49 86.9264 278.254 87.3934Z" fill="#364261"/>
<path d="M281.945 89.6498C282.709 90.1168 282.95 91.1157 282.483 91.8803C282.016 92.6449 281.017 92.8852 280.252 92.4182C279.488 91.9512 279.247 90.9523 279.714 90.1877C280.181 89.4231 281.18 89.1828 281.945 89.6498Z" fill="#364261"/>
<path d="M285.635 91.9052C286.399 92.3722 286.64 93.3711 286.173 94.1357C285.706 94.9003 284.707 95.1406 283.942 94.6736C283.178 94.2066 282.937 93.2077 283.404 92.4431C283.871 91.6786 284.87 91.4382 285.635 91.9052Z" fill="#364261"/>
<path d="M278.87 108.419L228.099 88.3322C224.751 87.0082 223.029 83.2082 224.39 79.7672L235.095 52.7082C236.42 49.3602 240.22 47.6382 243.661 48.9992L294.524 69.1232C297.872 70.4472 299.595 74.2472 298.234 77.6882L287.491 104.84C286.074 108.151 282.31 109.78 278.87 108.419Z" fill="#F5F6FA"/>
<path d="M281.369 109.9C280.417 109.9 279.446 109.723 278.502 109.349L227.731 89.2622C225.855 88.5202 224.375 87.0932 223.563 85.2452C222.744 83.3792 222.706 81.3032 223.46 79.3992L234.166 52.3402C235.709 48.4432 240.132 46.5272 244.03 48.0692L294.892 68.1932C296.768 68.9352 298.249 70.3612 299.061 72.2092C299.88 74.0752 299.918 76.1522 299.164 78.0562L288.421 105.207C287.162 108.149 284.355 109.9 281.369 109.9ZM241.241 49.5362C239.01 49.5362 236.895 50.8792 236.025 53.0762L225.32 80.1352C224.765 81.5392 224.791 83.0682 225.394 84.4412C225.993 85.8042 227.084 86.8552 228.467 87.4022L279.239 107.489C282.135 108.635 285.353 107.296 286.573 104.446L297.304 77.3202C297.859 75.9162 297.833 74.3882 297.23 73.0142C296.631 71.6522 295.54 70.6002 294.156 70.0532L243.293 49.9292C242.619 49.6622 241.925 49.5362 241.241 49.5362Z" fill="#364261"/>
<path d="M249.354 61.7902C248.471 64.0222 246.005 65.0892 243.774 64.2062C241.542 63.3232 240.473 60.8582 241.356 58.6262C242.239 56.3942 244.705 55.3272 246.937 56.2102C249.168 57.0932 250.237 59.5582 249.354 61.7902Z" fill="#53BBF5"/>
<path d="M285.804 80.8352L279.574 78.3712C278.365 77.8932 277.747 76.4652 278.225 75.2562L279.623 71.7222C280.101 70.5132 281.529 69.8962 282.737 70.3742L288.968 72.8392C290.176 73.3172 290.795 74.7442 290.316 75.9532L288.955 79.3942C288.44 80.6962 287.013 81.3132 285.804 80.8352Z" fill="#9B79FF"/>
<path d="M253.726 58.8952C252.982 58.6012 252.257 58.5302 251.459 58.6442C251.835 59.8682 251.729 61.2242 251.214 62.5262C250.699 63.8282 249.885 64.7962 248.737 65.5252C249.147 66.1182 249.818 66.5982 250.562 66.8922C252.793 67.7752 255.259 66.7082 256.142 64.4762C257.025 62.2442 255.864 59.7412 253.726 58.8952Z" fill="#9B79FF"/>
<path d="M233.634 77.3712C234.514 77.7192 234.945 78.7162 234.597 79.5962C234.249 80.4762 233.252 80.9072 232.372 80.5592C231.492 80.2112 231.061 79.2142 231.409 78.3342C231.757 77.4542 232.754 77.0232 233.634 77.3712Z" fill="#364261"/>
<path d="M237.885 79.0532C238.765 79.4012 239.196 80.3982 238.848 81.2782C238.5 82.1582 237.503 82.5892 236.623 82.2412C235.743 81.8932 235.312 80.8962 235.66 80.0162C236.008 79.1362 237.005 78.7052 237.885 79.0532Z" fill="#364261"/>
<path d="M242.136 80.7352C243.016 81.0832 243.447 82.0802 243.099 82.9602C242.751 83.8402 241.754 84.2712 240.874 83.9232C239.994 83.5752 239.563 82.5782 239.911 81.6982C240.259 80.8182 241.256 80.3872 242.136 80.7352Z" fill="#364261"/>
<path d="M246.387 82.4172C247.267 82.7652 247.698 83.7622 247.35 84.6422C247.002 85.5222 246.005 85.9532 245.125 85.6052C244.245 85.2572 243.814 84.2602 244.162 83.3802C244.51 82.5002 245.507 82.0692 246.387 82.4172Z" fill="#364261"/>
<path d="M251.7 84.5192C252.58 84.8672 253.011 85.8642 252.663 86.7442C252.315 87.6242 251.318 88.0552 250.438 87.7072C249.558 87.3592 249.127 86.3622 249.475 85.4822C249.823 84.6022 250.82 84.1712 251.7 84.5192Z" fill="#364261"/>
<path d="M255.951 86.2012C256.831 86.5492 257.262 87.5462 256.914 88.4262C256.566 89.3062 255.569 89.7372 254.689 89.3892C253.809 89.0412 253.378 88.0442 253.726 87.1642C254.074 86.2842 255.071 85.8532 255.951 86.2012Z" fill="#364261"/>
<path d="M260.202 87.8832C261.082 88.2312 261.513 89.2282 261.165 90.1082C260.817 90.9882 259.82 91.4192 258.94 91.0712C258.06 90.7232 257.629 89.7262 257.977 88.8462C258.325 87.9662 259.322 87.5352 260.202 87.8832Z" fill="#364261"/>
<path d="M264.453 89.5642C265.333 89.9122 265.764 90.9092 265.416 91.7892C265.068 92.6692 264.071 93.1002 263.191 92.7522C262.311 92.4042 261.88 91.4072 262.228 90.5272C262.576 89.6472 263.573 89.2162 264.453 89.5642Z" fill="#364261"/>
<path d="M269.766 91.6672C270.646 92.0152 271.077 93.0122 270.729 93.8922C270.381 94.7722 269.384 95.2032 268.504 94.8552C267.624 94.5072 267.193 93.5102 267.541 92.6302C267.889 91.7502 268.886 91.3192 269.766 91.6672Z" fill="#364261"/>
<path d="M274.017 93.3482C274.897 93.6962 275.328 94.6932 274.98 95.5732C274.632 96.4532 273.635 96.8842 272.755 96.5362C271.875 96.1882 271.444 95.1912 271.792 94.3112C272.14 93.4312 273.137 93.0002 274.017 93.3482Z" fill="#364261"/>
<path d="M278.268 95.0302C279.148 95.3782 279.579 96.3752 279.231 97.2552C278.883 98.1352 277.886 98.5662 277.006 98.2182C276.126 97.8702 275.695 96.8732 276.043 95.9932C276.391 95.1132 277.388 94.6822 278.268 95.0302Z" fill="#364261"/>
<path d="M282.519 96.7122C283.399 97.0602 283.83 98.0572 283.482 98.9372C283.134 99.8172 282.137 100.248 281.257 99.9002C280.377 99.5522 279.946 98.5552 280.294 97.6752C280.642 96.7952 281.639 96.3642 282.519 96.7122Z" fill="#364261"/>
<path d="M17.6228 179.909C17.2568 179.905 16.9082 179.701 16.7363 179.35C16.4931 178.854 16.6981 178.255 17.194 178.012L71.1106 151.58C71.6065 151.335 72.2051 151.541 72.4483 152.038C72.6915 152.534 72.4865 153.134 71.9906 153.377L18.074 179.807C17.9281 179.879 17.7738 179.911 17.6228 179.909Z" fill="#364261"/>
<path d="M14.1445 188.107C13.7185 188.102 13.2923 188.03 12.8799 187.888C11.854 187.537 11.0246 186.8 10.5411 185.814C10.0576 184.83 9.98458 183.722 10.3356 182.696C10.6867 181.671 11.4225 180.84 12.4082 180.357L17.194 178.011C17.69 177.765 18.2886 177.973 18.5318 178.469C18.775 178.965 18.5699 179.563 18.074 179.806L13.2882 182.152C12.7823 182.401 12.4053 182.823 12.2282 183.343C12.0501 183.863 12.0884 184.429 12.3365 184.933C12.5846 185.44 13.0082 185.817 13.5282 185.996C14.0481 186.173 14.6116 186.133 15.1185 185.887L17.1383 184.896C17.6342 184.651 18.2328 184.857 18.477 185.352C18.7202 185.848 18.5162 186.448 18.0203 186.691L15.9996 187.683C15.4101 187.972 14.7774 188.114 14.1445 188.107Z" fill="#364261"/>
<path d="M77.0158 157.653C76.6498 157.649 76.3012 157.445 76.1293 157.093C75.8861 156.598 76.0911 155.999 76.587 155.756L78.6078 154.764C79.6548 154.252 80.0722 153.029 79.5594 151.982C79.3114 151.476 78.8877 151.099 78.3678 150.921C77.8488 150.745 77.2823 150.784 76.7774 151.031L71.9916 153.377C71.4937 153.62 70.896 153.415 70.6538 152.919C70.4106 152.423 70.6147 151.824 71.1106 151.581L75.8964 149.234C76.8811 148.751 77.9901 148.679 79.015 149.03C80.041 149.381 80.8714 150.117 81.3549 151.102C82.3619 153.156 81.5417 155.554 79.4878 156.561L77.467 157.551C77.3212 157.622 77.1668 157.655 77.0158 157.653Z" fill="#364261"/>
<path d="M74.2614 158.009L94.7752 199.855L40.8586 226.286L20.3448 184.439" fill="#F5F6FA"/>
<path d="M40.8479 227.285C40.482 227.28 40.1323 227.076 39.9604 226.725L19.4466 184.879C19.3294 184.64 19.3126 184.366 19.3986 184.115C19.4845 183.864 19.666 183.658 19.9044 183.541L73.822 157.11C74.3179 156.865 74.9165 157.071 75.1597 157.568L95.6725 199.415C95.9157 199.91 95.7116 200.51 95.2157 200.753L41.2982 227.183C41.1523 227.254 40.9989 227.286 40.8479 227.285ZM21.6826 184.896L41.3164 224.947L93.4375 199.397L73.8037 159.346L21.6826 184.896Z" fill="#364261"/>
<path d="M73.833 219.289C73.1815 217.959 71.5967 217.417 70.267 218.069C68.9373 218.72 68.3957 220.305 69.0471 221.635C69.6986 222.964 71.2833 223.506 72.6131 222.855C73.9164 222.15 74.459 220.565 73.833 219.289Z" fill="#F5F6FA"/>
<path d="M71.3982 224.119C70.0523 224.103 68.777 223.352 68.1499 222.074C67.2602 220.26 68.013 218.06 69.8276 217.171C70.7117 216.738 71.7045 216.675 72.6279 216.99C73.5512 217.305 74.2985 217.965 74.7312 218.848C75.5995 220.621 74.8783 222.766 73.0888 223.734C72.5416 224.003 71.9632 224.125 71.3982 224.119ZM71.4666 218.793C71.2077 218.79 70.949 218.848 70.7076 218.966C69.8697 219.377 69.5352 220.357 69.9454 221.194C70.3576 222.033 71.3357 222.368 72.1736 221.957C72.9657 221.528 73.3235 220.52 72.9358 219.728C72.7375 219.325 72.399 219.025 71.9806 218.882C71.8133 218.824 71.6396 218.795 71.4666 218.793Z" fill="#364261"/>
<path d="M70.2563 219.069C69.8904 219.065 69.5417 218.861 69.3698 218.509L66.9193 213.511C66.6761 213.016 66.8811 212.417 67.377 212.174C67.8719 211.927 68.4715 212.134 68.7147 212.63L71.1653 217.629C71.4085 218.125 71.2035 218.724 70.7076 218.967C70.5617 219.038 70.4073 219.071 70.2563 219.069Z" fill="#364261"/>
<path d="M38.7164 192.184L34.4626 194.27L43.924 213.572L48.1777 211.485L38.7164 192.184Z" fill="#53BBF5"/>
<path d="M54.6076 195.408L50.3539 197.493L55.463 207.915L59.7168 205.829L54.6076 195.408Z" fill="#9B79FF"/>
<path d="M61.8469 180.845L57.5931 182.931L67.0545 202.233L71.3082 200.148L61.8469 180.845Z" fill="#53BBF5"/>
<path d="M77.0085 182.581L72.7538 184.665L78.5925 196.576L82.8473 194.492L77.0085 182.581Z" fill="#9B79FF"/>
<path d="M49.0296 190.432C48.9676 190.431 48.9046 190.426 48.8418 190.413L32.9505 187.189C32.4097 187.079 32.0589 186.551 32.1692 186.01C32.2796 185.469 32.8047 185.119 33.3485 185.229L48.4865 188.3L55.3837 174.425C55.5711 174.049 55.9777 173.826 56.3932 173.877L71.5539 175.612C72.1022 175.675 72.4974 176.17 72.434 176.719C72.3715 177.267 71.8818 177.669 71.3266 177.599L56.862 175.944L49.9361 189.878C49.763 190.226 49.4075 190.436 49.0296 190.432Z" fill="#364261"/>
<path d="M97.8914 64.4188C91.3783 70.4403 87.7451 81.0938 91.4399 88.615C93.0622 91.916 94.9042 94.571 97.4819 96.1259C100.301 97.8986 102.765 100.18 104.797 102.809C105.893 104.219 106.499 106.138 108.052 107.659C109.445 108.99 111.518 109.381 113.251 108.531L116.064 107.148C117.958 106.217 118.434 103.767 116.989 102.193C114.981 100.022 113.119 96.369 111.26 92.312" fill="#F5F6FA"/>
<path d="M114.502 98.713C120.979 97.949 129.288 93.8662 129.45 93.7864C131.019 93.0156 132.508 92.2163 133.888 91.471C135.106 90.8054 136.615 91.0049 137.605 92.0637C137.9 92.3895 138.248 92.6875 138.543 93.0133C139.533 93.9371 140.907 94.1359 142.098 93.5509L145.723 91.7689C147.671 90.8114 148.12 88.3082 146.621 86.7603C145.604 85.648 141.972 80.5801 140.38 76.9285" fill="#F5F6FA"/>
<path d="M145.218 84.9637C163.809 71.3956 160.607 60.6753 158.827 56.915C158.429 56.1039 157.46 55.7719 156.648 56.1712L155.133 56.916C148.575 49.9943 137.41 50.3757 137.41 50.3757C136.51 47.9961 136.831 44.4129 137.086 42.4731C137.145 41.907 136.528 41.4708 136.013 41.7909C132.464 44.1387 129.91 47.007 128.35 50.259C125.195 50.3985 119.828 50.4149 115.853 52.167" fill="#F5F6FA"/>
<path d="M97.8914 64.4188C91.3783 70.4403 87.7451 81.0928 91.4399 88.614C93.0622 91.915 94.9042 94.57 97.482 96.1249C100.301 97.8976 102.765 100.18 104.797 102.809C105.893 104.219 106.499 106.138 108.052 107.659C109.445 108.99 111.518 109.381 113.251 108.531L116.064 107.148C117.958 106.217 118.434 103.767 116.989 102.193C116.137 101.272 115.311 100.084 114.502 98.712C120.979 97.948 129.288 93.8662 129.45 93.7864C131.019 93.0156 132.508 92.2163 133.888 91.471C135.106 90.8054 136.615 91.0039 137.605 92.0627C137.899 92.3885 138.248 92.6875 138.543 93.0133C139.533 93.9371 140.907 94.1349 142.098 93.5499L145.723 91.7689C147.671 90.8115 148.12 88.3082 146.621 86.7603C146.33 86.4424 145.827 85.8021 145.218 84.9637C163.809 71.3956 160.607 60.6753 158.827 56.915C158.429 56.1039 157.46 55.7729 156.648 56.1722L155.133 56.917C148.575 49.9953 137.41 50.3757 137.41 50.3757C136.51 47.9961 136.831 44.4129 137.087 42.4731C137.145 41.907 136.528 41.4718 136.013 41.7919C132.464 44.1397 129.91 47.007 128.35 50.259C125.195 50.3985 119.829 50.4149 115.853 52.167C109.269 53.532 101.135 60.9042 97.8914 64.4188Z" fill="#F5F6FA"/>
<path d="M111.408 109.975C109.949 110.001 108.48 109.451 107.361 108.382C106.315 107.357 105.665 106.194 105.091 105.166C104.734 104.528 104.397 103.926 104.007 103.423C101.999 100.824 99.6257 98.6536 96.9497 96.9714C94.4812 95.4826 92.4999 93.0391 90.5425 89.0559C86.4815 80.789 90.7445 69.6633 97.2124 63.6846C100.58 60.0309 108.804 52.6661 115.546 51.2103C119.27 49.6015 124.076 49.42 127.264 49.3009L127.72 49.2829C129.398 46.0459 132.001 43.2477 135.462 40.9575C136.039 40.5962 136.726 40.5982 137.279 40.9425C137.842 41.2937 138.15 41.9193 138.081 42.5756C137.703 45.4467 137.726 47.7687 138.141 49.3746C140.772 49.4184 149.474 50.0124 155.338 55.7022L156.208 55.2738C156.84 54.9647 157.553 54.9181 158.216 55.1435C158.879 55.3699 159.415 55.8415 159.725 56.4742C162.206 61.7133 163.729 72.3262 146.619 85.1711C146.931 85.5807 147.185 85.8933 147.351 86.0764C148.278 87.0402 148.68 88.3393 148.453 89.6415C148.223 90.9618 147.388 92.0646 146.164 92.6663L142.538 94.4483C140.977 95.2139 139.14 94.9391 137.86 93.7444C137.669 93.5378 137.522 93.3973 137.377 93.2559C137.201 93.0849 137.026 92.913 136.863 92.7348C136.22 92.047 135.212 91.8877 134.367 92.3477C132.959 93.1085 131.457 93.9141 129.891 94.6837C129.566 94.8435 122.43 98.3285 116.157 99.472C116.644 100.208 117.138 100.869 117.639 101.423C117.667 101.454 117.695 101.484 117.723 101.515C117.725 101.516 117.727 101.518 117.728 101.52C118.627 102.501 119.004 103.803 118.762 105.092C118.52 106.384 117.696 107.459 116.504 108.045L113.691 109.428C112.97 109.783 112.19 109.961 111.408 109.975ZM136.015 42.9991C132.957 45.1332 130.676 47.7217 129.252 50.6912C129.092 51.024 128.763 51.2418 128.395 51.2583L127.339 51.2999C124.276 51.4148 119.645 51.5883 116.256 53.0821C116.191 53.1102 116.125 53.1324 116.056 53.1466C109.793 54.446 101.916 61.5316 98.6264 65.097C91.02 72.1338 89.4713 82.3397 92.3373 88.1732C94.1152 91.7914 95.862 93.9801 97.9989 95.2687C100.89 97.0861 103.438 99.4147 105.588 102.198C106.069 102.817 106.459 103.515 106.837 104.191C107.37 105.143 107.92 106.13 108.752 106.944C109.858 108 111.492 108.28 112.81 107.632L115.623 106.25C116.244 105.945 116.671 105.389 116.796 104.723C116.92 104.058 116.723 103.384 116.253 102.871C116.248 102.865 116.243 102.86 116.238 102.854C116.183 102.795 116.128 102.734 116.074 102.673C115.645 102.19 115.216 101.639 114.779 101.009C113.18 98.7052 111.716 95.7065 110.351 92.7281C110.121 92.226 110.342 91.6321 110.844 91.4022C111.346 91.1743 111.939 91.3929 112.17 91.895C113.047 93.8108 114.014 95.8351 115.034 97.6325C121.171 96.7174 128.681 93.0498 129.009 92.889C130.543 92.1349 132.026 91.3407 133.412 90.5912C135.067 89.6869 137.047 90.0032 138.335 91.3807C138.479 91.5392 138.625 91.6787 138.771 91.8201C138.947 91.9911 139.122 92.164 139.284 92.3422C139.902 92.9154 140.835 93.057 141.657 92.6525L145.282 90.8715C145.926 90.5551 146.363 89.9823 146.482 89.2991C146.599 88.63 146.389 87.9586 145.905 87.458C145.902 87.455 145.899 87.4521 145.896 87.4492C145.896 87.4482 145.896 87.4482 145.895 87.4472C145.89 87.4423 145.885 87.4364 145.88 87.4314C145.547 87.0672 145.025 86.3993 144.409 85.551C144.394 85.5303 144.379 85.5085 144.366 85.4878C142.821 83.3566 140.642 80.0294 139.464 77.3287C139.243 76.8225 139.474 76.2334 139.98 76.0124C140.486 75.7925 141.075 76.0222 141.296 76.5284C142.276 78.7745 144.036 81.544 145.442 83.5535C161.393 71.5702 160.135 62.0138 157.923 57.343C157.855 57.2032 157.727 57.0894 157.57 57.0362C157.411 56.9809 157.24 56.9939 157.089 57.0696L155.574 57.8144C155.18 58.0073 154.707 57.9206 154.407 57.6039C148.245 51.1012 137.546 51.3644 137.443 51.3752C137.054 51.3871 136.627 51.1305 136.475 50.7302C135.642 48.5275 135.739 45.4233 136.015 42.9991Z" fill="#364261"/>
<path d="M117.757 57.5464C117.604 56.4129 117.288 55.2233 116.757 54.1415C114.151 48.8385 107.694 46.6367 102.391 49.2423C97.0882 51.848 94.8864 58.3037 97.4921 63.6067C98.3427 65.338 99.5737 66.7486 101.05 67.7028" fill="#F5F6FA"/>
<path d="M101.066 68.7036C100.875 68.707 100.68 68.6554 100.507 68.5434C98.8746 67.488 97.5211 65.9336 96.5948 64.0486C95.2172 61.2443 95.0172 58.0624 96.0301 55.0901C97.044 52.1178 99.1462 49.7235 101.95 48.3449C104.756 46.9654 107.938 46.7664 110.909 47.7803C113.881 48.7942 116.277 50.8974 117.655 53.7016C118.19 54.7933 118.567 56.0759 118.747 57.4129C118.821 57.9607 118.437 58.4646 117.89 58.5382C117.343 58.6158 116.84 58.2276 116.766 57.6808C116.614 56.5543 116.3 55.4827 115.859 54.5823C114.717 52.258 112.729 50.5137 110.263 49.673C107.797 48.8312 105.157 48.9976 102.833 50.1407C100.508 51.2828 98.7636 53.2707 97.9228 55.7369C97.082 58.2031 97.2464 60.8406 98.3895 63.1659C99.1561 64.7266 100.264 66.0053 101.593 66.8641C102.056 67.164 102.19 67.7817 101.89 68.2461C101.702 68.5364 101.388 68.698 101.066 68.7036Z" fill="#364261"/>
<path d="M104.827 63.4957C103.833 62.9761 102.976 62.188 102.444 61.1062C101.194 58.5628 102.213 55.4424 104.811 54.1665C107.355 52.9166 110.475 53.9359 111.751 56.5339C112.123 57.2914 112.279 58.1548 112.274 58.964" fill="#F5F6FA"/>
<path d="M105.893 64.9882C105.743 64.9908 105.591 64.9605 105.45 64.894L104.402 64.4013C104.389 64.3955 104.377 64.3887 104.365 64.382C103.112 63.7279 102.137 62.7479 101.546 61.5481C100.821 60.0736 100.712 58.4023 101.237 56.8428C101.766 55.2713 102.879 54.0015 104.37 53.2681C105.846 52.5431 107.515 52.4337 109.076 52.9593C110.647 53.4888 111.916 54.6017 112.649 56.092C113.065 56.9398 113.282 57.9351 113.274 58.9714C113.274 59.0135 113.27 59.0545 113.265 59.0956L113.094 60.3878C113.051 60.7136 112.85 60.9962 112.559 61.1464C109.988 62.4638 108.674 63.251 106.449 64.8084C106.283 64.9243 106.089 64.9847 105.893 64.9882ZM105.273 62.6007L105.779 62.8379C107.666 61.5365 109.013 60.7306 111.18 59.6074L111.274 58.8966C111.271 58.2015 111.122 57.5211 110.853 56.9747C110.358 55.9653 109.5 55.2122 108.438 54.8549C107.381 54.4984 106.249 54.5733 105.253 55.0639C104.244 55.5597 103.49 56.4181 103.132 57.4806C102.777 58.537 102.852 59.6678 103.342 60.6654C103.747 61.4874 104.395 62.1381 105.273 62.6007Z" fill="#364261"/>
<path d="M145.229 59.7186C146.26 59.2124 146.685 57.9657 146.179 56.9345C145.672 55.9032 144.425 55.4781 143.394 55.9843C142.363 56.4905 141.938 57.7372 142.445 58.7684C142.951 59.7997 144.198 60.2248 145.229 59.7186Z" fill="#364261"/>
<path d="M156.345 62.7036C156.333 62.7038 156.322 62.704 156.31 62.7042C155.758 62.6939 155.318 62.2396 155.327 61.6873C155.367 59.3512 154.215 57.3372 154.202 57.3174C153.925 56.8402 154.087 56.2283 154.564 55.9498C155.042 55.6724 155.654 55.8357 155.932 56.3118C155.991 56.4138 157.376 58.8338 157.327 61.7211C157.318 62.2614 156.881 62.6941 156.345 62.7036Z" fill="#364261"/>
<path d="M99.3991 72.0085C99.2191 72.0116 99.0353 71.9659 98.8695 71.8668C98.3955 71.5831 98.2397 70.9697 98.5234 70.4956C98.7944 70.0408 105.35 59.3289 120.983 56.6385C121.524 56.546 122.045 56.9099 122.139 57.4543C122.232 57.9988 121.867 58.5163 121.323 58.6098C106.587 61.1464 100.302 71.4175 100.241 71.5206C100.057 71.8289 99.733 72.0026 99.3991 72.0085Z" fill="#364261"/>
<path d="M103.64 75.1634C103.208 75.376 102.669 75.3725 102.186 75.0729C101.487 74.6101 101.251 73.7182 101.714 73.0199C102.096 72.4291 105.394 67.2483 112.862 63.5794C115.675 62.1967 118.756 61.2204 122.023 60.6228C122.832 60.4936 123.638 61.0385 123.767 61.8484C123.897 62.6582 123.352 63.4639 122.542 63.5932C119.572 64.1115 116.789 65.0096 114.191 66.2855C107.373 69.6359 104.401 74.3869 104.292 74.5748C104.101 74.8702 103.857 75.0565 103.64 75.1634Z" fill="#9B79FF"/>
<path d="M127.233 55.6464C127.198 55.6471 127.162 55.6457 127.126 55.6433C126.576 55.594 126.169 55.1081 126.217 54.5581C126.434 52.1109 127.365 49.9052 127.404 49.8125C127.62 49.3057 128.206 49.0673 128.715 49.2844C129.223 49.5005 129.46 50.0884 129.245 50.5963C129.237 50.6164 128.399 52.6125 128.211 54.7351C128.165 55.249 127.738 55.6376 127.233 55.6464Z" fill="#364261"/>
<path d="M86.6311 91.225C86.1522 91.2334 85.6681 91.1759 85.1898 91.0503C82.8213 90.4759 81.3978 88.1835 81.9656 85.8382C82.5377 83.7918 84.4285 82.6814 86.3722 83.2183C87.9246 83.6791 88.8877 85.3854 88.4508 86.8733C88.2951 87.4031 87.7374 87.705 87.2096 87.5512C86.6798 87.3955 86.3759 86.8398 86.5316 86.31C86.6458 85.9209 86.3337 85.2933 85.82 85.1413C84.9647 84.9043 84.1672 85.3974 83.9008 86.3442C83.6006 87.5867 84.3609 88.7905 85.6798 89.1114C86.5529 89.3401 87.4339 89.2176 88.1851 88.7683C88.9374 88.32 89.4649 87.6046 89.671 86.7548C89.8005 86.2175 90.3368 85.886 90.8782 86.0195C91.4146 86.1491 91.7451 86.6893 91.6146 87.2267C91.2807 88.6028 90.4259 89.76 89.2095 90.4855C88.4147 90.9586 87.531 91.2092 86.6311 91.225Z" fill="#364261"/>
</svg>
