<svg width="22" height="22" viewBox="0 0 22 22" fill="none" xmlns="http://www.w3.org/2000/svg">
<path d="M21.5 5.39528V6.14528C21.5 6.24473 21.4631 6.34012 21.3975 6.41044C21.3319 6.48077 21.2428 6.52028 21.15 6.52028H20.1V7.08278C20.1 7.39342 19.8649 7.64528 19.575 7.64528H2.425C2.13507 7.64528 1.9 7.39342 1.9 7.08278V6.52028H0.85C0.757174 6.52028 0.66815 6.48077 0.602513 6.41044C0.536875 6.34012 0.5 6.24473 0.5 6.14528V5.39528C0.500001 5.32109 0.52054 5.24857 0.559019 5.18689C0.597498 5.12521 0.652188 5.07714 0.716169 5.04878L10.8662 0.923776C10.9519 0.885759 11.0481 0.885759 11.1338 0.923776L21.2838 5.04878C21.3478 5.07714 21.4025 5.12521 21.441 5.18689C21.4795 5.24857 21.5 5.32109 21.5 5.39528ZM20.45 19.6453H1.55C0.970094 19.6453 0.5 20.1489 0.5 20.7703V21.5203C0.5 21.6197 0.536875 21.7151 0.602513 21.7854C0.66815 21.8558 0.757174 21.8953 0.85 21.8953H21.15C21.2428 21.8953 21.3319 21.8558 21.3975 21.7854C21.4631 21.7151 21.5 21.6197 21.5 21.5203V20.7703C21.5 20.1489 21.0299 19.6453 20.45 19.6453ZM4 8.39528V17.3953H2.425C2.13507 17.3953 1.9 17.6471 1.9 17.9578V18.8953H20.1V17.9578C20.1 17.6471 19.8649 17.3953 19.575 17.3953H18V8.39528H15.2V17.3953H12.4V8.39528H9.6V17.3953H6.8V8.39528H4Z" fill="white"/>
</svg>
