<svg width="22" height="22" viewBox="0 0 22 22" fill="none" xmlns="http://www.w3.org/2000/svg">
<path d="M20.45 0.25H1.55C0.970203 0.25 0.5 0.921719 0.5 1.75V19.75C0.5 20.5783 0.970203 21.25 1.55 21.25H20.45C21.0298 21.25 21.5 20.5783 21.5 19.75V1.75C21.5 0.921719 21.0298 0.25 20.45 0.25ZM6.275 14.1194V14.875C6.275 15.0822 6.15753 15.25 6.0125 15.25H5.4875C5.34247 15.25 5.225 15.0822 5.225 14.875V14.1114C4.85455 14.0842 4.49427 13.8995 4.19567 13.5794C4.0677 13.442 4.06114 13.1683 4.17697 13.0103L4.56252 12.4848C4.65341 12.3611 4.78859 12.3555 4.89491 12.4506C5.02189 12.5641 5.16594 12.625 5.31556 12.625H6.23792C6.4512 12.625 6.62511 12.3475 6.62511 12.0067C6.62511 11.7278 6.50666 11.4822 6.33734 11.41L4.86078 10.7772C4.2508 10.5156 3.82456 9.67937 3.82456 8.74328C3.82456 7.59391 4.44964 6.66016 5.22467 6.63062V5.875C5.22467 5.66781 5.34214 5.5 5.48717 5.5H6.01217C6.1572 5.5 6.27467 5.66781 6.27467 5.875V6.63859C6.64512 6.66578 7.00541 6.85 7.304 7.17062C7.43197 7.30797 7.43853 7.58172 7.3227 7.73969L6.93716 8.26516C6.84626 8.38891 6.71108 8.39453 6.60476 8.29938C6.47778 8.18547 6.33373 8.125 6.18411 8.125H5.26175C5.04847 8.125 4.87456 8.4025 4.87456 8.74328C4.87456 9.02219 4.99302 9.26781 5.16233 9.34L6.63889 9.97281C7.24887 10.2344 7.67511 11.0706 7.67511 12.0067C7.67511 13.1566 7.05003 14.0898 6.275 14.1194ZM14.15 13.375C14.15 13.5822 14.0325 13.75 13.8875 13.75H10.2125C10.0675 13.75 9.95 13.5822 9.95 13.375V12.625C9.95 12.4178 10.0675 12.25 10.2125 12.25H13.8875C14.0325 12.25 14.15 12.4178 14.15 12.625V13.375ZM19.4 13.375C19.4 13.5822 19.2825 13.75 19.1375 13.75H16.5125C16.3675 13.75 16.25 13.5822 16.25 13.375V12.625C16.25 12.4178 16.3675 12.25 16.5125 12.25H19.1375C19.2825 12.25 19.4 12.4178 19.4 12.625V13.375ZM19.4 8.875C19.4 9.08219 19.2825 9.25 19.1375 9.25H10.2125C10.0675 9.25 9.95 9.08219 9.95 8.875V8.125C9.95 7.91781 10.0675 7.75 10.2125 7.75H19.1375C19.2825 7.75 19.4 7.91781 19.4 8.125V8.875Z" fill="white"/>
</svg>
