<svg width="22" height="22" viewBox="0 0 22 22" fill="none" xmlns="http://www.w3.org/2000/svg">
<g clip-path="url(#clip0)">
<path d="M15.8049 3.50837V0.25H7.50763C6.88415 0.250767 6.37899 0.755921 6.37842 1.37921V16.6709C6.37899 17.2944 6.88415 17.7996 7.50763 17.8001H18.9488C19.5722 17.7996 20.0774 17.2944 20.078 16.6709V4.65274L16.9487 4.65216C16.3173 4.65139 15.8056 4.13972 15.8049 3.50837ZM11.2566 7.44182C10.3207 7.44124 9.53841 6.72954 9.44942 5.79787C9.36063 4.86619 9.99408 4.01947 10.9129 3.84169V3.34306C10.9129 3.15319 11.0667 2.99938 11.2566 2.99938C11.4464 2.99938 11.6003 3.15319 11.6003 3.34306V3.84169C12.4546 4.00739 13.072 4.75496 13.0731 5.62526C13.0731 5.81493 12.9193 5.96894 12.7295 5.96894C12.5396 5.96894 12.3858 5.81493 12.3858 5.62526C12.3858 5.00159 11.8803 4.49605 11.2566 4.49605C10.6329 4.49605 10.1274 5.00159 10.1274 5.62526C10.1274 6.24894 10.6329 6.75447 11.2566 6.75447C12.1925 6.75505 12.9748 7.46656 13.0637 8.39843C13.1527 9.3301 12.5191 10.1768 11.6003 10.3544V10.9202C11.6003 11.1098 11.4464 11.2638 11.2566 11.2638C11.0667 11.2638 10.9129 11.1098 10.9129 10.9202V10.3544C10.0585 10.1887 9.44117 9.44115 9.44002 8.57103C9.44002 8.38117 9.59383 8.22736 9.7837 8.22736C9.97356 8.22736 10.1274 8.38117 10.1274 8.57103C10.1281 9.18876 10.6249 9.69161 11.2428 9.69986C11.2474 9.69986 11.252 9.69909 11.2566 9.69909C11.2612 9.69909 11.2658 9.69967 11.2706 9.69986C11.8868 9.68605 12.3781 9.18032 12.3743 8.56394C12.3705 7.94755 11.873 7.44796 11.2566 7.44182ZM8.49933 12.6828H14.0138C14.2035 12.6828 14.3575 12.8366 14.3575 13.0265C14.3575 13.2164 14.2035 13.3702 14.0138 13.3702H8.49933C8.30947 13.3702 8.15566 13.2164 8.15566 13.0265C8.15566 12.8366 8.30947 12.6828 8.49933 12.6828ZM18.0543 15.1837C18.0543 15.3735 17.9005 15.5273 17.7106 15.5273H8.49933C8.30947 15.5273 8.15566 15.3735 8.15566 15.1837C8.15566 14.9938 8.30947 14.84 8.49933 14.84H17.7106C17.9005 14.84 18.0543 14.9938 18.0543 15.1837Z" fill="white"/>
<path d="M16.9488 3.96472L19.6094 3.96529L16.4922 0.753906V3.50828C16.4924 3.76028 16.6966 3.96453 16.9488 3.96472Z" fill="white"/>
<path d="M5.69103 16.6709V3.69971H3.08893C2.46545 3.70047 1.96029 4.20563 1.95972 4.82892V20.1206C1.96029 20.7441 2.46545 21.2493 3.08893 21.2499H14.5301C15.1535 21.2493 15.6587 20.7441 15.6593 20.1206V18.4874H7.50758C6.50476 18.4865 5.69198 17.6737 5.69103 16.6709Z" fill="white"/>
</g>
<defs>
<clipPath id="clip0">
<rect width="21" height="21" fill="white" transform="translate(0.5 0.25)"/>
</clipPath>
</defs>
</svg>
