<svg width="36" height="36" viewBox="0 0 36 36" fill="none" xmlns="http://www.w3.org/2000/svg">
<path d="M18.0078 17.3137C17.102 17.3137 16.3671 18.0478 16.3671 18.9543C16.4451 23.8933 15.8107 28.6545 14.4735 33.4157C14.2869 34.0802 14.6205 35.5 16.054 35.5C16.7704 35.5 17.4288 35.027 17.6325 34.3023C18.5574 31.0272 19.7544 25.7294 19.6477 18.9543C19.6484 18.0485 18.9142 17.3137 18.0078 17.3137ZM17.949 11.7267C13.7612 11.7219 10.8388 14.9443 10.8969 18.6371C10.9482 21.9143 10.6406 25.1935 9.98296 28.3817C9.79908 29.269 10.3706 30.1379 11.2572 30.3204C12.1493 30.5029 13.012 29.9335 13.1959 29.0462C13.9027 25.6221 14.2329 22.1022 14.1782 18.5858C14.1502 16.8119 15.54 14.9977 17.9004 15.0079C20.0408 15.04 21.8072 16.7401 21.8394 18.7998C21.892 22.0845 21.6473 25.3849 21.114 28.6128C20.9657 29.5056 21.5714 30.3505 22.4648 30.4981C23.83 30.7258 24.2976 29.4659 24.3502 29.1467C24.9162 25.7267 25.1746 22.228 25.1206 18.7485C25.0605 14.9341 21.8435 11.7841 17.949 11.7267ZM10.3822 10.3745C9.67808 9.80439 8.64789 9.90966 8.07435 10.6124C6.32296 12.7657 5.38164 15.4851 5.42539 18.2686C5.46572 20.8376 5.25654 23.4141 4.80263 25.9283C4.64267 26.8204 5.23398 27.6735 6.12608 27.8349C7.50081 28.0741 7.97659 26.8225 8.03265 26.5114C8.52416 23.788 8.75043 20.9976 8.70668 18.2174C8.67455 16.1748 9.33559 14.2607 10.6208 12.6823C11.1916 11.9796 11.0849 10.9467 10.3822 10.3745ZM17.8656 6.11367C16.8121 6.08564 15.7553 6.2121 14.736 6.45341C13.8549 6.66259 13.3094 7.5458 13.5172 8.42832C13.7264 9.30947 14.6109 9.85224 15.4921 9.64716C16.2475 9.46875 17.0282 9.38945 17.8164 9.39492C22.9728 9.47216 27.2316 13.599 27.3102 18.5947C27.3505 21.1842 27.2227 23.7976 26.9288 26.3624C26.8262 27.2627 27.4722 28.0769 28.3719 28.1794C29.5148 28.3127 30.1157 27.3673 30.1889 26.7363C30.4995 24.0169 30.634 21.2802 30.5915 18.5435C30.4849 11.793 24.7761 6.21621 17.8656 6.11367ZM35.0971 14.4159C34.9016 13.5327 34.0369 12.9667 33.1413 13.167C32.2568 13.3625 31.6976 14.2375 31.8931 15.1228C32.2151 16.5863 32.2287 17.6801 32.2144 19.3337C32.2069 20.2408 32.9356 20.9805 33.8413 20.988H33.855C34.7553 20.988 35.4881 20.2627 35.4957 19.361C35.508 17.8448 35.523 16.3457 35.0971 14.4159ZM32.3545 8.21435C29.0254 3.47089 23.5778 0.588179 17.7815 0.501363C13.0106 0.443941 8.59799 2.20283 5.31602 5.48613C2.14615 8.66005 0.437833 12.8758 0.508928 17.3608L0.500725 18.8285C0.474064 19.7343 1.18638 20.4903 2.09215 20.5163C2.10787 20.5177 2.12496 20.5177 2.14137 20.5177C3.02458 20.5177 3.75399 19.8136 3.77996 18.9249L3.7909 17.3089C3.73416 13.72 5.10068 10.3458 7.63821 7.80693C10.2879 5.15458 13.8822 3.72793 17.7336 3.7833C22.4813 3.85371 26.9438 6.21416 29.6707 10.099C30.1909 10.8414 31.2129 11.0185 31.9553 10.4996C32.6963 9.97871 32.8754 8.95537 32.3545 8.21435Z" fill="#9B79FF"/>
</svg>
