<svg width="31" height="31" viewBox="0 0 31 31" fill="none" xmlns="http://www.w3.org/2000/svg">
<path d="M7.53125 15.5C7.53125 14.0136 7.94076 12.6213 8.65221 11.4291V6.37195H3.5951C1.58797 8.97867 0.5 12.1556 0.5 15.5C0.5 18.8444 1.58797 22.0213 3.5951 24.628H8.65221V19.5709C7.94076 18.3787 7.53125 16.9863 7.53125 15.5Z" fill="#FBBD00"/>
<path d="M15.5 23.4687L11.9844 26.9844L15.5 30.5C18.8445 30.5 22.0213 29.412 24.628 27.4049V22.3532H19.5763C18.3737 23.0672 16.9754 23.4687 15.5 23.4687Z" fill="#0F9D58"/>
<path d="M8.65232 19.5709L3.59521 24.628C3.9926 25.1441 4.42531 25.6383 4.89354 26.1066C7.72666 28.9397 11.4935 30.5 15.5001 30.5V23.4687C12.5925 23.4687 10.044 21.9031 8.65232 19.5709Z" fill="#31AA52"/>
<path d="M30.5 15.5C30.5 14.5874 30.4174 13.6731 30.2544 12.7826L30.1225 12.062H15.5V19.0932H22.6163C21.9253 20.4679 20.8627 21.5894 19.5762 22.3532L24.628 27.405C25.1441 27.0076 25.6383 26.5749 26.1066 26.1066C28.9397 23.2735 30.5 19.5066 30.5 15.5Z" fill="#3C79E6"/>
<path d="M21.1348 9.86521L21.7562 10.4867L26.7281 5.51486L26.1066 4.89342C23.2735 2.06029 19.5067 0.5 15.5 0.5L11.9844 4.01562L15.5 7.53125C17.6285 7.53125 19.6296 8.36012 21.1348 9.86521Z" fill="#CF2D48"/>
<path d="M15.4999 7.53125V0.5C11.4933 0.5 7.72648 2.06029 4.89329 4.89336C4.42507 5.36158 3.99235 5.85582 3.59497 6.37197L8.65208 11.4291C10.0439 9.09687 12.5923 7.53125 15.4999 7.53125Z" fill="#EB4132"/>
</svg>
