<svg width="22" height="22" viewBox="0 0 22 22" fill="none" xmlns="http://www.w3.org/2000/svg">
<g clip-path="url(#clip0)">
<path d="M10.3848 6.44336V7.78715C9.67019 8.04198 9.1543 8.7185 9.1543 9.51953C9.1543 10.5373 9.98224 11.3652 11 11.3652C11.3394 11.3652 11.6152 11.641 11.6152 11.9805C11.6152 12.3199 11.3394 12.5957 11 12.5957C10.6606 12.5957 10.3848 12.3199 10.3848 11.9805H9.1543C9.1543 12.7815 9.67019 13.458 10.3848 13.7128V15.0566H11.6152V13.7128C12.3298 13.458 12.8457 12.7815 12.8457 11.9805C12.8457 10.9627 12.0178 10.1348 11 10.1348C10.6606 10.1348 10.3848 9.85898 10.3848 9.51953C10.3848 9.18009 10.6606 8.9043 11 8.9043C11.3394 8.9043 11.6152 9.18009 11.6152 9.51953H12.8457C12.8457 8.7185 12.3298 8.04198 11.6152 7.78715V6.44336H10.3848Z" fill="white"/>
<path d="M11.6152 0.25V5.27507C14.1718 5.56271 16.1906 7.58158 16.4789 10.1348H21.5C21.1917 4.85204 16.8988 0.558232 11.6152 0.25Z" fill="white"/>
<path d="M6.69307 14.1869C5.93535 13.2395 5.46289 12.0547 5.46289 10.75C5.46289 7.90733 7.6238 5.58568 10.3848 5.27507V0.25C4.89655 0.570168 0.5 5.18143 0.5 10.75C0.5 13.4166 1.54729 15.8424 3.19017 17.6898L6.69307 14.1869Z" fill="white"/>
<path d="M21.4989 11.3652H16.4749C16.1643 14.1262 13.8427 16.2871 11 16.2871C9.69524 16.2871 8.5105 15.8147 7.56308 15.0569L4.06018 18.5598C5.90757 20.2027 8.33335 21.25 11 21.25C16.5686 21.25 21.1787 16.8535 21.4989 11.3652Z" fill="white"/>
<path d="M10.3848 6.44336V7.78715C9.67019 8.04198 9.1543 8.7185 9.1543 9.51953C9.1543 10.5373 9.98224 11.3652 11 11.3652C11.3394 11.3652 11.6152 11.641 11.6152 11.9805C11.6152 12.3199 11.3394 12.5957 11 12.5957C10.6606 12.5957 10.3848 12.3199 10.3848 11.9805H9.1543C9.1543 12.7815 9.67019 13.458 10.3848 13.7128V15.0566H11.6152V13.7128C12.3298 13.458 12.8457 12.7815 12.8457 11.9805C12.8457 10.9627 12.0178 10.1348 11 10.1348C10.6606 10.1348 10.3848 9.85898 10.3848 9.51953C10.3848 9.18009 10.6606 8.9043 11 8.9043C11.3394 8.9043 11.6152 9.18009 11.6152 9.51953H12.8457C12.8457 8.7185 12.3298 8.04198 11.6152 7.78715V6.44336H10.3848Z" fill="white"/>
<path d="M11.6152 0.25V5.27507C14.1718 5.56271 16.1906 7.58158 16.4789 10.1348H21.5C21.1917 4.85204 16.8988 0.558232 11.6152 0.25Z" fill="white"/>
<path d="M6.69307 14.1869C5.93535 13.2395 5.46289 12.0547 5.46289 10.75C5.46289 7.90733 7.6238 5.58568 10.3848 5.27507V0.25C4.89655 0.570168 0.5 5.18143 0.5 10.75C0.5 13.4166 1.54729 15.8424 3.19017 17.6898L6.69307 14.1869Z" fill="white"/>
<path d="M21.4989 11.3652H16.4749C16.1643 14.1262 13.8427 16.2871 11 16.2871C9.69524 16.2871 8.5105 15.8147 7.56308 15.0569L4.06018 18.5598C5.90757 20.2027 8.33335 21.25 11 21.25C16.5686 21.25 21.1787 16.8535 21.4989 11.3652Z" fill="white"/>
</g>
<defs>
<clipPath id="clip0">
<rect width="21" height="21" fill="white" transform="translate(0.5 0.25)"/>
</clipPath>
</defs>
</svg>
