<svg width="22" height="21" viewBox="0 0 22 21" fill="none" xmlns="http://www.w3.org/2000/svg">
<path d="M19.9171 7.34314L18.4443 2.43384C18.1085 1.31424 17.0979 0.5625 15.9296 0.5625H6.07043C4.90213 0.5625 3.89147 1.31424 3.55566 2.43384L2.08286 7.34314C1.15288 7.74729 0.5 8.67278 0.5 9.75V15C0.5 15.7248 1.08768 16.3125 1.8125 16.3125H1.81258L1.8125 17.6249C1.8125 18.3498 2.4001 18.9375 3.125 18.9375H4.43758C5.1624 18.9375 5.75008 18.3498 5.75008 17.625L5.74952 16.3125H16.25L16.2499 17.6249C16.2499 18.3498 16.8375 18.9375 17.5624 18.9375H18.875C19.5999 18.9375 20.1875 18.3498 20.1875 17.625V16.3126L20.187 16.3125H20.1875C20.9123 16.3125 21.5 15.7248 21.5 15V9.75C21.5 8.67278 20.8471 7.74728 19.9171 7.34313L19.9171 7.34314ZM6.07039 3.1875H15.9295L17.1108 7.125H4.88911L6.07039 3.1875H6.07039ZM5.74996 13.0312C5.02506 13.0312 4.43746 12.4436 4.43746 11.7188C4.43746 10.9938 5.02506 10.4062 5.74996 10.4062C6.47486 10.4062 7.06246 10.9938 7.06246 11.7188C7.06246 12.4436 6.47486 13.0312 5.74996 13.0312ZM16.25 13.0312C15.5251 13.0312 14.9375 12.4436 14.9375 11.7188C14.9375 10.9938 15.5251 10.4062 16.25 10.4062C16.9749 10.4062 17.5625 10.9938 17.5625 11.7188C17.5625 12.4436 16.9749 13.0312 16.25 13.0312Z" fill="white"/>
</svg>
