<svg width="36" height="36" viewBox="0 0 36 36" fill="none" xmlns="http://www.w3.org/2000/svg">
<g clip-path="url(#clip0)">
<path d="M28.9375 10.7084C29.8169 10.7084 30.6956 10.8999 31.5494 11.2773C31.7787 11.3792 32.0471 11.3563 32.2557 11.2125C32.4637 11.0701 32.584 10.8301 32.5726 10.5781C32.5028 9.01579 31.226 7.79175 29.6666 7.79175H3.41662C1.80806 7.79175 0.5 9.0998 0.5 10.7084V18.0001C0.5 19.6086 1.80806 20.9167 3.41669 20.9167H20.1875C20.5905 20.9167 20.9167 20.5906 20.9167 20.1876V19.4584C20.9167 18.5255 21.3774 17.6397 22.1478 17.0886C22.3173 16.9675 22.427 16.7803 22.449 16.5737C22.8087 13.2299 25.5986 10.7084 28.9375 10.7084ZM7.23196 14.4518C7.58087 14.6533 7.7005 15.0991 7.49897 15.448C7.36369 15.6816 7.11869 15.8126 6.86665 15.8126C6.74271 15.8126 6.61741 15.7812 6.50277 15.715L6.33331 15.6172V15.8126C6.33331 16.2156 6.00717 16.5417 5.60412 16.5417C5.20114 16.5417 4.875 16.2156 4.875 15.8126V15.6172L4.70554 15.715C4.5909 15.7812 4.4656 15.8126 4.34166 15.8126C4.08955 15.8126 3.84462 15.6815 3.70934 15.448C3.50781 15.0991 3.62744 14.6533 3.97635 14.4518L4.1454 14.3542L3.97635 14.2567C3.62744 14.0552 3.50781 13.6094 3.70934 13.2605C3.91086 12.9116 4.35731 12.792 4.70554 12.9935L4.875 13.0912V12.8959C4.875 12.4928 5.20114 12.1667 5.60419 12.1667C6.00724 12.1667 6.33338 12.4928 6.33338 12.8959V13.0912L6.50284 12.9934C6.84895 12.7919 7.29684 12.9115 7.49904 13.2604C7.70057 13.6093 7.58094 14.0551 7.23203 14.2566L7.06298 14.3542L7.23196 14.4518ZM13.0653 14.4518C13.4142 14.6533 13.5339 15.0991 13.3324 15.448C13.1971 15.6816 12.9521 15.8126 12.7 15.8126C12.5761 15.8126 12.4508 15.7812 12.3362 15.715L12.1667 15.6172V15.8126C12.1667 16.2156 11.8405 16.5417 11.4375 16.5417C11.0345 16.5417 10.7083 16.2156 10.7083 15.8126V15.6172L10.5388 15.715C10.4242 15.7812 10.2989 15.8126 10.175 15.8126C9.92286 15.8126 9.67793 15.6815 9.54265 15.448C9.34112 15.0991 9.46075 14.6533 9.80966 14.4518L9.97871 14.3542L9.80966 14.2567C9.46075 14.0552 9.34112 13.6094 9.54265 13.2605C9.74349 12.9116 10.1892 12.792 10.5388 12.9935L10.7083 13.0913V12.8959C10.7083 12.4929 11.0345 12.1667 11.4375 12.1667C11.8405 12.1667 12.1667 12.4929 12.1667 12.8959V13.0913L12.3362 12.9935C12.6829 12.792 13.1294 12.9116 13.3324 13.2605C13.5339 13.6094 13.4142 14.0552 13.0653 14.2567L12.8963 14.3542L13.0653 14.4518ZM18.8987 14.4518C19.2476 14.6533 19.3672 15.0991 19.1657 15.448C19.0304 15.6816 18.7854 15.8126 18.5333 15.8126C18.4094 15.8126 18.2841 15.7812 18.1695 15.715L18 15.6172V15.8126C18 16.2156 17.6739 16.5417 17.2708 16.5417C16.8678 16.5417 16.5416 16.2156 16.5416 15.8126V15.6172L16.3722 15.715C16.2575 15.7812 16.1322 15.8126 16.0083 15.8126C15.7562 15.8126 15.5112 15.6815 15.376 15.448C15.1744 15.0991 15.2941 14.6533 15.643 14.4518L15.812 14.3542L15.643 14.2567C15.2941 14.0552 15.1744 13.6094 15.376 13.2605C15.5768 12.9116 16.0233 12.792 16.3722 12.9935L16.5416 13.0913V12.8959C16.5416 12.4929 16.8678 12.1667 17.2708 12.1667C17.6739 12.1667 18 12.4929 18 12.8959V13.0913L18.1695 12.9935C18.5169 12.792 18.9635 12.9116 19.1657 13.2605C19.3672 13.6094 19.2476 14.0552 18.8987 14.2567L18.7296 14.3542L18.8987 14.4518Z" fill="#9B79FF"/>
<path d="M34.0417 18.0001V17.2709C34.0417 14.4568 31.7517 12.1667 28.9375 12.1667C26.1233 12.1667 23.8333 14.4568 23.8333 17.2709V18.0001C23.0294 18.0001 22.375 18.6545 22.375 19.4584V26.7501C22.375 27.554 23.0294 28.2084 23.8333 28.2084H34.0416C34.8455 28.2084 35.4999 27.554 35.4999 26.7501V19.4584C35.5 18.6545 34.8456 18.0001 34.0417 18.0001ZM29.6667 23.6092V24.5626C29.6667 24.9657 29.3405 25.2918 28.9375 25.2918C28.5345 25.2918 28.2083 24.9657 28.2083 24.5626V23.6092C27.7805 23.3546 27.4791 22.9077 27.4791 22.3751C27.4791 21.5712 28.1335 20.9168 28.9374 20.9168C29.7413 20.9168 30.3957 21.5712 30.3957 22.3751C30.3958 22.9078 30.0944 23.3546 29.6667 23.6092ZM31.125 18.0001H26.75V17.2709C26.75 16.0647 27.7312 15.0834 28.9375 15.0834C30.1438 15.0834 31.125 16.0647 31.125 17.2709V18.0001Z" fill="#9B79FF"/>
</g>
<defs>
<clipPath id="clip0">
<rect width="35" height="35" fill="white" transform="translate(0.5 0.5)"/>
</clipPath>
</defs>
</svg>
